%TF.GenerationSoftware,KiCad,Pcbnew,10.0.6*%
%TF.CreationDate,2026-09-09T11:39:24-04:00*%
%TF.ProjectId,single_detector_usb_master,73696e67-6c65-45f6-9465-746563746f72,R1-PLACEMENT-DRAFT*%
%TF.SameCoordinates,Original*%
%TF.FileFunction,Copper,L4,Bot*%
%TF.FilePolarity,Positive*%
%FSLAX46Y46*%
G04 Gerber Fmt 4.6, Leading zero omitted, Abs format (unit mm)*
G04 Created by KiCad (PCBNEW 10.0.6) date 2026-09-09 11:39:24*
%MOMM*%
%LPD*%
G01*
G04 APERTURE LIST*
%TA.AperFunction,ComponentPad*%
%ADD10C,2.540000*%
%TD*%
%TA.AperFunction,ComponentPad*%
%ADD11R,2.000000X4.600000*%
%TD*%
%TA.AperFunction,ComponentPad*%
%ADD12O,2.000000X4.200000*%
%TD*%
%TA.AperFunction,ComponentPad*%
%ADD13O,4.200000X2.000000*%
%TD*%
%TA.AperFunction,ComponentPad*%
%ADD14R,2.000000X2.000000*%
%TD*%
%TA.AperFunction,ComponentPad*%
%ADD15C,2.000000*%
%TD*%
%TA.AperFunction,ComponentPad*%
%ADD16C,1.440000*%
%TD*%
%TA.AperFunction,ViaPad*%
%ADD17C,0.600000*%
%TD*%
%TA.AperFunction,Conductor*%
%ADD18C,0.250000*%
%TD*%
%TA.AperFunction,Conductor*%
%ADD19C,0.300000*%
%TD*%
%TA.AperFunction,Conductor*%
%ADD20C,0.400000*%
%TD*%
%TA.AperFunction,Conductor*%
%ADD21C,1.000000*%
%TD*%
%TA.AperFunction,Conductor*%
%ADD22C,0.200000*%
%TD*%
G04 APERTURE END LIST*
D10*
%TO.P,JDET3,1*%
%TO.N,SENSOR_BAT_SW*%
X4000000Y58322500D03*
%TO.P,JDET3,2*%
%TO.N,SENSOR2*%
X4000000Y63402500D03*
%TD*%
D11*
%TO.P,J1,1*%
%TO.N,DET_BAT_RAW*%
X70200000Y88500000D03*
D12*
%TO.P,J1,2*%
%TO.N,GND*%
X76500000Y88500000D03*
D13*
%TO.P,J1,3*%
%TO.N,unconnected-(J1-SWITCH_NC-Pad3)*%
X73100000Y93300000D03*
%TD*%
D14*
%TO.P,J3,1*%
%TO.N,ESP_3V3*%
X74080000Y28000000D03*
D15*
%TO.P,J3,2*%
%TO.N,GND*%
X71540000Y28000000D03*
%TO.P,J3,3*%
%TO.N,unconnected-(J3-GPIO15-Pad3)*%
X69000000Y28000000D03*
%TO.P,J3,4*%
%TO.N,unconnected-(J3-GPIO2-Pad4)*%
X66460000Y28000000D03*
%TO.P,J3,5*%
%TO.N,ESP_DRDY*%
X63920000Y28000000D03*
%TO.P,J3,6*%
%TO.N,unconnected-(J3-GPIO16{slash}RX2-Pad6)*%
X61380000Y28000000D03*
%TO.P,J3,7*%
%TO.N,unconnected-(J3-GPIO17{slash}TX2-Pad7)*%
X58840000Y28000000D03*
%TO.P,J3,8*%
%TO.N,ESP_CS_N*%
X56300000Y28000000D03*
%TO.P,J3,9*%
%TO.N,ESP_SCLK*%
X53760000Y28000000D03*
%TO.P,J3,10*%
%TO.N,ESP_MISO*%
X51220000Y28000000D03*
%TO.P,J3,11*%
%TO.N,unconnected-(J3-GPIO21-Pad11)*%
X48680000Y28000000D03*
%TO.P,J3,12*%
%TO.N,unconnected-(J3-GPIO3{slash}RX0-Pad12)*%
X46140000Y28000000D03*
%TO.P,J3,13*%
%TO.N,unconnected-(J3-GPIO1{slash}TX0-Pad13)*%
X43600000Y28000000D03*
%TO.P,J3,14*%
%TO.N,unconnected-(J3-GPIO22-Pad14)*%
X41060000Y28000000D03*
%TO.P,J3,15*%
%TO.N,ESP_MOSI*%
X38520000Y28000000D03*
%TD*%
D14*
%TO.P,J4,1*%
%TO.N,USB_PRESENT_5V*%
X74080000Y2600000D03*
D15*
%TO.P,J4,2*%
%TO.N,GND*%
X71540000Y2600000D03*
%TO.P,J4,3*%
%TO.N,unconnected-(J4-GPIO13-Pad3)*%
X69000000Y2600000D03*
%TO.P,J4,4*%
%TO.N,unconnected-(J4-GPIO12-Pad4)*%
X66460000Y2600000D03*
%TO.P,J4,5*%
%TO.N,unconnected-(J4-GPIO14-Pad5)*%
X63920000Y2600000D03*
%TO.P,J4,6*%
%TO.N,unconnected-(J4-GPIO27-Pad6)*%
X61380000Y2600000D03*
%TO.P,J4,7*%
%TO.N,ESP_EMIT3*%
X58840000Y2600000D03*
%TO.P,J4,8*%
%TO.N,ESP_EMIT2*%
X56300000Y2600000D03*
%TO.P,J4,9*%
%TO.N,ESP_EMIT1*%
X53760000Y2600000D03*
%TO.P,J4,10*%
%TO.N,unconnected-(J4-GPIO32-Pad10)*%
X51220000Y2600000D03*
%TO.P,J4,11*%
%TO.N,ESP_POWER_NOT_READY*%
X48680000Y2600000D03*
%TO.P,J4,12*%
%TO.N,unconnected-(J4-GPIO34-Pad12)*%
X46140000Y2600000D03*
%TO.P,J4,13*%
%TO.N,unconnected-(J4-GPIO39{slash}VN-Pad13)*%
X43600000Y2600000D03*
%TO.P,J4,14*%
%TO.N,unconnected-(J4-GPIO36{slash}VP-Pad14)*%
X41060000Y2600000D03*
%TO.P,J4,15*%
%TO.N,unconnected-(J4-EN-Pad15)*%
X38520000Y2600000D03*
%TD*%
D11*
%TO.P,J2,1*%
%TO.N,EM_BAT_RAW*%
X70200000Y40500000D03*
D12*
%TO.P,J2,2*%
%TO.N,EM_GND*%
X76500000Y40500000D03*
D13*
%TO.P,J2,3*%
%TO.N,unconnected-(J2-SWITCH_NC-Pad3)*%
X73100000Y45300000D03*
%TD*%
D10*
%TO.P,JDET4,1*%
%TO.N,SENSOR_BAT_SW*%
X4000000Y70742500D03*
%TO.P,JDET4,2*%
%TO.N,SENSOR3*%
X4000000Y75822500D03*
%TD*%
D16*
%TO.P,RV100,1*%
%TO.N,EM_REG*%
X76560000Y50500000D03*
%TO.P,RV100,2*%
X79100000Y50500000D03*
%TO.P,RV100,3*%
%TO.N,EM_TRIM_TOP*%
X81640000Y50500000D03*
%TD*%
D10*
%TO.P,JDET1,1*%
%TO.N,SENSOR_BAT_SW*%
X4000000Y33497500D03*
%TO.P,JDET1,2*%
%TO.N,SENSOR0*%
X4000000Y38577500D03*
%TD*%
D15*
%TO.P,JEM3,1*%
%TO.N,EM_REG*%
X7045000Y5100000D03*
%TO.P,JEM3,2*%
%TO.N,EMIT3_LOW*%
X4505000Y5100000D03*
%TD*%
D10*
%TO.P,JDET6,1*%
%TO.N,SENSOR_BAT_SW*%
X4034100Y94920000D03*
%TO.P,JDET6,2*%
%TO.N,SENSOR5*%
X4034100Y100000000D03*
%TD*%
D14*
%TO.P,J5,1*%
%TO.N,ADC_5V_HELD*%
X41210000Y34025000D03*
D15*
%TO.P,J5,2*%
%TO.N,GND*%
X43750000Y34025000D03*
%TO.P,J5,3*%
%TO.N,ADC_SCLK*%
X46290000Y34025000D03*
%TO.P,J5,4*%
%TO.N,ADC_MOSI*%
X48830000Y34025000D03*
%TO.P,J5,5*%
%TO.N,ADC_MISO*%
X51370000Y34025000D03*
%TO.P,J5,6*%
%TO.N,ADC_DRDY_N*%
X53910000Y34025000D03*
%TO.P,J5,7*%
%TO.N,ADC_CS_N*%
X56450000Y34025000D03*
%TO.P,J5,8*%
%TO.N,ADC_PDWN_N*%
X58990000Y34025000D03*
%TD*%
D10*
%TO.P,JDET5,1*%
%TO.N,SENSOR_BAT_SW*%
X4120000Y82542500D03*
%TO.P,JDET5,2*%
%TO.N,SENSOR4*%
X4120000Y87622500D03*
%TD*%
%TO.P,JDET2,1*%
%TO.N,SENSOR_BAT_SW*%
X4000000Y45920000D03*
%TO.P,JDET2,2*%
%TO.N,SENSOR1*%
X4000000Y51000000D03*
%TD*%
D15*
%TO.P,JEM1,1*%
%TO.N,EM_REG*%
X24045000Y5100000D03*
%TO.P,JEM1,2*%
%TO.N,EMIT1_LOW*%
X21505000Y5100000D03*
%TD*%
%TO.P,JEM2,1*%
%TO.N,EM_REG*%
X15545000Y5100000D03*
%TO.P,JEM2,2*%
%TO.N,EMIT2_LOW*%
X13005000Y5100000D03*
%TD*%
D14*
%TO.P,J6,1*%
%TO.N,ADC_AIN0*%
X41210000Y91175000D03*
D15*
%TO.P,J6,2*%
%TO.N,GND*%
X41210000Y88635000D03*
%TO.P,J6,3*%
%TO.N,ADC_AIN1*%
X43750000Y91175000D03*
%TO.P,J6,4*%
%TO.N,GND*%
X43750000Y88635000D03*
%TO.P,J6,5*%
%TO.N,ADC_AIN2*%
X46290000Y91175000D03*
%TO.P,J6,6*%
%TO.N,GND*%
X46290000Y88635000D03*
%TO.P,J6,7*%
%TO.N,ADC_AIN3*%
X48830000Y91175000D03*
%TO.P,J6,8*%
%TO.N,GND*%
X48830000Y88635000D03*
%TO.P,J6,9*%
%TO.N,ADC_AIN4*%
X51370000Y91175000D03*
%TO.P,J6,10*%
%TO.N,GND*%
X51370000Y88635000D03*
%TO.P,J6,11*%
%TO.N,ADC_AIN5*%
X53910000Y91175000D03*
%TO.P,J6,12*%
%TO.N,GND*%
X53910000Y88635000D03*
%TO.P,J6,13*%
X56450000Y91175000D03*
%TO.P,J6,14*%
X56450000Y88635000D03*
%TO.P,J6,15*%
X58990000Y91175000D03*
%TO.P,J6,16*%
X58990000Y88635000D03*
%TD*%
D17*
%TO.N,AMP_OUT0*%
X23408500Y44248300D03*
X15198800Y42496600D03*
X27112300Y48705700D03*
%TO.N,AMP_IN0*%
X22935200Y47948500D03*
X17825000Y41916100D03*
%TO.N,GND*%
X26500000Y126675000D03*
X72000000Y119241700D03*
X67062500Y119876800D03*
X25300000Y112675000D03*
X15356700Y66013000D03*
X17500000Y125675000D03*
X22000000Y119550000D03*
X48345200Y68011600D03*
X55563200Y72151000D03*
X17362500Y62987700D03*
X31775000Y124000000D03*
X70184400Y20944600D03*
X26775000Y128500000D03*
X22000000Y124450000D03*
X67796400Y16656600D03*
X30825000Y121820000D03*
X53801400Y66611100D03*
X29350000Y11912500D03*
X35207600Y121767500D03*
X54912500Y21707600D03*
X28600000Y112675000D03*
X51746000Y24628500D03*
X22000000Y112675000D03*
X58775000Y72424000D03*
X33000000Y78373900D03*
%TO.N,AMP_FB1*%
X19222900Y37517100D03*
X16770900Y37823000D03*
X23040900Y37797300D03*
%TO.N,ADC_5V_HELD*%
X28565000Y92416600D03*
X61650000Y81082600D03*
X27308900Y67905400D03*
X23399200Y88929100D03*
X53694700Y80211900D03*
X22193800Y75464200D03*
X23424300Y43216000D03*
X15680700Y46569000D03*
X28711100Y41418400D03*
X55818600Y74482800D03*
X16319800Y91344200D03*
X47525000Y74931800D03*
X32231600Y82586300D03*
X43754700Y72491100D03*
X32227400Y41316000D03*
X21345300Y90966100D03*
%TO.N,EM_MASTER_GATE*%
X77200000Y132500000D03*
X77062500Y139100000D03*
%TO.N,EM_BAT_SW*%
X17604900Y17549700D03*
X68367600Y61109600D03*
X78937500Y135177500D03*
%TO.N,DET_BAT_PROTECTED*%
X10303800Y117413900D03*
X51954500Y74244700D03*
X55788000Y78677500D03*
X77500000Y114353600D03*
X23650000Y117024700D03*
X73565900Y106142400D03*
%TO.N,EM_GND*%
X70810000Y107230000D03*
X82950000Y68210000D03*
X82950000Y70372000D03*
X82950000Y74790000D03*
X70550000Y70372000D03*
X81286000Y66000000D03*
X12818400Y1894600D03*
X23256000Y13296900D03*
X81286000Y77000000D03*
X78070000Y79500000D03*
X76750000Y77000000D03*
X69500000Y81150000D03*
X82950000Y72628000D03*
X79018000Y77000000D03*
X71825000Y140200000D03*
%TO.N,EM_REG*%
X60778000Y51820600D03*
X58743900Y54721100D03*
%TO.N,ESP_3V3*%
X61725700Y56073400D03*
X70687500Y15189100D03*
X51254300Y62895600D03*
%TO.N,SENSOR0*%
X14177800Y43769400D03*
%TO.N,REF_NOT_READY*%
X55733700Y66838700D03*
X51084600Y71647400D03*
X51671800Y73100600D03*
X49536400Y75941200D03*
%TO.N,REF_CLAMP_RELEASE*%
X45506200Y79168000D03*
X44848500Y69010900D03*
%TO.N,ADC_IO_3V3*%
X51995700Y20958200D03*
X51187500Y22689900D03*
%TO.N,CLAMP_GND4*%
X31943600Y91137500D03*
X28232000Y90931800D03*
%TO.N,OFF_BIAS_RAIL*%
X52646300Y84486700D03*
X46482100Y62761000D03*
%TO.N,ESP_POWER_NOT_READY*%
X43500000Y59631000D03*
%TO.N,ISOLATE_H*%
X31275000Y71133900D03*
X34104800Y64768100D03*
X27970400Y46692500D03*
X31275000Y42565500D03*
X54437500Y69157500D03*
X26725000Y86139600D03*
X30977100Y89402300D03*
%TO.N,ADC_READY_RAW*%
X51899000Y66225300D03*
X63883300Y72054900D03*
X54713000Y64109200D03*
X55049400Y60400400D03*
%TO.N,REF_READY_RAW*%
X45390100Y69825400D03*
X49048200Y70147400D03*
%TO.N,SENSOR_BAT_SW*%
X75937500Y114136100D03*
X71009000Y113987100D03*
%TO.N,ADC_DRDY_N*%
X72853500Y17719400D03*
%TO.N,SENSOR3*%
X14087500Y65735000D03*
%TO.N,AMP_IN3*%
X22548200Y62161700D03*
X19405000Y70960100D03*
%TO.N,USB_SUP_CT*%
X45506400Y47806200D03*
X49137500Y49142200D03*
%TO.N,USB_PRESENT_5V*%
X63969800Y45715400D03*
X49137500Y46863600D03*
%TO.N,SPI_PERMIT*%
X62369900Y42627500D03*
X48060300Y12696700D03*
X54051700Y10269400D03*
%TO.N,AMP_OUT4*%
X15866500Y90289300D03*
X20550400Y94420100D03*
%TO.N,ADC_COMPARATOR_GOOD*%
X49153100Y79047700D03*
X55449100Y64646200D03*
%TO.N,DET_MASTER_SINK*%
X75736300Y118000000D03*
X68817800Y119175300D03*
%TO.N,ESP_EMIT1*%
X28109700Y20272800D03*
%TO.N,POWER_OFF_NODE*%
X44500000Y56718600D03*
X47562500Y60882700D03*
%TO.N,EM_ADJ*%
X79517300Y65132400D03*
X69500000Y65833300D03*
%TO.N,EM_MASTER_LED_A*%
X64712200Y111054600D03*
X56825000Y105986400D03*
%TO.N,EM_TRIM_TOP*%
X70720500Y61725200D03*
%TO.N,ADC_AIN0*%
X25976300Y42444800D03*
X27375000Y42867900D03*
%TO.N,CLAMP_GND0*%
X31998800Y43423700D03*
X28009400Y42153200D03*
%TO.N,ADC_AIN1*%
X28518100Y51554400D03*
X36166600Y69246800D03*
%TO.N,AMP_SERIES1*%
X29099500Y38140000D03*
X29975000Y40912900D03*
%TO.N,SENSOR2*%
X13068400Y73031500D03*
X19063100Y72500900D03*
%TO.N,ESP_MISO*%
X67841000Y11271300D03*
%TO.N,ESP_DRDY*%
X75250000Y12826100D03*
%TO.N,ESP_CS_N*%
X56281800Y23812000D03*
%TO.N,ESP_MOSI*%
X45701700Y23621400D03*
X49852600Y19625000D03*
%TO.N,ADC_SCLK*%
X48902700Y21096800D03*
X43800000Y23750000D03*
X49912500Y25741600D03*
%TO.N,ESP_EMIT3*%
X28000000Y4750700D03*
X28000000Y3353400D03*
X25915800Y12750000D03*
%TO.N,ESP_EMIT2*%
X27392800Y17520700D03*
%TO.N,AMP_IN4*%
X22937700Y96815900D03*
X18420000Y89850600D03*
%TO.N,ADC_AIN4*%
X27473100Y91988100D03*
%TO.N,ADC_SUP_CT*%
X41502600Y72522400D03*
X50137500Y71763700D03*
%TO.N,AMP_OUT2*%
X27725500Y72500900D03*
X23175900Y65588400D03*
X16013300Y67988900D03*
%TO.N,ADC_MISO*%
X67416700Y14691300D03*
%TO.N,SENSOR5*%
X14087500Y89946600D03*
X20087500Y83589500D03*
%TO.N,AMP_OUT3*%
X16865000Y66051300D03*
X22758300Y59876600D03*
%TO.N,AMP_SERIES3*%
X31959900Y61314800D03*
X29975000Y71109400D03*
%TO.N,ADC_AIN3*%
X31454600Y62873500D03*
X28843600Y66730000D03*
X26027700Y85255000D03*
%TO.N,ADC_AIN2*%
X27375000Y79945000D03*
X27138400Y65921500D03*
%TO.N,ADC_MOSI*%
X49912500Y18739000D03*
%TO.N,ADC_SCLK_DRV*%
X48087500Y23284300D03*
X49833900Y20951000D03*
%TO.N,ADC_AIN5*%
X30625000Y94918300D03*
X30626200Y91211000D03*
X25972400Y87091000D03*
%TO.N,AMP_SERIES5*%
X30192800Y86175900D03*
X29975000Y90199400D03*
%TO.N,EM_OPTO_C*%
X70134000Y117656100D03*
X78447800Y123250700D03*
%TO.N,AMP_OUT5*%
X19350000Y94750000D03*
X28058400Y84700500D03*
X19700000Y90600000D03*
X20500000Y92500000D03*
X19226300Y85764300D03*
%TO.N,EM_LED_RETURN*%
X20145000Y23444500D03*
X51528200Y54380200D03*
%TO.N,ADC_REG_EN*%
X35206600Y72619500D03*
X48893500Y56147400D03*
X37715300Y117425500D03*
X51978400Y69825900D03*
X19678600Y121163200D03*
%TO.N,ADC_CS_N*%
X61352000Y22688100D03*
X54475900Y30603900D03*
%TO.N,EM_LED_ENABLE_GATE*%
X61051600Y65773400D03*
X56175000Y60000000D03*
%TO.N,AMP_FB3*%
X24939700Y63254800D03*
X20087500Y57127800D03*
X19756300Y67829700D03*
%TO.N,ADC_SUP_MR_N*%
X49323800Y63135500D03*
X44415100Y78977200D03*
X51284100Y68602800D03*
%TO.N,ADC_PDWN_N*%
X56825000Y81069700D03*
X39772800Y69886100D03*
X42948400Y39074600D03*
X53869800Y70209500D03*
%TO.N,EM_BAT_FUSED*%
X71937500Y137200000D03*
X78400000Y129600000D03*
%TD*%
%TO.N,AMP_OUT0*%
D18*
X24700300Y47104100D02*
X23200100Y48604300D01*
X23200100Y48604300D02*
X16107900Y48604300D01*
X14531100Y44571200D02*
X15146900Y43955400D01*
X15146900Y42548500D02*
X15198800Y42496600D01*
X27112300Y48705700D02*
X25510700Y47104100D01*
X14531100Y47027500D02*
X14531100Y44571200D01*
X25510700Y47104100D02*
X24700300Y47104100D01*
X23408500Y44248300D02*
X23408500Y45812300D01*
X23408500Y45812300D02*
X24700300Y47104100D01*
X16107900Y48604300D02*
X14531100Y47027500D01*
X15146900Y43955400D02*
X15146900Y42548500D01*
%TO.N,AMP_IN0*%
X16154400Y47948500D02*
X22935200Y47948500D01*
X15053900Y44687200D02*
X15053900Y46848000D01*
X15053900Y46848000D02*
X16154400Y47948500D01*
X17825000Y41916100D02*
X15053900Y44687200D01*
%TO.N,GND*%
D19*
X58990000Y91175000D02*
X56450000Y91175000D01*
X17362500Y62987700D02*
X15356700Y64993500D01*
X62024400Y91175000D02*
X72473300Y91175000D01*
X58775000Y72424000D02*
X58502000Y72151000D01*
X53801400Y66661000D02*
X53801400Y66611100D01*
X56450000Y88635000D02*
X58990000Y88635000D01*
X72000000Y119241700D02*
X71364900Y119876800D01*
X76500000Y88500000D02*
X75148300Y88500000D01*
X43750000Y88635000D02*
X41210000Y88635000D01*
X70184400Y20944600D02*
X67796400Y18556600D01*
X58990000Y91175000D02*
X59273000Y90892000D01*
X51746000Y24628500D02*
X54666900Y21707600D01*
X61741400Y90892000D02*
X62024400Y91175000D01*
X48345200Y68011600D02*
X48576300Y67780500D01*
X54666900Y21707600D02*
X54912500Y21707600D01*
X35155100Y121820000D02*
X35207600Y121767500D01*
X70184400Y26644400D02*
X70184400Y20944600D01*
X71540000Y28000000D02*
X70184400Y26644400D01*
X71364900Y119876800D02*
X67062500Y119876800D01*
X48576300Y67780500D02*
X52681900Y67780500D01*
X58502000Y72151000D02*
X55563200Y72151000D01*
X51370000Y88635000D02*
X48830000Y88635000D01*
X52681900Y67780500D02*
X53801400Y66661000D01*
X67796400Y18556600D02*
X67796400Y16656600D01*
X48830000Y88635000D02*
X46290000Y88635000D01*
X15356700Y64993500D02*
X15356700Y66013000D01*
X46290000Y88635000D02*
X43750000Y88635000D01*
X56450000Y88635000D02*
X53910000Y88635000D01*
X59273000Y90892000D02*
X61741400Y90892000D01*
X30825000Y121820000D02*
X35155100Y121820000D01*
X53910000Y88635000D02*
X51370000Y88635000D01*
X72473300Y91175000D02*
X75148300Y88500000D01*
X41210000Y86583900D02*
X33000000Y78373900D01*
X41210000Y88635000D02*
X41210000Y86583900D01*
%TO.N,AMP_FB1*%
D18*
X19503000Y37797200D02*
X23040900Y37797200D01*
X19222900Y37517100D02*
X19503000Y37797200D01*
X18917000Y37823000D02*
X16770900Y37823000D01*
X19222900Y37517100D02*
X18917000Y37823000D01*
X23040900Y37797200D02*
X23040900Y37797300D01*
%TO.N,ADC_5V_HELD*%
D20*
X23399200Y88929100D02*
X27159900Y92689800D01*
X21345300Y90966100D02*
X21362200Y90966100D01*
X28291800Y92689800D02*
X28565000Y92416600D01*
X28924900Y41632200D02*
X31911200Y41632200D01*
X23424300Y43216000D02*
X25221900Y41418400D01*
X53694700Y80211900D02*
X56730800Y80211900D01*
X60779300Y80211900D02*
X61650000Y81082600D01*
X20967200Y91344200D02*
X21345300Y90966100D01*
X27159900Y92689800D02*
X28291800Y92689800D01*
X56730800Y80211900D02*
X60779300Y80211900D01*
X23424300Y43216000D02*
X20071300Y46569000D01*
X20071300Y46569000D02*
X15680700Y46569000D01*
X46195400Y74931800D02*
X43754700Y72491100D01*
X31911200Y41632200D02*
X32227400Y41316000D01*
X52805100Y80211900D02*
X47525000Y74931800D01*
X27308900Y67905400D02*
X25109500Y70104800D01*
X53694700Y80211900D02*
X52805100Y80211900D01*
X25109500Y70104800D02*
X25109500Y75464200D01*
X28711100Y41418400D02*
X28924900Y41632200D01*
X47525000Y74931800D02*
X46195400Y74931800D01*
X16319800Y91344200D02*
X20967200Y91344200D01*
X21362200Y90966100D02*
X23399200Y88929100D01*
X56730800Y75395000D02*
X55818600Y74482800D01*
X25221900Y41418400D02*
X28711100Y41418400D01*
X25109500Y75464200D02*
X32231600Y82586300D01*
X56730800Y80211900D02*
X56730800Y75395000D01*
X22193800Y75464200D02*
X25109500Y75464200D01*
%TO.N,EM_MASTER_GATE*%
D18*
X77200000Y132500000D02*
X77062500Y139100000D01*
%TO.N,EM_BAT_SW*%
D21*
X79463200Y134651800D02*
X78937500Y135177500D01*
X48024000Y47968800D02*
X17604900Y17549700D01*
X68367600Y61109600D02*
X68367600Y71851500D01*
X55226800Y47968800D02*
X48024000Y47968800D01*
X68367600Y61109600D02*
X55226800Y47968800D01*
X68367600Y71851500D02*
X79463200Y82947100D01*
X79463200Y82947100D02*
X79463200Y134651800D01*
%TO.N,DET_BAT_PROTECTED*%
X77500000Y106142400D02*
X77500000Y114353600D01*
X55788000Y78677500D02*
X55788000Y78078200D01*
X10303800Y117413900D02*
X10693000Y117024700D01*
X78218700Y105423700D02*
X78218700Y86708100D01*
X64956500Y73445900D02*
X52753300Y73445900D01*
X10693000Y117024700D02*
X23650000Y117024700D01*
X77500000Y106142400D02*
X73565900Y106142400D01*
X24250900Y116423800D02*
X75429800Y116423800D01*
X77500000Y106142400D02*
X78218700Y105423700D01*
X78218700Y86708100D02*
X64956500Y73445900D01*
X55788000Y78078200D02*
X51954500Y74244700D01*
X52753300Y73445900D02*
X51954500Y74244700D01*
X75429800Y116423800D02*
X77500000Y114353600D01*
X23650000Y117024700D02*
X24250900Y116423800D01*
%TO.N,EM_GND*%
X71716100Y43582200D02*
X63326800Y43582200D01*
X46072200Y43642000D02*
X23256000Y20825800D01*
X74798300Y40500000D02*
X71716100Y43582200D01*
X25746700Y4355200D02*
X23286100Y1894600D01*
X63326800Y43582200D02*
X63267000Y43642000D01*
X25746700Y10806200D02*
X25746700Y4355200D01*
X63267000Y43642000D02*
X46072200Y43642000D01*
X76500000Y40500000D02*
X74798300Y40500000D01*
X23256000Y20825800D02*
X23256000Y13296900D01*
X23256000Y13296900D02*
X25746700Y10806200D01*
X23286100Y1894600D02*
X12818400Y1894600D01*
%TO.N,EM_REG*%
X16390800Y21147700D02*
X50687200Y55444100D01*
X17258100Y6813100D02*
X16390800Y7680400D01*
X24045000Y5100000D02*
X22331900Y6813100D01*
X50687200Y55444100D02*
X57289300Y55444100D01*
X57289300Y55444100D02*
X58012300Y54721100D01*
X76560000Y50500000D02*
X62098600Y50500000D01*
X8758100Y3386900D02*
X7045000Y5100000D01*
X22331900Y6813100D02*
X17258100Y6813100D01*
X17258100Y6813100D02*
X15545000Y5100000D01*
X79100000Y50500000D02*
X76560000Y50500000D01*
X13831900Y3386900D02*
X8758100Y3386900D01*
X15545000Y5100000D02*
X13831900Y3386900D01*
X58012300Y54721100D02*
X58743900Y54721100D01*
X62098600Y50500000D02*
X60778000Y51820600D01*
X16390800Y7680400D02*
X16390800Y21147700D01*
%TO.N,ESP_3V3*%
D20*
X74080000Y26598300D02*
X70886100Y23404400D01*
X70886100Y15387700D02*
X70687500Y15189100D01*
X74080000Y28000000D02*
X74080000Y26598300D01*
X58076500Y56073400D02*
X61725700Y56073400D01*
X70886100Y23404400D02*
X70886100Y15387700D01*
X51254300Y62895600D02*
X58076500Y56073400D01*
%TO.N,SENSOR0*%
D18*
X9191900Y43769400D02*
X14177800Y43769400D01*
X4000000Y38577500D02*
X9191900Y43769400D01*
%TO.N,REF_NOT_READY*%
X55733700Y69243100D02*
X55733700Y66838700D01*
X53329400Y71647400D02*
X55733700Y69243100D01*
X49536400Y75941200D02*
X49536400Y75236000D01*
X49536400Y75236000D02*
X51671800Y73100600D01*
X51084600Y71647400D02*
X53329400Y71647400D01*
%TO.N,REF_CLAMP_RELEASE*%
X39120700Y69629500D02*
X39120700Y72782500D01*
X44848500Y69010900D02*
X39739300Y69010900D01*
X39120700Y72782500D02*
X45506200Y79168000D01*
X39739300Y69010900D02*
X39120700Y69629500D01*
%TO.N,ADC_IO_3V3*%
D20*
X51995700Y20958200D02*
X51187500Y21766400D01*
X51187500Y21766400D02*
X51187500Y22689900D01*
%TO.N,CLAMP_GND4*%
D18*
X27328500Y85641600D02*
X26315200Y84628300D01*
X25759900Y84628300D02*
X24834700Y85553500D01*
X31943600Y89453400D02*
X28131800Y85641600D01*
X26315200Y84628300D02*
X25759900Y84628300D01*
X24834700Y87534500D02*
X28232000Y90931800D01*
X28131800Y85641600D02*
X27328500Y85641600D01*
X24834700Y85553500D02*
X24834700Y87534500D01*
X31943600Y91137500D02*
X31943600Y89453400D01*
%TO.N,OFF_BIAS_RAIL*%
X40414700Y66699700D02*
X40547000Y66832000D01*
X34763700Y71496300D02*
X35442500Y71496300D01*
X40547000Y66832000D02*
X44617900Y62761000D01*
X35702700Y74640900D02*
X34122300Y73060500D01*
X34122300Y73060500D02*
X34122300Y72137700D01*
X44617900Y62761000D02*
X46482100Y62761000D01*
X37642200Y69296600D02*
X37642200Y69097900D01*
X46187300Y84486700D02*
X36341500Y74640900D01*
X34122300Y72137700D02*
X34763700Y71496300D01*
X37642200Y69097900D02*
X40040400Y66699700D01*
X36341500Y74640900D02*
X35702700Y74640900D01*
X52646300Y84486700D02*
X46187300Y84486700D01*
X35442500Y71496300D02*
X37642200Y69296600D01*
X40040400Y66699700D02*
X40414700Y66699700D01*
%TO.N,ESP_POWER_NOT_READY*%
X47336500Y1256500D02*
X48680000Y2600000D01*
X28454600Y3980200D02*
X31178300Y1256500D01*
X3168600Y4507200D02*
X6644300Y1031500D01*
X26571900Y3980200D02*
X28454600Y3980200D01*
X23623200Y1031500D02*
X26571900Y3980200D01*
X43048300Y59179300D02*
X43048300Y49746000D01*
X3168600Y9866300D02*
X3168600Y4507200D01*
X31178300Y1256500D02*
X47336500Y1256500D01*
X6644300Y1031500D02*
X23623200Y1031500D01*
X43500000Y59631000D02*
X43048300Y59179300D01*
X43048300Y49746000D02*
X3168600Y9866300D01*
%TO.N,ISOLATE_H*%
X54343300Y65490700D02*
X54988900Y66136300D01*
X32675600Y43211700D02*
X32029400Y42565500D01*
X34487300Y71133900D02*
X34576600Y71044600D01*
X51064100Y66260000D02*
X51064100Y66363600D01*
X51552600Y66852100D02*
X52204300Y66852100D01*
X37094100Y69205900D02*
X37094100Y60264300D01*
X43837600Y59014700D02*
X43837600Y56443400D01*
X36164800Y70135200D02*
X34104800Y68075200D01*
X44156300Y59861700D02*
X44156300Y59333400D01*
X49173700Y55520700D02*
X50402300Y56749300D01*
X54988900Y66136300D02*
X54988900Y68606100D01*
X27970400Y46692500D02*
X29663200Y46692500D01*
X30977100Y89402300D02*
X27714400Y86139600D01*
X32029400Y42565500D02*
X31275000Y42565500D01*
X36164800Y70135200D02*
X37094100Y69205900D01*
X32675600Y43680100D02*
X32675600Y43211700D01*
X54988900Y68606100D02*
X54437500Y69157500D01*
X44156300Y59333400D02*
X43837600Y59014700D01*
X43753700Y60264300D02*
X44156300Y59861700D01*
X34104800Y68075200D02*
X34104800Y64768100D01*
X52723000Y66333400D02*
X52723000Y66164500D01*
X27970400Y46692500D02*
X37094100Y55816200D01*
X37094100Y55816200D02*
X37094100Y60264300D01*
X35255400Y71044600D02*
X36164800Y70135200D01*
X37094100Y60264300D02*
X43753700Y60264300D01*
X27714400Y86139600D02*
X26725000Y86139600D01*
X50402300Y65598200D02*
X51064100Y66260000D01*
X53396800Y65490700D02*
X54343300Y65490700D01*
X44760300Y55520700D02*
X49173700Y55520700D01*
X52723000Y66164500D02*
X53396800Y65490700D01*
X29663200Y46692500D02*
X32675600Y43680100D01*
X52204300Y66852100D02*
X52723000Y66333400D01*
X34576600Y71044600D02*
X35255400Y71044600D01*
X51064100Y66363600D02*
X51552600Y66852100D01*
X43837600Y56443400D02*
X44760300Y55520700D01*
X31275000Y71133900D02*
X34487300Y71133900D01*
X50402300Y56749300D02*
X50402300Y65598200D01*
%TO.N,ADC_READY_RAW*%
X54713000Y60736800D02*
X54713000Y64109200D01*
X55049400Y60400400D02*
X54713000Y60736800D01*
X54015100Y64109200D02*
X51899000Y66225300D01*
X54802700Y64019500D02*
X55847900Y64019500D01*
X54713000Y64109200D02*
X54015100Y64109200D01*
X55847900Y64019500D02*
X63883300Y72054900D01*
X54713000Y64109200D02*
X54802700Y64019500D01*
%TO.N,REF_READY_RAW*%
X45712100Y70147400D02*
X45390100Y69825400D01*
X49048200Y70147400D02*
X45712100Y70147400D01*
%TO.N,SENSOR_BAT_SW*%
D21*
X71009000Y113987100D02*
X15191200Y113987100D01*
X71009000Y113987100D02*
X75788500Y113987100D01*
X15191200Y113987100D02*
X2012700Y100808600D01*
X75788500Y113987100D02*
X75937500Y114136100D01*
X2012700Y96941400D02*
X4034100Y94920000D01*
X2012700Y100808600D02*
X2012700Y96941400D01*
%TO.N,ADC_DRDY_N*%
D22*
X53910000Y34025000D02*
X57499900Y30435100D01*
X57499900Y30435100D02*
X75223200Y30435100D01*
X76224700Y21090600D02*
X72853500Y17719400D01*
X75223200Y30435100D02*
X76224700Y29433600D01*
X76224700Y29433600D02*
X76224700Y21090600D01*
%TO.N,SENSOR3*%
D18*
X4000000Y75822500D02*
X14087500Y65735000D01*
%TO.N,AMP_IN3*%
X19129600Y65580300D02*
X19129600Y70684700D01*
X22548200Y62161700D02*
X19129600Y65580300D01*
X19129600Y70684700D02*
X19405000Y70960100D01*
%TO.N,USB_SUP_CT*%
X46842400Y49142200D02*
X45506400Y47806200D01*
X49137500Y49142200D02*
X46842400Y49142200D01*
%TO.N,USB_PRESENT_5V*%
D20*
X49137500Y46863600D02*
X62821600Y46863600D01*
X62821600Y46863600D02*
X63969800Y45715400D01*
%TO.N,SPI_PERMIT*%
D18*
X73630000Y10269400D02*
X76672100Y13311500D01*
X51624400Y12696700D02*
X48060300Y12696700D01*
X76672100Y29599700D02*
X63644300Y42627500D01*
X76672100Y13311500D02*
X76672100Y29599700D01*
X54051700Y10269400D02*
X51624400Y12696700D01*
X54051700Y10269400D02*
X73630000Y10269400D01*
X63644300Y42627500D02*
X62369900Y42627500D01*
%TO.N,AMP_OUT4*%
X15866500Y90289300D02*
X15693000Y90462800D01*
X20533200Y94437300D02*
X20550400Y94420100D01*
X18816800Y94100000D02*
X20195900Y94100000D01*
X20195900Y94100000D02*
X20533200Y94437300D01*
X18479500Y94437300D02*
X18816800Y94100000D01*
X15693000Y91650800D02*
X18479500Y94437300D01*
X15693000Y90462800D02*
X15693000Y91650800D01*
%TO.N,ADC_COMPARATOR_GOOD*%
X43509200Y71846900D02*
X43124300Y72231800D01*
X43124300Y72231800D02*
X43124300Y73018900D01*
X56408300Y65605400D02*
X56408300Y69317900D01*
X44098800Y71846900D02*
X43509200Y71846900D01*
X53283900Y72442300D02*
X44694200Y72442300D01*
X44694200Y72442300D02*
X44098800Y71846900D01*
X56408300Y69317900D02*
X53283900Y72442300D01*
X55449100Y64646200D02*
X56408300Y65605400D01*
X43124300Y73018900D02*
X49153100Y79047700D01*
%TO.N,DET_MASTER_SINK*%
X69710300Y118282800D02*
X68817800Y119175300D01*
X75736300Y118000000D02*
X75453500Y118282800D01*
X75453500Y118282800D02*
X69710300Y118282800D01*
%TO.N,ESP_EMIT1*%
X26766000Y13388700D02*
X26766000Y18929100D01*
X29847700Y3980000D02*
X27217700Y6610000D01*
X27217700Y12937000D02*
X26766000Y13388700D01*
X53760000Y2600000D02*
X52380000Y3980000D01*
X52380000Y3980000D02*
X29847700Y3980000D01*
X27217700Y6610000D02*
X27217700Y12937000D01*
X26766000Y18929100D02*
X28109700Y20272800D01*
%TO.N,POWER_OFF_NODE*%
X47562500Y60882700D02*
X47562500Y59781100D01*
X47562500Y59781100D02*
X44500000Y56718600D01*
%TO.N,EM_ADJ*%
X69500000Y65833300D02*
X78816400Y65833300D01*
X78816400Y65833300D02*
X79517300Y65132400D01*
%TO.N,EM_MASTER_LED_A*%
X56825000Y105986400D02*
X59644000Y105986400D01*
X59644000Y105986400D02*
X64712200Y111054600D01*
%TO.N,EM_TRIM_TOP*%
X81640000Y50805700D02*
X81640000Y50500000D01*
X70720500Y61725200D02*
X81640000Y50805700D01*
%TO.N,ADC_AIN0*%
X27739000Y63550000D02*
X27739000Y47347300D01*
X28216800Y66818400D02*
X28216800Y64027800D01*
X41210000Y91175000D02*
X41210000Y90678400D01*
X27739000Y47347300D02*
X27343700Y46952000D01*
X26399400Y42867900D02*
X25976300Y42444800D01*
X28216800Y64027800D02*
X27739000Y63550000D01*
X41210000Y90678400D02*
X28387400Y77855800D01*
X28387400Y67458600D02*
X28058800Y67130000D01*
X28058800Y67130000D02*
X28058800Y66976400D01*
X28058800Y66976400D02*
X28216800Y66818400D01*
X28387400Y77855800D02*
X28387400Y67458600D01*
X27343700Y46952000D02*
X27343700Y42899200D01*
X27375000Y42867900D02*
X26399400Y42867900D01*
X27343700Y42899200D02*
X27375000Y42867900D01*
%TO.N,CLAMP_GND0*%
X28009400Y42153200D02*
X29279900Y43423700D01*
X29279900Y43423700D02*
X31998800Y43423700D01*
%TO.N,ADC_AIN1*%
X36434200Y59470500D02*
X28518100Y51554400D01*
X36290500Y69370700D02*
X36434200Y69227000D01*
X36434200Y69227000D02*
X36434200Y59470500D01*
X36166600Y69246800D02*
X36290500Y69370700D01*
%TO.N,AMP_SERIES1*%
X29099500Y38140000D02*
X29099500Y40037400D01*
X29099500Y40037400D02*
X29975000Y40912900D01*
%TO.N,SENSOR2*%
X14718300Y65449700D02*
X14718300Y71381600D01*
X12671100Y63402500D02*
X14718300Y65449700D01*
X14718300Y71381600D02*
X13068400Y73031500D01*
X4000000Y63402500D02*
X12671100Y63402500D01*
X19063100Y72500900D02*
X17943800Y71381600D01*
X17943800Y71381600D02*
X14718300Y71381600D01*
%TO.N,ESP_MISO*%
D22*
X51220000Y28000000D02*
X67841000Y11379000D01*
X67841000Y11379000D02*
X67841000Y11271300D01*
%TO.N,ESP_DRDY*%
X60742200Y20429100D02*
X68345200Y12826100D01*
X60742200Y24822200D02*
X60742200Y20429100D01*
X63920000Y28000000D02*
X60742200Y24822200D01*
X68345200Y12826100D02*
X75250000Y12826100D01*
%TO.N,ESP_CS_N*%
X56300000Y23830200D02*
X56281800Y23812000D01*
X56300000Y28000000D02*
X56300000Y23830200D01*
%TO.N,ESP_MOSI*%
X45701700Y23621400D02*
X45701700Y23405300D01*
X45701700Y23405300D02*
X49482000Y19625000D01*
X49482000Y19625000D02*
X49852600Y19625000D01*
%TO.N,ADC_SCLK*%
X50450000Y18400000D02*
X50550000Y18600000D01*
X50050000Y18100000D02*
X50250000Y18200000D01*
X49633900Y25741600D02*
X47428700Y23536400D01*
X50550000Y25100000D02*
X49912500Y25741600D01*
X43800000Y23750000D02*
X49650000Y18150000D01*
X49912500Y25741600D02*
X49633900Y25741600D01*
X50550000Y18600000D02*
X50550000Y25100000D01*
X50250000Y18200000D02*
X50450000Y18400000D01*
X47428700Y22570800D02*
X48902700Y21096800D01*
X49650000Y18150000D02*
X50050000Y18100000D01*
X47428700Y23536400D02*
X47428700Y22570800D01*
%TO.N,ESP_EMIT3*%
D18*
X57044800Y804800D02*
X58840000Y2600000D01*
X25915800Y12750000D02*
X26766000Y11899800D01*
X26766000Y5984700D02*
X28000000Y4750700D01*
X30548600Y804800D02*
X57044800Y804800D01*
X28000000Y3353400D02*
X30548600Y804800D01*
X26766000Y11899800D02*
X26766000Y5984700D01*
%TO.N,ESP_EMIT2*%
X27669400Y17244100D02*
X27392800Y17520700D01*
X54423900Y4476100D02*
X30008800Y4476100D01*
X30008800Y4476100D02*
X27669400Y6815500D01*
X27669400Y6815500D02*
X27669400Y17244100D01*
X56300000Y2600000D02*
X54423900Y4476100D01*
%TO.N,AMP_IN4*%
X15239200Y91835800D02*
X15239200Y90026600D01*
X15617600Y89648200D02*
X18217600Y89648200D01*
X22937700Y96815900D02*
X20219300Y96815900D01*
X18217600Y89648200D02*
X18420000Y89850600D01*
X20219300Y96815900D02*
X15239200Y91835800D01*
X15239200Y90026600D02*
X15617600Y89648200D01*
%TO.N,ADC_AIN4*%
X49107400Y93437600D02*
X51370000Y91175000D01*
X28823800Y91788800D02*
X30472600Y93437600D01*
X27672400Y91788800D02*
X28823800Y91788800D01*
X27473100Y91988100D02*
X27672400Y91788800D01*
X30472600Y93437600D02*
X49107400Y93437600D01*
%TO.N,ADC_SUP_CT*%
X42631900Y71393100D02*
X49766900Y71393100D01*
X41502600Y72522400D02*
X42631900Y71393100D01*
X49766900Y71393100D02*
X50137500Y71763700D01*
%TO.N,AMP_OUT2*%
X27765100Y66631300D02*
X27607100Y66789300D01*
X23512200Y65252100D02*
X27423000Y65252100D01*
X27607100Y67317100D02*
X27935700Y67645700D01*
X27607100Y66789300D02*
X27607100Y67317100D01*
X27935700Y72290700D02*
X27725500Y72500900D01*
X16013300Y68509600D02*
X16013300Y67988900D01*
X23175900Y65588400D02*
X23512200Y65252100D01*
X23175900Y65588400D02*
X23175900Y68136300D01*
X27765100Y65594200D02*
X27765100Y66631300D01*
X23175900Y68136300D02*
X19698900Y71613300D01*
X27423000Y65252100D02*
X27765100Y65594200D01*
X27935700Y67645700D02*
X27935700Y72290700D01*
X19117000Y71613300D02*
X16013300Y68509600D01*
X19698900Y71613300D02*
X19117000Y71613300D01*
%TO.N,ADC_MISO*%
D22*
X72251800Y15286900D02*
X71117200Y14152300D01*
X75056900Y30033400D02*
X75821500Y29268800D01*
X75821500Y26746800D02*
X72251900Y23177200D01*
X51370000Y34025000D02*
X51938000Y34025000D01*
X72251900Y23177200D02*
X72251800Y23177200D01*
X72251800Y23177200D02*
X72251800Y15286900D01*
X55929600Y30033400D02*
X75056900Y30033400D01*
X71117200Y14152300D02*
X67955700Y14152300D01*
X51938000Y34025000D02*
X55929600Y30033400D01*
X67955700Y14152300D02*
X67416700Y14691300D01*
X75821500Y29268800D02*
X75821500Y26746800D01*
%TO.N,SENSOR5*%
D18*
X14087500Y89589500D02*
X20087500Y83589500D01*
X4034100Y100000000D02*
X14087500Y89946600D01*
X14087500Y89946600D02*
X14087500Y89589500D01*
%TO.N,AMP_OUT3*%
X16865000Y65769900D02*
X22758300Y59876600D01*
X16865000Y66051300D02*
X16865000Y65769900D01*
%TO.N,AMP_SERIES3*%
X32129800Y68954600D02*
X29975000Y71109400D01*
X32129800Y61484700D02*
X32129800Y68954600D01*
X31959900Y61314800D02*
X32129800Y61484700D01*
%TO.N,ADC_AIN3*%
X25292500Y87327400D02*
X25292500Y85990200D01*
X25292500Y85990200D02*
X26027700Y85255000D01*
X28843600Y66730000D02*
X30199600Y65374000D01*
X48830000Y91175000D02*
X47025600Y92979400D01*
X31165900Y92979400D02*
X28491600Y90305100D01*
X28270200Y90305100D02*
X25292500Y87327400D01*
X30199600Y65374000D02*
X30199700Y65374000D01*
X30199700Y65374000D02*
X30199700Y64128400D01*
X28491600Y90305100D02*
X28270200Y90305100D01*
X30199700Y64128400D02*
X31454600Y62873500D01*
X47025600Y92979400D02*
X31165900Y92979400D01*
%TO.N,ADC_AIN2*%
X39931700Y92501700D02*
X27375000Y79945000D01*
X46290000Y91175000D02*
X44963300Y92501700D01*
X21523400Y71536500D02*
X27138400Y65921500D01*
X25709000Y79945000D02*
X21523400Y75759400D01*
X27375000Y79945000D02*
X25709000Y79945000D01*
X44963300Y92501700D02*
X39931700Y92501700D01*
X21523400Y75759400D02*
X21523400Y71536500D01*
%TO.N,ADC_MOSI*%
D22*
X49692800Y18739000D02*
X49912500Y18739000D01*
X44026500Y24405300D02*
X49692800Y18739000D01*
X44261200Y29456200D02*
X38118900Y29456200D01*
X44026500Y25933100D02*
X44026500Y24405300D01*
X38211600Y26441600D02*
X43518000Y26441600D01*
X43518000Y26441600D02*
X44026500Y25933100D01*
X48830000Y34025000D02*
X44261200Y29456200D01*
X37214500Y28551800D02*
X37214500Y27438700D01*
X38118900Y29456200D02*
X37214500Y28551800D01*
X37214500Y27438700D02*
X38211600Y26441600D01*
%TO.N,ADC_SCLK_DRV*%
X49833900Y21537900D02*
X48087500Y23284300D01*
X49833900Y20951000D02*
X49833900Y21537900D01*
%TO.N,ADC_AIN5*%
D18*
X30092400Y91211000D02*
X30626200Y91211000D01*
X53910000Y91175000D02*
X50166700Y94918300D01*
X50166700Y94918300D02*
X30625000Y94918300D01*
X25972400Y87091000D02*
X30092400Y91211000D01*
%TO.N,AMP_SERIES5*%
X30547100Y90199400D02*
X29975000Y90199400D01*
X32627400Y91405600D02*
X32259500Y91773500D01*
X30192800Y86175900D02*
X32627400Y88610500D01*
X31284300Y91387600D02*
X31284300Y90936600D01*
X31670200Y91773500D02*
X31284300Y91387600D01*
X32627400Y88610500D02*
X32627400Y91405600D01*
X31284300Y90936600D02*
X30547100Y90199400D01*
X32259500Y91773500D02*
X31670200Y91773500D01*
%TO.N,EM_OPTO_C*%
X66396800Y120140700D02*
X69506800Y123250700D01*
X66396800Y119635100D02*
X66396800Y120140700D01*
X70134000Y117656100D02*
X68375800Y117656100D01*
X68375800Y117656100D02*
X66396800Y119635100D01*
X69506800Y123250700D02*
X78447800Y123250700D01*
%TO.N,AMP_OUT5*%
X19700000Y90600000D02*
X19226300Y85764300D01*
X27534500Y84176600D02*
X28058400Y84700500D01*
X19350000Y94750000D02*
X20600000Y95100000D01*
X19226300Y85764300D02*
X20814000Y84176600D01*
X20950000Y94950000D02*
X21200000Y94600000D01*
X20600000Y95100000D02*
X20950000Y94950000D01*
X21200000Y94250000D02*
X20500000Y92500000D01*
X21200000Y94600000D02*
X21200000Y94250000D01*
X20814000Y84176600D02*
X27534500Y84176600D01*
%TO.N,EM_LED_RETURN*%
X51080700Y54380200D02*
X51528200Y54380200D01*
X20145000Y23444500D02*
X51080700Y54380200D01*
%TO.N,ADC_REG_EN*%
X19678600Y121163200D02*
X33977600Y121163200D01*
X51526700Y69374200D02*
X51978400Y69825900D01*
X49950600Y57204500D02*
X48893500Y56147400D01*
X38545600Y69563600D02*
X39753300Y68355900D01*
X38545600Y69723700D02*
X38545600Y69563600D01*
X39753300Y68355900D02*
X45117800Y68355900D01*
X54481600Y67322700D02*
X54481600Y66344000D01*
X51978400Y69825900D02*
X54481600Y67322700D01*
X35206600Y72619500D02*
X35649800Y72619500D01*
X45117800Y68355900D02*
X46136100Y69374200D01*
X46136100Y69374200D02*
X51526700Y69374200D01*
X51365500Y67303800D02*
X49950600Y65888900D01*
X49950600Y65888900D02*
X49950600Y57204500D01*
X53541900Y65984400D02*
X53174700Y66351600D01*
X53174700Y66613600D02*
X52484500Y67303800D01*
X54122000Y65984400D02*
X53541900Y65984400D01*
X35649800Y72619500D02*
X38545600Y69723700D01*
X54481600Y66344000D02*
X54122000Y65984400D01*
X53174700Y66351600D02*
X53174700Y66613600D01*
X52484500Y67303800D02*
X51365500Y67303800D01*
X33977600Y121163200D02*
X37715300Y117425500D01*
%TO.N,ADC_CS_N*%
D22*
X71815600Y23450300D02*
X71815600Y15418700D01*
X55448100Y29631700D02*
X74890600Y29631700D01*
X70950900Y14554000D02*
X69048200Y14554000D01*
X69048200Y14554000D02*
X61352000Y22250200D01*
X72134400Y23627700D02*
X71993000Y23627700D01*
X54475900Y30603900D02*
X55448100Y29631700D01*
X75419800Y29102500D02*
X75419800Y26913100D01*
X74890600Y29631700D02*
X75419800Y29102500D01*
X71993000Y23627700D02*
X71815600Y23450300D01*
X71815600Y15418700D02*
X70950900Y14554000D01*
X61352000Y22250200D02*
X61352000Y22688100D01*
X75419800Y26913100D02*
X72134400Y23627700D01*
%TO.N,EM_LED_ENABLE_GATE*%
D18*
X56175000Y60896800D02*
X61051600Y65773400D01*
X56175000Y60000000D02*
X56175000Y60896800D01*
%TO.N,AMP_FB3*%
X23639700Y59856000D02*
X20911500Y57127800D01*
X23639700Y63254800D02*
X23639700Y59856000D01*
X20911500Y57127800D02*
X20087500Y57127800D01*
X23639700Y63254800D02*
X24939700Y63254800D01*
X19756300Y67829700D02*
X23639700Y63946300D01*
X23639700Y63946300D02*
X23639700Y63254800D01*
%TO.N,ADC_SUP_MR_N*%
X34574000Y72873400D02*
X35889800Y74189200D01*
X48114000Y68666600D02*
X47716200Y68268800D01*
X47716200Y68268800D02*
X47716200Y67306000D01*
X34574000Y72324800D02*
X34574000Y72873400D01*
X47716200Y64743100D02*
X49323800Y63135500D01*
X39627100Y74189200D02*
X44415100Y78977200D01*
X51220300Y68666600D02*
X48114000Y68666600D01*
X35889800Y74189200D02*
X39627100Y74189200D01*
X47716200Y67306000D02*
X40382200Y67306000D01*
X38093900Y69285000D02*
X38093900Y69483700D01*
X38093900Y69483700D02*
X35629600Y71948000D01*
X40227500Y67151400D02*
X38093900Y69285000D01*
X34950800Y71948000D02*
X34574000Y72324800D01*
X51284100Y68602800D02*
X51220300Y68666600D01*
X35629600Y71948000D02*
X34950800Y71948000D01*
X40227600Y67151400D02*
X40227500Y67151400D01*
X47716200Y67306000D02*
X47716200Y64743100D01*
X40382200Y67306000D02*
X40227600Y67151400D01*
%TO.N,ADC_PDWN_N*%
X40830300Y72788200D02*
X40830300Y70774100D01*
X40660800Y70774100D02*
X39772800Y69886100D01*
X40830300Y70774100D02*
X53305200Y70774100D01*
X58990000Y34025000D02*
X53940400Y39074600D01*
X49111800Y81069700D02*
X40830300Y72788200D01*
X53940400Y39074600D02*
X42948400Y39074600D01*
X53305200Y70774100D02*
X53869800Y70209500D01*
X56825000Y81069700D02*
X49111800Y81069700D01*
X40830300Y70774100D02*
X40660800Y70774100D01*
%TO.N,EM_BAT_FUSED*%
D21*
X76800000Y129600000D02*
X71937500Y134462500D01*
D20*
X78400000Y129600000D02*
X77800000Y129600000D01*
D21*
X71937500Y134462500D02*
X71937500Y137200000D01*
X77800000Y129600000D02*
X76800000Y129600000D01*
%TD*%
%TA.AperFunction,Conductor*%
%TO.N,EM_GND*%
G36*
X83343039Y77430315D02*
G01*
X83388794Y77377511D01*
X83400000Y77326000D01*
X83400000Y65674000D01*
X83380315Y65606961D01*
X83327511Y65561206D01*
X83276000Y65550000D01*
X79927263Y65550000D01*
X79862459Y65569029D01*
X79862354Y65568845D01*
X79861597Y65569282D01*
X79860224Y65569685D01*
X79857124Y65571865D01*
X79729788Y65645383D01*
X79729789Y65645383D01*
X79718306Y65648460D01*
X79589775Y65682900D01*
X79589772Y65682900D01*
X79549199Y65682900D01*
X79482160Y65702585D01*
X79461518Y65719219D01*
X79046963Y66133774D01*
X79046962Y66133775D01*
X78961340Y66183209D01*
X78961339Y66183210D01*
X78874393Y66206507D01*
X78874393Y66206508D01*
X78874390Y66206508D01*
X78865837Y66208800D01*
X78865836Y66208800D01*
X78865835Y66208800D01*
X70224000Y66208800D01*
X70156961Y66228485D01*
X70111206Y66281289D01*
X70100000Y66332800D01*
X70100000Y72471170D01*
X70119685Y72538209D01*
X70136319Y72558851D01*
X74991149Y77413681D01*
X75052472Y77447166D01*
X75078830Y77450000D01*
X83276000Y77450000D01*
X83343039Y77430315D01*
G37*
%TD.AperFunction*%
%TD*%
M02*
