%TF.GenerationSoftware,KiCad,Pcbnew,10.0.6*%
%TF.CreationDate,2026-09-09T11:39:24-04:00*%
%TF.ProjectId,single_detector_usb_master,73696e67-6c65-45f6-9465-746563746f72,R1-PLACEMENT-DRAFT*%
%TF.SameCoordinates,Original*%
%TF.FileFunction,Soldermask,Bot*%
%TF.FilePolarity,Negative*%
%FSLAX46Y46*%
G04 Gerber Fmt 4.6, Leading zero omitted, Abs format (unit mm)*
G04 Created by KiCad (PCBNEW 10.0.6) date 2026-09-09 11:39:24*
%MOMM*%
%LPD*%
G01*
G04 APERTURE LIST*
%ADD10C,2.540000*%
%ADD11R,2.000000X4.600000*%
%ADD12O,2.000000X4.200000*%
%ADD13O,4.200000X2.000000*%
%ADD14R,2.000000X2.000000*%
%ADD15C,2.000000*%
%ADD16C,1.440000*%
G04 APERTURE END LIST*
D10*
%TO.C,JDET3*%
X4000000Y58322500D03*
X4000000Y63402500D03*
%TD*%
D11*
%TO.C,J1*%
X70200000Y88500000D03*
D12*
X76500000Y88500000D03*
D13*
X73100000Y93300000D03*
%TD*%
D14*
%TO.C,J3*%
X74080000Y28000000D03*
D15*
X71540000Y28000000D03*
X69000000Y28000000D03*
X66460000Y28000000D03*
X63920000Y28000000D03*
X61380000Y28000000D03*
X58840000Y28000000D03*
X56300000Y28000000D03*
X53760000Y28000000D03*
X51220000Y28000000D03*
X48680000Y28000000D03*
X46140000Y28000000D03*
X43600000Y28000000D03*
X41060000Y28000000D03*
X38520000Y28000000D03*
%TD*%
D14*
%TO.C,J4*%
X74080000Y2600000D03*
D15*
X71540000Y2600000D03*
X69000000Y2600000D03*
X66460000Y2600000D03*
X63920000Y2600000D03*
X61380000Y2600000D03*
X58840000Y2600000D03*
X56300000Y2600000D03*
X53760000Y2600000D03*
X51220000Y2600000D03*
X48680000Y2600000D03*
X46140000Y2600000D03*
X43600000Y2600000D03*
X41060000Y2600000D03*
X38520000Y2600000D03*
%TD*%
D11*
%TO.C,J2*%
X70200000Y40500000D03*
D12*
X76500000Y40500000D03*
D13*
X73100000Y45300000D03*
%TD*%
D10*
%TO.C,JDET4*%
X4000000Y70742500D03*
X4000000Y75822500D03*
%TD*%
D16*
%TO.C,RV100*%
X76560000Y50500000D03*
X79100000Y50500000D03*
X81640000Y50500000D03*
%TD*%
D10*
%TO.C,JDET1*%
X4000000Y33497500D03*
X4000000Y38577500D03*
%TD*%
D15*
%TO.C,JEM3*%
X7045000Y5100000D03*
X4505000Y5100000D03*
%TD*%
D10*
%TO.C,JDET6*%
X4034100Y94920000D03*
X4034100Y100000000D03*
%TD*%
D14*
%TO.C,J5*%
X41210000Y34025000D03*
D15*
X43750000Y34025000D03*
X46290000Y34025000D03*
X48830000Y34025000D03*
X51370000Y34025000D03*
X53910000Y34025000D03*
X56450000Y34025000D03*
X58990000Y34025000D03*
%TD*%
D10*
%TO.C,JDET5*%
X4120000Y82542500D03*
X4120000Y87622500D03*
%TD*%
%TO.C,JDET2*%
X4000000Y45920000D03*
X4000000Y51000000D03*
%TD*%
D15*
%TO.C,JEM1*%
X24045000Y5100000D03*
X21505000Y5100000D03*
%TD*%
%TO.C,JEM2*%
X15545000Y5100000D03*
X13005000Y5100000D03*
%TD*%
D14*
%TO.C,J6*%
X41210000Y91175000D03*
D15*
X41210000Y88635000D03*
X43750000Y91175000D03*
X43750000Y88635000D03*
X46290000Y91175000D03*
X46290000Y88635000D03*
X48830000Y91175000D03*
X48830000Y88635000D03*
X51370000Y91175000D03*
X51370000Y88635000D03*
X53910000Y91175000D03*
X53910000Y88635000D03*
X56450000Y91175000D03*
X56450000Y88635000D03*
X58990000Y91175000D03*
X58990000Y88635000D03*
%TD*%
M02*
