%TF.GenerationSoftware,KiCad,Pcbnew,10.0.6*%
%TF.CreationDate,2026-09-09T11:39:24-04:00*%
%TF.ProjectId,single_detector_usb_master,73696e67-6c65-45f6-9465-746563746f72,R1-PLACEMENT-DRAFT*%
%TF.SameCoordinates,Original*%
%TF.FileFunction,Soldermask,Top*%
%TF.FilePolarity,Negative*%
%FSLAX46Y46*%
G04 Gerber Fmt 4.6, Leading zero omitted, Abs format (unit mm)*
G04 Created by KiCad (PCBNEW 10.0.6) date 2026-09-09 11:39:24*
%MOMM*%
%LPD*%
G01*
G04 APERTURE LIST*
G04 Aperture macros list*
%AMRoundRect*
0 Rectangle with rounded corners*
0 $1 Rounding radius*
0 $2 $3 $4 $5 $6 $7 $8 $9 X,Y pos of 4 corners*
0 Add a 4 corners polygon primitive as box body*
4,1,4,$2,$3,$4,$5,$6,$7,$8,$9,$2,$3,0*
0 Add four circle primitives for the rounded corners*
1,1,$1+$1,$2,$3*
1,1,$1+$1,$4,$5*
1,1,$1+$1,$6,$7*
1,1,$1+$1,$8,$9*
0 Add four rect primitives between the rounded corners*
20,1,$1+$1,$2,$3,$4,$5,0*
20,1,$1+$1,$4,$5,$6,$7,0*
20,1,$1+$1,$6,$7,$8,$9,0*
20,1,$1+$1,$8,$9,$2,$3,0*%
G04 Aperture macros list end*
%ADD10RoundRect,0.150000X0.150000X-0.825000X0.150000X0.825000X-0.150000X0.825000X-0.150000X-0.825000X0*%
%ADD11RoundRect,0.250000X-0.375000X-0.625000X0.375000X-0.625000X0.375000X0.625000X-0.375000X0.625000X0*%
%ADD12RoundRect,0.250000X1.100000X-0.325000X1.100000X0.325000X-1.100000X0.325000X-1.100000X-0.325000X0*%
%ADD13RoundRect,0.150000X-0.587500X-0.150000X0.587500X-0.150000X0.587500X0.150000X-0.587500X0.150000X0*%
%ADD14RoundRect,0.250000X-0.785000X-1.045000X0.785000X-1.045000X0.785000X1.045000X-0.785000X1.045000X0*%
%ADD15RoundRect,0.250000X0.475000X-0.250000X0.475000X0.250000X-0.475000X0.250000X-0.475000X-0.250000X0*%
%ADD16RoundRect,0.200000X0.275000X-0.200000X0.275000X0.200000X-0.275000X0.200000X-0.275000X-0.200000X0*%
%ADD17RoundRect,0.250000X0.262500X0.450000X-0.262500X0.450000X-0.262500X-0.450000X0.262500X-0.450000X0*%
%ADD18RoundRect,0.225000X-0.225000X-0.250000X0.225000X-0.250000X0.225000X0.250000X-0.225000X0.250000X0*%
%ADD19RoundRect,0.250000X-0.262500X-0.450000X0.262500X-0.450000X0.262500X0.450000X-0.262500X0.450000X0*%
%ADD20RoundRect,0.200000X-0.200000X-0.275000X0.200000X-0.275000X0.200000X0.275000X-0.200000X0.275000X0*%
%ADD21RoundRect,0.150000X-0.512500X-0.150000X0.512500X-0.150000X0.512500X0.150000X-0.512500X0.150000X0*%
%ADD22RoundRect,0.250000X-0.650000X0.325000X-0.650000X-0.325000X0.650000X-0.325000X0.650000X0.325000X0*%
%ADD23RoundRect,0.250000X-0.325000X-1.100000X0.325000X-1.100000X0.325000X1.100000X-0.325000X1.100000X0*%
%ADD24RoundRect,0.250000X0.450000X-0.262500X0.450000X0.262500X-0.450000X0.262500X-0.450000X-0.262500X0*%
%ADD25RoundRect,0.225000X-0.225000X-0.375000X0.225000X-0.375000X0.225000X0.375000X-0.225000X0.375000X0*%
%ADD26RoundRect,0.150000X0.587500X0.150000X-0.587500X0.150000X-0.587500X-0.150000X0.587500X-0.150000X0*%
%ADD27RoundRect,0.250000X-1.825000X-0.700000X1.825000X-0.700000X1.825000X0.700000X-1.825000X0.700000X0*%
%ADD28RoundRect,0.225000X0.250000X-0.225000X0.250000X0.225000X-0.250000X0.225000X-0.250000X-0.225000X0*%
%ADD29RoundRect,0.225000X-0.250000X0.225000X-0.250000X-0.225000X0.250000X-0.225000X0.250000X0.225000X0*%
%ADD30RoundRect,0.150000X0.150000X-0.587500X0.150000X0.587500X-0.150000X0.587500X-0.150000X-0.587500X0*%
%ADD31RoundRect,0.100000X0.100000X-0.637500X0.100000X0.637500X-0.100000X0.637500X-0.100000X-0.637500X0*%
%ADD32C,2.540000*%
%ADD33RoundRect,0.381000X0.889000X3.119000X-0.889000X3.119000X-0.889000X-3.119000X0.889000X-3.119000X0*%
%ADD34R,2.000000X4.600000*%
%ADD35O,2.000000X4.200000*%
%ADD36O,4.200000X2.000000*%
%ADD37R,2.000000X2.000000*%
%ADD38C,2.000000*%
%ADD39RoundRect,0.250000X-0.325000X-0.650000X0.325000X-0.650000X0.325000X0.650000X-0.325000X0.650000X0*%
%ADD40RoundRect,0.250000X-0.250000X-0.475000X0.250000X-0.475000X0.250000X0.475000X-0.250000X0.475000X0*%
%ADD41RoundRect,0.087500X-0.425000X-0.087500X0.425000X-0.087500X0.425000X0.087500X-0.425000X0.087500X0*%
%ADD42RoundRect,0.050000X-0.500000X-0.150000X0.500000X-0.150000X0.500000X0.150000X-0.500000X0.150000X0*%
%ADD43RoundRect,0.250000X0.300000X-2.050000X0.300000X2.050000X-0.300000X2.050000X-0.300000X-2.050000X0*%
%ADD44RoundRect,0.250002X5.149998X-4.449998X5.149998X4.449998X-5.149998X4.449998X-5.149998X-4.449998X0*%
%ADD45RoundRect,0.250000X-0.475000X0.250000X-0.475000X-0.250000X0.475000X-0.250000X0.475000X0.250000X0*%
%ADD46RoundRect,0.249999X-0.640001X0.750001X-0.640001X-0.750001X0.640001X-0.750001X0.640001X0.750001X0*%
%ADD47C,1.440000*%
%ADD48RoundRect,0.249999X-0.750001X-0.640001X0.750001X-0.640001X0.750001X0.640001X-0.750001X0.640001X0*%
%ADD49RoundRect,0.225000X0.375000X-0.225000X0.375000X0.225000X-0.375000X0.225000X-0.375000X-0.225000X0*%
%ADD50R,0.700000X0.250000*%
%ADD51R,1.700000X3.300000*%
G04 APERTURE END LIST*
D10*
%TO.C,U33*%
X15285000Y39791000D03*
X16555000Y39791000D03*
X17825000Y39791000D03*
X19095000Y39791000D03*
X19095000Y44741000D03*
X17825000Y44741000D03*
X16555000Y44741000D03*
X15285000Y44741000D03*
%TD*%
D11*
%TO.C,F1*%
X74600000Y101000000D03*
X77400000Y101000000D03*
%TD*%
D12*
%TO.C,C11*%
X26500000Y122525000D03*
X26500000Y125475000D03*
%TD*%
D13*
%TO.C,Q20*%
X77062500Y137950000D03*
X77062500Y136050000D03*
X78937500Y137000000D03*
%TD*%
D14*
%TO.C,C10*%
X6880000Y122000000D03*
X13120000Y122000000D03*
%TD*%
D15*
%TO.C,C101*%
X69500000Y78050000D03*
X69500000Y79950000D03*
%TD*%
D16*
%TO.C,R31*%
X49000000Y81175000D03*
X49000000Y82825000D03*
%TD*%
D17*
%TO.C,R117*%
X17412500Y9000000D03*
X15587500Y9000000D03*
%TD*%
D14*
%TO.C,C102*%
X73630000Y56750000D03*
X79870000Y56750000D03*
%TD*%
D18*
%TO.C,C29*%
X52225000Y63500000D03*
X53775000Y63500000D03*
%TD*%
D19*
%TO.C,R200*%
X14087500Y48266000D03*
X15912500Y48266000D03*
%TD*%
D20*
%TO.C,R39*%
X29175000Y120000000D03*
X30825000Y120000000D03*
%TD*%
D13*
%TO.C,Q51*%
X60062500Y10950000D03*
X60062500Y9050000D03*
X61937500Y10000000D03*
%TD*%
D19*
%TO.C,R220*%
X29087500Y48266000D03*
X30912500Y48266000D03*
%TD*%
%TO.C,R211*%
X20087500Y36266000D03*
X21912500Y36266000D03*
%TD*%
D16*
%TO.C,R40*%
X46500000Y77175000D03*
X46500000Y78825000D03*
%TD*%
D17*
%TO.C,R123*%
X8912500Y11500000D03*
X7087500Y11500000D03*
%TD*%
D21*
%TO.C,U11*%
X40862500Y120950000D03*
X40862500Y120000000D03*
X40862500Y119050000D03*
X43137500Y119050000D03*
X43137500Y120950000D03*
%TD*%
D17*
%TO.C,R118*%
X17412500Y11500000D03*
X15587500Y11500000D03*
%TD*%
D19*
%TO.C,R210*%
X20087500Y48266000D03*
X21912500Y48266000D03*
%TD*%
D22*
%TO.C,C37*%
X25300000Y117725000D03*
X25300000Y114775000D03*
%TD*%
D23*
%TO.C,C39*%
X30025000Y124000000D03*
X32975000Y124000000D03*
%TD*%
D24*
%TO.C,R234*%
X33000000Y93587500D03*
X33000000Y95412500D03*
%TD*%
D25*
%TO.C,D11*%
X58350000Y82500000D03*
X61650000Y82500000D03*
%TD*%
D20*
%TO.C,R23*%
X74675000Y134000000D03*
X76325000Y134000000D03*
%TD*%
D13*
%TO.C,Q11*%
X51562500Y51950000D03*
X51562500Y50050000D03*
X53437500Y51000000D03*
%TD*%
D26*
%TO.C,Q103*%
X5050000Y9050000D03*
X5050000Y10950000D03*
X3175000Y10000000D03*
%TD*%
D16*
%TO.C,R33*%
X43500000Y63675000D03*
X43500000Y65325000D03*
%TD*%
D20*
%TO.C,R17*%
X56175000Y75500000D03*
X57825000Y75500000D03*
%TD*%
D21*
%TO.C,U19*%
X47862500Y66950000D03*
X47862500Y66000000D03*
X47862500Y65050000D03*
X50137500Y65050000D03*
X50137500Y66950000D03*
%TD*%
D13*
%TO.C,Q17*%
X74062500Y115950000D03*
X74062500Y114050000D03*
X75937500Y115000000D03*
%TD*%
D24*
%TO.C,R231*%
X33000000Y37587500D03*
X33000000Y39412500D03*
%TD*%
D27*
%TO.C,C12*%
X7525000Y137000000D03*
X14475000Y137000000D03*
%TD*%
D18*
%TO.C,C22*%
X56225000Y52000000D03*
X57775000Y52000000D03*
%TD*%
D19*
%TO.C,R65*%
X73087500Y16500000D03*
X74912500Y16500000D03*
%TD*%
D28*
%TO.C,C27*%
X75000000Y135725000D03*
X75000000Y137275000D03*
%TD*%
D19*
%TO.C,R213*%
X20087500Y61000000D03*
X21912500Y61000000D03*
%TD*%
D28*
%TO.C,C20*%
X44500000Y48225000D03*
X44500000Y49775000D03*
%TD*%
D21*
%TO.C,U12*%
X46862500Y49950000D03*
X46862500Y49000000D03*
X46862500Y48050000D03*
X49137500Y48050000D03*
X49137500Y49950000D03*
%TD*%
D20*
%TO.C,R19*%
X60175000Y67000000D03*
X61825000Y67000000D03*
%TD*%
D19*
%TO.C,R224*%
X29087500Y96816000D03*
X30912500Y96816000D03*
%TD*%
D20*
%TO.C,R16*%
X55675000Y63000000D03*
X57325000Y63000000D03*
%TD*%
D13*
%TO.C,Q26*%
X43562500Y68950000D03*
X43562500Y67050000D03*
X45437500Y68000000D03*
%TD*%
D19*
%TO.C,R203*%
X14087500Y61000000D03*
X15912500Y61000000D03*
%TD*%
%TO.C,R201*%
X14087500Y36266000D03*
X15912500Y36266000D03*
%TD*%
D15*
%TO.C,C17*%
X38500000Y119050000D03*
X38500000Y120950000D03*
%TD*%
D16*
%TO.C,R32*%
X51500000Y81175000D03*
X51500000Y82825000D03*
%TD*%
D20*
%TO.C,R22*%
X73175000Y118000000D03*
X74825000Y118000000D03*
%TD*%
D25*
%TO.C,D10*%
X53350000Y82500000D03*
X56650000Y82500000D03*
%TD*%
D15*
%TO.C,C18*%
X45500000Y119050000D03*
X45500000Y120950000D03*
%TD*%
D29*
%TO.C,C16*%
X53500000Y78775000D03*
X53500000Y77225000D03*
%TD*%
D13*
%TO.C,Q21*%
X57062500Y110950000D03*
X57062500Y109050000D03*
X58937500Y110000000D03*
%TD*%
D19*
%TO.C,R111*%
X26587500Y21500000D03*
X28412500Y21500000D03*
%TD*%
D16*
%TO.C,R13*%
X45500000Y63175000D03*
X45500000Y64825000D03*
%TD*%
D24*
%TO.C,R100*%
X69500000Y67087500D03*
X69500000Y68912500D03*
%TD*%
D20*
%TO.C,R25*%
X55175000Y105000000D03*
X56825000Y105000000D03*
%TD*%
D24*
%TO.C,R101*%
X69500000Y62087500D03*
X69500000Y63912500D03*
%TD*%
D19*
%TO.C,R254*%
X21587500Y94000000D03*
X23412500Y94000000D03*
%TD*%
%TO.C,R53*%
X54587500Y11500000D03*
X56412500Y11500000D03*
%TD*%
D24*
%TO.C,R233*%
X33000000Y62087500D03*
X33000000Y63912500D03*
%TD*%
%TO.C,R61*%
X45000000Y20087500D03*
X45000000Y21912500D03*
%TD*%
D15*
%TO.C,C30*%
X33500000Y41316000D03*
X33500000Y43216000D03*
%TD*%
D30*
%TO.C,Q23*%
X56550000Y65062500D03*
X58450000Y65062500D03*
X57500000Y66937500D03*
%TD*%
D31*
%TO.C,U30*%
X26725000Y39403500D03*
X27375000Y39403500D03*
X28025000Y39403500D03*
X28675000Y39403500D03*
X29325000Y39403500D03*
X29975000Y39403500D03*
X30625000Y39403500D03*
X31275000Y39403500D03*
X31275000Y45128500D03*
X30625000Y45128500D03*
X29975000Y45128500D03*
X29325000Y45128500D03*
X28675000Y45128500D03*
X28025000Y45128500D03*
X27375000Y45128500D03*
X26725000Y45128500D03*
%TD*%
D32*
%TO.C,JDET3*%
X4000000Y58322500D03*
X4000000Y63402500D03*
D33*
X9842000Y61243500D03*
%TD*%
D13*
%TO.C,Q10*%
X47062500Y53950000D03*
X47062500Y52050000D03*
X48937500Y53000000D03*
%TD*%
D19*
%TO.C,R59*%
X69087500Y9500000D03*
X70912500Y9500000D03*
%TD*%
%TO.C,R54*%
X56087500Y9000000D03*
X57912500Y9000000D03*
%TD*%
D34*
%TO.C,J1*%
X70200000Y88500000D03*
D35*
X76500000Y88500000D03*
D36*
X73100000Y93300000D03*
%TD*%
D37*
%TO.C,J3*%
X74080000Y28000000D03*
D38*
X71540000Y28000000D03*
X69000000Y28000000D03*
X66460000Y28000000D03*
X63920000Y28000000D03*
X61380000Y28000000D03*
X58840000Y28000000D03*
X56300000Y28000000D03*
X53760000Y28000000D03*
X51220000Y28000000D03*
X48680000Y28000000D03*
X46140000Y28000000D03*
X43600000Y28000000D03*
X41060000Y28000000D03*
X38520000Y28000000D03*
%TD*%
D18*
%TO.C,C25*%
X57225000Y73500000D03*
X58775000Y73500000D03*
%TD*%
%TO.C,C26*%
X74225000Y112000000D03*
X75775000Y112000000D03*
%TD*%
D13*
%TO.C,Q18*%
X67062500Y120950000D03*
X67062500Y119050000D03*
X68937500Y120000000D03*
%TD*%
D24*
%TO.C,R66*%
X46000000Y16087500D03*
X46000000Y17912500D03*
%TD*%
D14*
%TO.C,C100*%
X73630000Y79500000D03*
X79870000Y79500000D03*
%TD*%
D16*
%TO.C,R38*%
X48500000Y75675000D03*
X48500000Y77325000D03*
%TD*%
D37*
%TO.C,J4*%
X74080000Y2600000D03*
D38*
X71540000Y2600000D03*
X69000000Y2600000D03*
X66460000Y2600000D03*
X63920000Y2600000D03*
X61380000Y2600000D03*
X58840000Y2600000D03*
X56300000Y2600000D03*
X53760000Y2600000D03*
X51220000Y2600000D03*
X48680000Y2600000D03*
X46140000Y2600000D03*
X43600000Y2600000D03*
X41060000Y2600000D03*
X38520000Y2600000D03*
%TD*%
D19*
%TO.C,R110*%
X26780000Y23700000D03*
X28605000Y23700000D03*
%TD*%
%TO.C,R63*%
X58087500Y17500000D03*
X59912500Y17500000D03*
%TD*%
%TO.C,R69*%
X69087500Y7000000D03*
X70912500Y7000000D03*
%TD*%
D34*
%TO.C,J2*%
X70200000Y40500000D03*
D35*
X76500000Y40500000D03*
D36*
X73100000Y45300000D03*
%TD*%
D19*
%TO.C,R214*%
X20087500Y96816000D03*
X21912500Y96816000D03*
%TD*%
%TO.C,R250*%
X21087500Y45500000D03*
X22912500Y45500000D03*
%TD*%
D26*
%TO.C,Q102*%
X13545000Y9200000D03*
X13545000Y11100000D03*
X11670000Y10150000D03*
%TD*%
D24*
%TO.C,R244*%
X25000000Y90087500D03*
X25000000Y91912500D03*
%TD*%
D15*
%TO.C,C31*%
X33500000Y66050000D03*
X33500000Y67950000D03*
%TD*%
D39*
%TO.C,C24*%
X42525000Y71500000D03*
X45475000Y71500000D03*
%TD*%
D19*
%TO.C,R52*%
X51754167Y17333333D03*
X53579167Y17333333D03*
%TD*%
D40*
%TO.C,C52*%
X69050000Y16500000D03*
X70950000Y16500000D03*
%TD*%
D41*
%TO.C,U18*%
X50162500Y78650000D03*
X50162500Y78000000D03*
X50162500Y77350000D03*
X51837500Y77350000D03*
X51837500Y78650000D03*
%TD*%
D19*
%TO.C,R241*%
X25087500Y47500000D03*
X26912500Y47500000D03*
%TD*%
D24*
%TO.C,R264*%
X18000000Y95587500D03*
X18000000Y97412500D03*
%TD*%
D20*
%TO.C,R35*%
X55675000Y59000000D03*
X57325000Y59000000D03*
%TD*%
D24*
%TO.C,R121*%
X28000000Y10087500D03*
X28000000Y11912500D03*
%TD*%
D19*
%TO.C,R252*%
X21587500Y64000000D03*
X23412500Y64000000D03*
%TD*%
D24*
%TO.C,R261*%
X18000000Y35587500D03*
X18000000Y37412500D03*
%TD*%
D32*
%TO.C,JDET4*%
X4000000Y70742500D03*
X4000000Y75822500D03*
D33*
X9842000Y73663500D03*
%TD*%
D42*
%TO.C,U51*%
X57100000Y21975000D03*
X57100000Y21325000D03*
X57100000Y20675000D03*
X57100000Y20025000D03*
X60900000Y20025000D03*
X60900000Y20675000D03*
X60900000Y21325000D03*
X60900000Y21975000D03*
%TD*%
D17*
%TO.C,R122*%
X9000000Y9000000D03*
X7175000Y9000000D03*
%TD*%
D42*
%TO.C,U52*%
X68100000Y13975000D03*
X68100000Y13325000D03*
X68100000Y12675000D03*
X68100000Y12025000D03*
X71900000Y12025000D03*
X71900000Y12675000D03*
X71900000Y13325000D03*
X71900000Y13975000D03*
%TD*%
D19*
%TO.C,R205*%
X14087500Y84816000D03*
X15912500Y84816000D03*
%TD*%
%TO.C,R223*%
X29087500Y61000000D03*
X30912500Y61000000D03*
%TD*%
D24*
%TO.C,R243*%
X25000000Y70087500D03*
X25000000Y71912500D03*
%TD*%
%TO.C,R242*%
X25000000Y66087500D03*
X25000000Y67912500D03*
%TD*%
D19*
%TO.C,R251*%
X21087500Y39000000D03*
X22912500Y39000000D03*
%TD*%
D18*
%TO.C,C21*%
X56225000Y45500000D03*
X57775000Y45500000D03*
%TD*%
D19*
%TO.C,R67*%
X53087500Y15000000D03*
X54912500Y15000000D03*
%TD*%
D13*
%TO.C,Q50*%
X49062500Y10950000D03*
X49062500Y9050000D03*
X50937500Y10000000D03*
%TD*%
D42*
%TO.C,U50*%
X47100000Y21975000D03*
X47100000Y21325000D03*
X47100000Y20675000D03*
X47100000Y20025000D03*
X50900000Y20025000D03*
X50900000Y20675000D03*
X50900000Y21325000D03*
X50900000Y21975000D03*
%TD*%
D19*
%TO.C,R265*%
X17087500Y82000000D03*
X18912500Y82000000D03*
%TD*%
D31*
%TO.C,U32*%
X26725000Y87953500D03*
X27375000Y87953500D03*
X28025000Y87953500D03*
X28675000Y87953500D03*
X29325000Y87953500D03*
X29975000Y87953500D03*
X30625000Y87953500D03*
X31275000Y87953500D03*
X31275000Y93678500D03*
X30625000Y93678500D03*
X29975000Y93678500D03*
X29325000Y93678500D03*
X28675000Y93678500D03*
X28025000Y93678500D03*
X27375000Y93678500D03*
X26725000Y93678500D03*
%TD*%
D18*
%TO.C,C19*%
X47225000Y45500000D03*
X48775000Y45500000D03*
%TD*%
D43*
%TO.C,U100*%
X73350000Y62350000D03*
X75050000Y62350000D03*
X76750000Y62350000D03*
D44*
X76750000Y71500000D03*
D43*
X78450000Y62350000D03*
X80150000Y62350000D03*
%TD*%
D24*
%TO.C,R260*%
X18000000Y47087500D03*
X18000000Y48912500D03*
%TD*%
D23*
%TO.C,C13*%
X25025000Y128500000D03*
X27975000Y128500000D03*
%TD*%
D20*
%TO.C,R10*%
X25475000Y119750000D03*
X27125000Y119750000D03*
%TD*%
D19*
%TO.C,R56*%
X48087500Y24500000D03*
X49912500Y24500000D03*
%TD*%
%TO.C,R120*%
X26587500Y14000000D03*
X28412500Y14000000D03*
%TD*%
D21*
%TO.C,U13*%
X55862500Y49950000D03*
X55862500Y49000000D03*
X55862500Y48050000D03*
X58137500Y48050000D03*
X58137500Y49950000D03*
%TD*%
D20*
%TO.C,R24*%
X78175000Y134000000D03*
X79825000Y134000000D03*
%TD*%
%TO.C,R30*%
X42175000Y74000000D03*
X43825000Y74000000D03*
%TD*%
D19*
%TO.C,R50*%
X49087500Y13000000D03*
X50912500Y13000000D03*
%TD*%
D45*
%TO.C,C34*%
X21920000Y68000000D03*
X21920000Y66100000D03*
%TD*%
D24*
%TO.C,R64*%
X66000000Y14587500D03*
X66000000Y16412500D03*
%TD*%
%TO.C,R262*%
X18000000Y60087500D03*
X18000000Y61912500D03*
%TD*%
%TO.C,R255*%
X18000000Y84087500D03*
X18000000Y85912500D03*
%TD*%
%TO.C,R230*%
X33000000Y45087500D03*
X33000000Y46912500D03*
%TD*%
%TO.C,R240*%
X25000000Y41587500D03*
X25000000Y43412500D03*
%TD*%
D31*
%TO.C,U31*%
X26725000Y64137500D03*
X27375000Y64137500D03*
X28025000Y64137500D03*
X28675000Y64137500D03*
X29325000Y64137500D03*
X29975000Y64137500D03*
X30625000Y64137500D03*
X31275000Y64137500D03*
X31275000Y69862500D03*
X30625000Y69862500D03*
X29975000Y69862500D03*
X29325000Y69862500D03*
X28675000Y69862500D03*
X28025000Y69862500D03*
X27375000Y69862500D03*
X26725000Y69862500D03*
%TD*%
D16*
%TO.C,R21*%
X77500000Y110675000D03*
X77500000Y112325000D03*
%TD*%
D46*
%TO.C,U101*%
X22685000Y24965000D03*
X20145000Y24965000D03*
X17605000Y24965000D03*
X15065000Y24965000D03*
X12525000Y24965000D03*
X9985000Y24965000D03*
X7445000Y24965000D03*
X4905000Y24965000D03*
X4905000Y15435000D03*
X7445000Y15435000D03*
X9985000Y15435000D03*
X12525000Y15435000D03*
X15065000Y15435000D03*
X17605000Y15435000D03*
X20145000Y15435000D03*
X22685000Y15435000D03*
%TD*%
D19*
%TO.C,R212*%
X20087500Y73000000D03*
X21912500Y73000000D03*
%TD*%
D24*
%TO.C,R60*%
X74000000Y12587500D03*
X74000000Y14412500D03*
%TD*%
%TO.C,R51*%
X46500000Y10587500D03*
X46500000Y12412500D03*
%TD*%
D22*
%TO.C,C38*%
X28600000Y117725000D03*
X28600000Y114775000D03*
%TD*%
D19*
%TO.C,R221*%
X29087500Y36266000D03*
X30912500Y36266000D03*
%TD*%
%TO.C,R202*%
X14087500Y73000000D03*
X15912500Y73000000D03*
%TD*%
D24*
%TO.C,R235*%
X33000000Y86087500D03*
X33000000Y87912500D03*
%TD*%
D47*
%TO.C,RV100*%
X76560000Y50500000D03*
X79100000Y50500000D03*
X81640000Y50500000D03*
%TD*%
D15*
%TO.C,C50*%
X53000000Y22550000D03*
X53000000Y24450000D03*
%TD*%
D19*
%TO.C,R57*%
X48087500Y17500000D03*
X49912500Y17500000D03*
%TD*%
D17*
%TO.C,R113*%
X25912500Y11500000D03*
X24087500Y11500000D03*
%TD*%
D13*
%TO.C,Q12*%
X47062500Y57950000D03*
X47062500Y56050000D03*
X48937500Y57000000D03*
%TD*%
D19*
%TO.C,R68*%
X63087500Y20500000D03*
X64912500Y20500000D03*
%TD*%
D24*
%TO.C,R55*%
X65500000Y10587500D03*
X65500000Y12412500D03*
%TD*%
D20*
%TO.C,R26*%
X60175000Y65000000D03*
X61825000Y65000000D03*
%TD*%
D32*
%TO.C,JDET1*%
X4000000Y33497500D03*
X4000000Y38577500D03*
D33*
X9842000Y36418500D03*
%TD*%
D10*
%TO.C,U34*%
X15595000Y64525000D03*
X16865000Y64525000D03*
X18135000Y64525000D03*
X19405000Y64525000D03*
X19405000Y69475000D03*
X18135000Y69475000D03*
X16865000Y69475000D03*
X15595000Y69475000D03*
%TD*%
D45*
%TO.C,C35*%
X22285000Y91816000D03*
X22285000Y89916000D03*
%TD*%
D22*
%TO.C,C15*%
X22000000Y117725000D03*
X22000000Y114775000D03*
%TD*%
D19*
%TO.C,R58*%
X58087500Y24500000D03*
X59912500Y24500000D03*
%TD*%
D12*
%TO.C,C36*%
X17500000Y121525000D03*
X17500000Y124475000D03*
%TD*%
D38*
%TO.C,JEM3*%
X7045000Y5100000D03*
X4505000Y5100000D03*
%TD*%
D48*
%TO.C,U16*%
X63190000Y111270000D03*
X63190000Y108730000D03*
X70810000Y108730000D03*
X70810000Y111270000D03*
%TD*%
D32*
%TO.C,JDET6*%
X4034100Y94920000D03*
X4034100Y100000000D03*
D33*
X9876100Y97841000D03*
%TD*%
D49*
%TO.C,D12*%
X44500000Y55350000D03*
X44500000Y58650000D03*
%TD*%
D13*
%TO.C,U17*%
X42062500Y78950000D03*
X42062500Y77050000D03*
X43937500Y78000000D03*
%TD*%
%TO.C,Q22*%
X51812500Y61450000D03*
X51812500Y59550000D03*
X53687500Y60500000D03*
%TD*%
%TO.C,Q13*%
X47562500Y61950000D03*
X47562500Y60050000D03*
X49437500Y61000000D03*
%TD*%
D21*
%TO.C,U14*%
X47862500Y70950000D03*
X47862500Y70000000D03*
X47862500Y69050000D03*
X50137500Y69050000D03*
X50137500Y70950000D03*
%TD*%
D37*
%TO.C,J5*%
X41210000Y34025000D03*
D38*
X43750000Y34025000D03*
X46290000Y34025000D03*
X48830000Y34025000D03*
X51370000Y34025000D03*
X53910000Y34025000D03*
X56450000Y34025000D03*
X58990000Y34025000D03*
%TD*%
D19*
%TO.C,R222*%
X29087500Y73000000D03*
X30912500Y73000000D03*
%TD*%
D13*
%TO.C,Q16*%
X74062500Y108950000D03*
X74062500Y107050000D03*
X75937500Y108000000D03*
%TD*%
D39*
%TO.C,C14*%
X41525000Y82000000D03*
X44475000Y82000000D03*
%TD*%
D28*
%TO.C,C28*%
X72000000Y114225000D03*
X72000000Y115775000D03*
%TD*%
D26*
%TO.C,Q101*%
X22050000Y9050000D03*
X22050000Y10950000D03*
X20175000Y10000000D03*
%TD*%
D15*
%TO.C,C51*%
X63000000Y22550000D03*
X63000000Y24450000D03*
%TD*%
D16*
%TO.C,R18*%
X61500000Y69175000D03*
X61500000Y70825000D03*
%TD*%
D20*
%TO.C,R12*%
X30675000Y127000000D03*
X32325000Y127000000D03*
%TD*%
D32*
%TO.C,JDET5*%
X4120000Y82542500D03*
X4120000Y87622500D03*
D33*
X9962000Y85463500D03*
%TD*%
D20*
%TO.C,R14*%
X52675000Y75000000D03*
X54325000Y75000000D03*
%TD*%
D32*
%TO.C,JDET2*%
X4000000Y45920000D03*
X4000000Y51000000D03*
D33*
X9842000Y48841000D03*
%TD*%
D20*
%TO.C,R27*%
X56175000Y61000000D03*
X57825000Y61000000D03*
%TD*%
D24*
%TO.C,R253*%
X24000000Y60087500D03*
X24000000Y61912500D03*
%TD*%
%TO.C,R245*%
X25000000Y86087500D03*
X25000000Y87912500D03*
%TD*%
%TO.C,R70*%
X76500000Y12587500D03*
X76500000Y14412500D03*
%TD*%
D19*
%TO.C,R225*%
X29087500Y84816000D03*
X30912500Y84816000D03*
%TD*%
%TO.C,R263*%
X20087500Y58500000D03*
X21912500Y58500000D03*
%TD*%
%TO.C,R116*%
X26587500Y16500000D03*
X28412500Y16500000D03*
%TD*%
D15*
%TO.C,C32*%
X33500000Y89866000D03*
X33500000Y91766000D03*
%TD*%
D13*
%TO.C,Q19*%
X70062500Y136950000D03*
X70062500Y135050000D03*
X71937500Y136000000D03*
%TD*%
D20*
%TO.C,R20*%
X55175000Y77500000D03*
X56825000Y77500000D03*
%TD*%
D16*
%TO.C,R15*%
X45500000Y73675000D03*
X45500000Y75325000D03*
%TD*%
D15*
%TO.C,C103*%
X69500000Y55550000D03*
X69500000Y57450000D03*
%TD*%
D19*
%TO.C,R62*%
X53087500Y20500000D03*
X54912500Y20500000D03*
%TD*%
D20*
%TO.C,R11*%
X16175000Y118500000D03*
X17825000Y118500000D03*
%TD*%
D30*
%TO.C,Q15*%
X53050000Y71062500D03*
X54950000Y71062500D03*
X54000000Y72937500D03*
%TD*%
D19*
%TO.C,R204*%
X14087500Y96816000D03*
X15912500Y96816000D03*
%TD*%
D30*
%TO.C,Q24*%
X51050000Y55562500D03*
X52950000Y55562500D03*
X52000000Y57437500D03*
%TD*%
D38*
%TO.C,JEM1*%
X24045000Y5100000D03*
X21505000Y5100000D03*
%TD*%
%TO.C,JEM2*%
X15545000Y5100000D03*
X13005000Y5100000D03*
%TD*%
D17*
%TO.C,R112*%
X26000000Y9000000D03*
X24175000Y9000000D03*
%TD*%
D39*
%TO.C,C23*%
X47525000Y73500000D03*
X50475000Y73500000D03*
%TD*%
D16*
%TO.C,R34*%
X41500000Y67175000D03*
X41500000Y68825000D03*
%TD*%
D20*
%TO.C,R28*%
X74175000Y105000000D03*
X75825000Y105000000D03*
%TD*%
D19*
%TO.C,R215*%
X20087500Y84816000D03*
X21912500Y84816000D03*
%TD*%
D50*
%TO.C,U10*%
X20550000Y123500000D03*
X20550000Y123000000D03*
X20550000Y122500000D03*
X20550000Y122000000D03*
X20550000Y121500000D03*
X20550000Y121000000D03*
X20550000Y120500000D03*
X23450000Y120500000D03*
X23450000Y121000000D03*
X23450000Y121500000D03*
X23450000Y122000000D03*
X23450000Y122500000D03*
X23450000Y123000000D03*
X23450000Y123500000D03*
D51*
X22000000Y122000000D03*
%TD*%
D37*
%TO.C,J6*%
X41210000Y91175000D03*
D38*
X41210000Y88635000D03*
X43750000Y91175000D03*
X43750000Y88635000D03*
X46290000Y91175000D03*
X46290000Y88635000D03*
X48830000Y91175000D03*
X48830000Y88635000D03*
X51370000Y91175000D03*
X51370000Y88635000D03*
X53910000Y91175000D03*
X53910000Y88635000D03*
X56450000Y91175000D03*
X56450000Y88635000D03*
X58990000Y91175000D03*
X58990000Y88635000D03*
%TD*%
D24*
%TO.C,R232*%
X33000000Y70087500D03*
X33000000Y71912500D03*
%TD*%
D10*
%TO.C,U35*%
X15880000Y88341000D03*
X17150000Y88341000D03*
X18420000Y88341000D03*
X19690000Y88341000D03*
X19690000Y93291000D03*
X18420000Y93291000D03*
X17150000Y93291000D03*
X15880000Y93291000D03*
%TD*%
D19*
%TO.C,R115*%
X26587500Y19000000D03*
X28412500Y19000000D03*
%TD*%
D13*
%TO.C,Q14*%
X52562500Y68950000D03*
X52562500Y67050000D03*
X54437500Y68000000D03*
%TD*%
D20*
%TO.C,R29*%
X70175000Y139000000D03*
X71825000Y139000000D03*
%TD*%
D45*
%TO.C,C33*%
X22190000Y43216000D03*
X22190000Y41316000D03*
%TD*%
D11*
%TO.C,F2*%
X75600000Y131000000D03*
X78400000Y131000000D03*
%TD*%
D21*
%TO.C,U15*%
X56862500Y70950000D03*
X56862500Y70000000D03*
X56862500Y69050000D03*
X59137500Y69050000D03*
X59137500Y70950000D03*
%TD*%
M02*
