M48
; DRILL file KiCad 10.0.3 date 2026-08-04T12:07:58
; FORMAT={-:-/ absolute / metric / decimal}
; #@! TF.CreationDate,2026-08-04T12:07:58-04:00
; #@! TF.GenerationSoftware,Kicad,Pcbnew,10.0.3
; #@! TF.FileFunction,Plated,1,2,PTH
FMAT,2
METRIC
; #@! TA.AperFunction,Plated,PTH,ViaDrill
T1C0.300
; #@! TA.AperFunction,Plated,PTH,ComponentDrill
T2C0.800
; #@! TA.AperFunction,Plated,PTH,ComponentDrill
T3C1.000
; #@! TA.AperFunction,Plated,PTH,ComponentDrill
T4C1.100
; #@! TA.AperFunction,Plated,PTH,ComponentDrill
T5C1.200
; #@! TA.AperFunction,Plated,PTH,ComponentDrill
T6C1.500
%
G90
G05
T1
X17.4Y-60.8
X17.4Y-62.8
X28.2Y-15.3
X41.5Y-75.9
X42.3Y-70.1
X42.6Y-18.3
X43.4Y-23.3
X44.0Y-18.3
X47.75Y-70.45
X48.7Y-51.2
X57.1Y-48.9
X57.9Y-21.7
X59.0Y-21.6
X60.8Y-23.3
X67.4Y-50.8
X67.9Y-20.6
X75.7Y-38.4
X77.2Y-38.9
X78.4Y-18.5
X80.15Y-18.5
X80.5Y-25.0
X85.1Y-50.7
X85.5Y-48.3
X86.5Y-49.3
X91.1Y-50.4
X92.3Y-49.6
X94.5Y-20.0
X94.5Y-21.6
X95.1Y-45.0
X95.9Y-20.0
X96.6Y-41.7
X97.6Y-42.7
X98.4Y-39.9
X99.3Y-20.8
X99.5Y-65.0
X100.7Y-20.1
X100.7Y-21.0
X101.3Y-65.7
X103.35Y-56.15
X103.35Y-56.15
X103.9Y-74.8
X103.9Y-75.9
X104.8Y-20.6
X104.8Y-36.0
X105.75Y-68.25
X109.1Y-43.0
X110.5Y-43.0
X112.25Y-64.75
X112.5Y-47.5
X113.21Y-46.29
X113.5Y-25.2
T2
X13.98Y-17.0
X24.14Y-17.0
X28.84Y-37.0
X28.92Y-33.5
X32.98Y-17.0
X39.0Y-37.0
X39.08Y-33.5
X43.14Y-17.0
X44.84Y-37.0
X45.42Y-53.5
X46.38Y-41.38
X46.38Y-43.92
X46.38Y-46.46
X46.38Y-49.0
X49.98Y-17.0
X54.0Y-41.38
X54.0Y-43.92
X54.0Y-46.46
X54.0Y-49.0
X55.0Y-37.0
X55.58Y-53.5
X58.5Y-42.5
X58.5Y-47.5
X60.14Y-17.0
X64.17Y-37.0
X64.25Y-53.0
X65.38Y-41.29
X65.38Y-43.83
X65.38Y-46.37
X65.38Y-48.91
X67.92Y-17.0
X73.0Y-41.29
X73.0Y-43.83
X73.0Y-46.37
X73.0Y-48.91
X74.33Y-37.0
X74.41Y-53.0
X77.25Y-43.0
X77.25Y-48.0
X78.08Y-17.0
X81.76Y-37.0
X81.84Y-54.5
X82.92Y-41.0
X82.92Y-43.54
X82.92Y-46.08
X82.92Y-48.62
X85.82Y-17.0
X90.54Y-41.0
X90.54Y-43.54
X90.54Y-46.08
X90.54Y-48.62
X91.92Y-37.0
X92.0Y-54.5
X95.0Y-42.5
X95.0Y-47.5
X95.98Y-17.0
X100.0Y-36.0
X102.0Y-36.0
X104.82Y-17.0
X104.92Y-49.0
X105.0Y-54.0
X107.0Y-36.005
X107.0Y-54.0
X109.5Y-61.0
X109.5Y-66.0
X109.5Y-68.92
X109.5Y-79.08
X109.54Y-36.005
X112.0Y-54.0
X112.08Y-36.005
X113.0Y-60.92
X113.0Y-71.08
X114.0Y-54.0
X114.98Y-17.0
X115.08Y-49.0
T3
X13.97Y-47.44
X13.97Y-49.98
X13.97Y-52.52
X13.97Y-55.06
X13.97Y-55.06
X13.97Y-57.6
X13.97Y-60.14
X13.97Y-62.68
X13.97Y-65.22
X13.97Y-67.76
X13.97Y-70.3
X13.97Y-72.84
X13.97Y-75.38
X13.97Y-77.92
X13.97Y-80.46
X13.97Y-83.0
X17.38Y-36.0
X19.92Y-36.0
X22.46Y-36.0
X23.06Y-26.8
X25.6Y-21.72
X38.98Y-26.72
X39.37Y-47.44
X39.37Y-49.98
X39.37Y-52.52
X39.37Y-55.06
X39.37Y-57.6
X39.37Y-60.14
X39.37Y-62.68
X39.37Y-65.22
X39.37Y-67.76
X39.37Y-70.3
X39.37Y-72.84
X39.37Y-75.38
X39.37Y-77.92
X39.37Y-80.46
X39.37Y-83.0
X41.52Y-21.64
X44.525Y-67.21
X44.525Y-69.75
X44.525Y-72.29
X44.525Y-74.83
X44.525Y-77.37
X44.525Y-79.91
X44.525Y-82.45
X44.525Y-84.99
X58.9Y-26.64
X61.44Y-21.56
X74.98Y-26.72
X77.52Y-21.64
X94.44Y-26.64
X96.98Y-21.56
X99.135Y-67.21
X99.135Y-69.75
X99.135Y-72.29
X99.135Y-74.83
X99.135Y-77.37
X99.135Y-79.91
X99.135Y-82.45
X99.135Y-84.99
X101.675Y-67.21
X101.675Y-69.75
X101.675Y-72.29
X101.675Y-74.83
X101.675Y-77.37
X101.675Y-79.91
X101.675Y-82.45
X101.675Y-84.99
X110.98Y-26.72
X113.52Y-21.64
T4
X101.0Y-40.92
X101.0Y-51.08
T5
X27.17Y-13.72
X29.71Y-13.72
X63.17Y-13.72
X65.71Y-13.72
X98.61Y-13.82
X101.15Y-13.82
T6
X112.87Y-84.06
X112.87Y-89.14
M30
