M48
; DRILL file KiCad 10.0.6 date 2026-09-09T11:43:53
; FORMAT={-:-/ absolute / metric / decimal}
; #@! TF.CreationDate,2026-09-09T11:43:53-04:00
; #@! TF.GenerationSoftware,Kicad,Pcbnew,10.0.6
; #@! TF.FileFunction,Plated,1,4,PTH
FMAT,2
METRIC
; #@! TA.AperFunction,Plated,PTH,ViaDrill
T1C0.300
; #@! TA.AperFunction,Plated,PTH,ComponentDrill
T2C0.800
; #@! TA.AperFunction,Plated,PTH,ComponentDrill
T3C1.000
; #@! TA.AperFunction,Plated,PTH,ComponentDrill
T4C1.020
; #@! TA.AperFunction,Plated,PTH,ComponentDrill
T5C1.200
%
G90
G05
T1
X10.304Y117.414
X12.818Y1.895
X13.068Y73.031
X14.087Y89.947
X14.087Y65.735
X14.178Y43.769
X14.475Y135.05
X15.199Y42.497
X15.357Y66.013
X15.681Y46.569
X15.866Y90.289
X16.013Y67.989
X16.32Y91.344
X16.65Y95.45
X16.771Y37.823
X16.865Y66.051
X17.363Y62.988
X17.5Y125.675
X17.605Y17.55
X17.825Y41.916
X18.42Y89.851
X19.063Y72.501
X19.223Y37.517
X19.226Y85.764
X19.35Y94.75
X19.405Y70.96
X19.679Y121.163
X19.7Y90.6
X19.756Y67.83
X20.087Y83.59
X20.087Y57.128
X20.145Y23.444
X20.5Y92.5
X20.55Y94.42
X20.6Y90.5
X21.345Y90.966
X22.0Y124.45
X22.0Y119.55
X22.0Y112.675
X22.194Y75.464
X22.548Y62.162
X22.758Y59.877
X22.935Y47.948
X22.938Y96.816
X23.041Y37.797
X23.176Y65.588
X23.256Y13.297
X23.399Y88.929
X23.409Y44.248
X23.424Y43.216
X23.65Y117.025
X24.94Y63.255
X25.3Y112.675
X25.916Y12.75
X25.972Y87.091
X25.976Y42.445
X26.028Y85.255
X26.5Y126.675
X26.725Y86.14
X26.775Y128.5
X27.112Y48.706
X27.138Y65.921
X27.309Y67.905
X27.375Y79.945
X27.375Y42.868
X27.393Y17.521
X27.473Y91.988
X27.726Y72.501
X27.97Y46.692
X28.0Y4.751
X28.0Y3.353
X28.009Y42.153
X28.058Y84.7
X28.11Y20.273
X28.232Y90.932
X28.518Y51.554
X28.565Y92.417
X28.6Y112.675
X28.711Y41.418
X28.844Y66.73
X29.099Y38.14
X29.35Y11.912
X29.975Y90.199
X29.975Y71.109
X29.975Y40.913
X30.193Y86.176
X30.625Y94.918
X30.626Y91.211
X30.825Y121.82
X30.977Y89.402
X31.275Y71.134
X31.275Y42.566
X31.455Y62.873
X31.775Y124.0
X31.944Y91.138
X31.96Y61.315
X31.999Y43.424
X32.227Y41.316
X32.232Y82.586
X33.0Y78.374
X34.105Y64.768
X35.207Y72.62
X35.208Y121.767
X36.167Y69.247
X37.715Y117.425
X39.773Y69.886
X41.503Y72.522
X42.948Y39.075
X43.5Y59.631
X43.755Y72.491
X43.8Y23.75
X43.9Y22.75
X44.415Y78.977
X44.5Y56.719
X44.849Y69.011
X45.39Y69.825
X45.506Y79.168
X45.506Y47.806
X45.702Y23.621
X46.482Y62.761
X47.525Y74.932
X47.562Y60.883
X48.06Y12.697
X48.087Y23.284
X48.345Y68.012
X48.893Y56.147
X48.903Y21.097
X49.048Y70.147
X49.137Y49.142
X49.137Y46.864
X49.153Y79.048
X49.324Y63.136
X49.536Y75.941
X49.834Y20.951
X49.853Y19.625
X49.912Y25.742
X49.912Y18.739
X50.137Y71.764
X51.085Y71.647
X51.188Y22.69
X51.254Y62.896
X51.284Y68.603
X51.528Y54.38
X51.672Y73.101
X51.746Y24.628
X51.899Y66.225
X51.954Y74.245
X51.978Y69.826
X51.996Y20.958
X52.5Y76.5
X52.646Y84.487
X53.695Y80.212
X53.801Y66.611
X53.87Y70.209
X54.052Y10.269
X54.438Y69.157
X54.476Y30.604
X54.713Y64.109
X54.912Y21.708
X55.049Y60.4
X55.449Y64.646
X55.563Y72.151
X55.734Y66.839
X55.788Y78.677
X55.819Y74.483
X56.175Y60.0
X56.282Y23.812
X56.825Y105.986
X56.825Y81.07
X58.744Y54.721
X58.775Y72.424
X60.778Y51.821
X61.052Y65.773
X61.352Y22.688
X61.65Y81.083
X61.726Y56.073
X62.37Y42.627
X63.883Y72.055
X63.97Y45.715
X64.712Y111.055
X67.062Y119.877
X67.417Y14.691
X67.796Y16.657
X67.841Y11.271
X68.368Y61.11
X68.818Y119.175
X69.5Y81.15
X69.5Y65.833
X70.134Y117.656
X70.184Y20.945
X70.55Y70.372
X70.688Y15.189
X70.721Y61.725
X70.81Y107.23
X71.009Y113.987
X71.825Y140.2
X71.938Y137.2
X72.0Y119.242
X72.853Y17.719
X73.566Y106.142
X75.25Y12.826
X75.736Y118.0
X75.938Y114.136
X76.75Y77.0
X77.062Y139.1
X77.2Y132.5
X77.5Y114.354
X78.07Y79.5
X78.4Y129.6
X78.448Y123.251
X78.938Y135.177
X79.018Y77.0
X79.517Y65.132
X81.286Y77.0
X81.286Y66.0
X82.95Y74.79
X82.95Y72.628
X82.95Y70.372
X82.95Y68.21
T2
X76.56Y50.5
X79.1Y50.5
X81.64Y50.5
T3
X4.0Y75.822
X4.0Y70.742
X4.0Y63.402
X4.0Y58.322
X4.0Y51.0
X4.0Y45.92
X4.0Y38.578
X4.0Y33.497
X4.034Y100.0
X4.034Y94.92
X4.12Y87.623
X4.12Y82.542
T4
X38.52Y28.0
X38.52Y2.6
X41.06Y28.0
X41.06Y2.6
X41.21Y91.175
X41.21Y88.635
X41.21Y34.025
X43.6Y28.0
X43.6Y2.6
X43.75Y91.175
X43.75Y88.635
X43.75Y34.025
X46.14Y28.0
X46.14Y2.6
X46.29Y91.175
X46.29Y88.635
X46.29Y34.025
X48.68Y28.0
X48.68Y2.6
X48.83Y91.175
X48.83Y88.635
X48.83Y34.025
X51.22Y28.0
X51.22Y2.6
X51.37Y91.175
X51.37Y88.635
X51.37Y34.025
X53.76Y28.0
X53.76Y2.6
X53.91Y91.175
X53.91Y88.635
X53.91Y34.025
X56.3Y28.0
X56.3Y2.6
X56.45Y91.175
X56.45Y88.635
X56.45Y34.025
X58.84Y28.0
X58.84Y2.6
X58.99Y91.175
X58.99Y88.635
X58.99Y34.025
X61.38Y28.0
X61.38Y2.6
X63.92Y28.0
X63.92Y2.6
X66.46Y28.0
X66.46Y2.6
X69.0Y28.0
X69.0Y2.6
X71.54Y28.0
X71.54Y2.6
X74.08Y28.0
X74.08Y2.6
T5
X4.505Y5.1
X7.045Y5.1
X13.005Y5.1
X15.545Y5.1
X21.505Y5.1
X24.045Y5.1
T3
G00X70.2Y87.2
M15
G01X70.2Y89.8
M16
G05
G00X70.2Y39.2
M15
G01X70.2Y41.8
M16
G05
G00X72.0Y93.3
M15
G01X74.2Y93.3
M16
G05
G00X72.0Y45.3
M15
G01X74.2Y45.3
M16
G05
G00X76.5Y87.4
M15
G01X76.5Y89.6
M16
G05
G00X76.5Y39.4
M15
G01X76.5Y41.6
M16
G05
M30
