%TF.GenerationSoftware,KiCad,Pcbnew,10.0.6*%
%TF.CreationDate,2026-09-09T11:43:52-04:00*%
%TF.ProjectId,single_detector_usb_master,73696e67-6c65-45f6-9465-746563746f72,R1-PLACEMENT-DRAFT*%
%TF.SameCoordinates,Original*%
%TF.FileFunction,Copper,L1,Top*%
%TF.FilePolarity,Positive*%
%FSLAX46Y46*%
G04 Gerber Fmt 4.6, Leading zero omitted, Abs format (unit mm)*
G04 Created by KiCad (PCBNEW 10.0.6) date 2026-09-09 11:43:52*
%MOMM*%
%LPD*%
G01*
G04 APERTURE LIST*
G04 Aperture macros list*
%AMRoundRect*
0 Rectangle with rounded corners*
0 $1 Rounding radius*
0 $2 $3 $4 $5 $6 $7 $8 $9 X,Y pos of 4 corners*
0 Add a 4 corners polygon primitive as box body*
4,1,4,$2,$3,$4,$5,$6,$7,$8,$9,$2,$3,0*
0 Add four circle primitives for the rounded corners*
1,1,$1+$1,$2,$3*
1,1,$1+$1,$4,$5*
1,1,$1+$1,$6,$7*
1,1,$1+$1,$8,$9*
0 Add four rect primitives between the rounded corners*
20,1,$1+$1,$2,$3,$4,$5,0*
20,1,$1+$1,$4,$5,$6,$7,0*
20,1,$1+$1,$6,$7,$8,$9,0*
20,1,$1+$1,$8,$9,$2,$3,0*%
G04 Aperture macros list end*
%TA.AperFunction,SMDPad,CuDef*%
%ADD10RoundRect,0.150000X0.150000X-0.825000X0.150000X0.825000X-0.150000X0.825000X-0.150000X-0.825000X0*%
%TD*%
%TA.AperFunction,SMDPad,CuDef*%
%ADD11RoundRect,0.250000X-0.375000X-0.625000X0.375000X-0.625000X0.375000X0.625000X-0.375000X0.625000X0*%
%TD*%
%TA.AperFunction,SMDPad,CuDef*%
%ADD12RoundRect,0.250000X1.100000X-0.325000X1.100000X0.325000X-1.100000X0.325000X-1.100000X-0.325000X0*%
%TD*%
%TA.AperFunction,SMDPad,CuDef*%
%ADD13RoundRect,0.150000X-0.587500X-0.150000X0.587500X-0.150000X0.587500X0.150000X-0.587500X0.150000X0*%
%TD*%
%TA.AperFunction,SMDPad,CuDef*%
%ADD14RoundRect,0.250000X-0.785000X-1.045000X0.785000X-1.045000X0.785000X1.045000X-0.785000X1.045000X0*%
%TD*%
%TA.AperFunction,SMDPad,CuDef*%
%ADD15RoundRect,0.250000X0.475000X-0.250000X0.475000X0.250000X-0.475000X0.250000X-0.475000X-0.250000X0*%
%TD*%
%TA.AperFunction,SMDPad,CuDef*%
%ADD16RoundRect,0.200000X0.275000X-0.200000X0.275000X0.200000X-0.275000X0.200000X-0.275000X-0.200000X0*%
%TD*%
%TA.AperFunction,SMDPad,CuDef*%
%ADD17RoundRect,0.250000X0.262500X0.450000X-0.262500X0.450000X-0.262500X-0.450000X0.262500X-0.450000X0*%
%TD*%
%TA.AperFunction,SMDPad,CuDef*%
%ADD18RoundRect,0.225000X-0.225000X-0.250000X0.225000X-0.250000X0.225000X0.250000X-0.225000X0.250000X0*%
%TD*%
%TA.AperFunction,SMDPad,CuDef*%
%ADD19RoundRect,0.250000X-0.262500X-0.450000X0.262500X-0.450000X0.262500X0.450000X-0.262500X0.450000X0*%
%TD*%
%TA.AperFunction,SMDPad,CuDef*%
%ADD20RoundRect,0.200000X-0.200000X-0.275000X0.200000X-0.275000X0.200000X0.275000X-0.200000X0.275000X0*%
%TD*%
%TA.AperFunction,SMDPad,CuDef*%
%ADD21RoundRect,0.150000X-0.512500X-0.150000X0.512500X-0.150000X0.512500X0.150000X-0.512500X0.150000X0*%
%TD*%
%TA.AperFunction,SMDPad,CuDef*%
%ADD22RoundRect,0.250000X-0.650000X0.325000X-0.650000X-0.325000X0.650000X-0.325000X0.650000X0.325000X0*%
%TD*%
%TA.AperFunction,SMDPad,CuDef*%
%ADD23RoundRect,0.250000X-0.325000X-1.100000X0.325000X-1.100000X0.325000X1.100000X-0.325000X1.100000X0*%
%TD*%
%TA.AperFunction,SMDPad,CuDef*%
%ADD24RoundRect,0.250000X0.450000X-0.262500X0.450000X0.262500X-0.450000X0.262500X-0.450000X-0.262500X0*%
%TD*%
%TA.AperFunction,SMDPad,CuDef*%
%ADD25RoundRect,0.225000X-0.225000X-0.375000X0.225000X-0.375000X0.225000X0.375000X-0.225000X0.375000X0*%
%TD*%
%TA.AperFunction,SMDPad,CuDef*%
%ADD26RoundRect,0.150000X0.587500X0.150000X-0.587500X0.150000X-0.587500X-0.150000X0.587500X-0.150000X0*%
%TD*%
%TA.AperFunction,SMDPad,CuDef*%
%ADD27RoundRect,0.250000X-1.825000X-0.700000X1.825000X-0.700000X1.825000X0.700000X-1.825000X0.700000X0*%
%TD*%
%TA.AperFunction,SMDPad,CuDef*%
%ADD28RoundRect,0.225000X0.250000X-0.225000X0.250000X0.225000X-0.250000X0.225000X-0.250000X-0.225000X0*%
%TD*%
%TA.AperFunction,SMDPad,CuDef*%
%ADD29RoundRect,0.225000X-0.250000X0.225000X-0.250000X-0.225000X0.250000X-0.225000X0.250000X0.225000X0*%
%TD*%
%TA.AperFunction,SMDPad,CuDef*%
%ADD30RoundRect,0.150000X0.150000X-0.587500X0.150000X0.587500X-0.150000X0.587500X-0.150000X-0.587500X0*%
%TD*%
%TA.AperFunction,SMDPad,CuDef*%
%ADD31RoundRect,0.100000X0.100000X-0.637500X0.100000X0.637500X-0.100000X0.637500X-0.100000X-0.637500X0*%
%TD*%
%TA.AperFunction,ComponentPad*%
%ADD32C,2.540000*%
%TD*%
%TA.AperFunction,SMDPad,CuDef*%
%ADD33RoundRect,0.381000X0.889000X3.119000X-0.889000X3.119000X-0.889000X-3.119000X0.889000X-3.119000X0*%
%TD*%
%TA.AperFunction,ComponentPad*%
%ADD34R,2.000000X4.600000*%
%TD*%
%TA.AperFunction,ComponentPad*%
%ADD35O,2.000000X4.200000*%
%TD*%
%TA.AperFunction,ComponentPad*%
%ADD36O,4.200000X2.000000*%
%TD*%
%TA.AperFunction,ComponentPad*%
%ADD37R,2.000000X2.000000*%
%TD*%
%TA.AperFunction,ComponentPad*%
%ADD38C,2.000000*%
%TD*%
%TA.AperFunction,SMDPad,CuDef*%
%ADD39RoundRect,0.250000X-0.325000X-0.650000X0.325000X-0.650000X0.325000X0.650000X-0.325000X0.650000X0*%
%TD*%
%TA.AperFunction,SMDPad,CuDef*%
%ADD40RoundRect,0.250000X-0.250000X-0.475000X0.250000X-0.475000X0.250000X0.475000X-0.250000X0.475000X0*%
%TD*%
%TA.AperFunction,SMDPad,CuDef*%
%ADD41RoundRect,0.087500X-0.425000X-0.087500X0.425000X-0.087500X0.425000X0.087500X-0.425000X0.087500X0*%
%TD*%
%TA.AperFunction,SMDPad,CuDef*%
%ADD42RoundRect,0.050000X-0.500000X-0.150000X0.500000X-0.150000X0.500000X0.150000X-0.500000X0.150000X0*%
%TD*%
%TA.AperFunction,SMDPad,CuDef*%
%ADD43RoundRect,0.250000X0.300000X-2.050000X0.300000X2.050000X-0.300000X2.050000X-0.300000X-2.050000X0*%
%TD*%
%TA.AperFunction,SMDPad,CuDef*%
%ADD44RoundRect,0.250002X5.149998X-4.449998X5.149998X4.449998X-5.149998X4.449998X-5.149998X-4.449998X0*%
%TD*%
%TA.AperFunction,SMDPad,CuDef*%
%ADD45RoundRect,0.250000X-0.475000X0.250000X-0.475000X-0.250000X0.475000X-0.250000X0.475000X0.250000X0*%
%TD*%
%TA.AperFunction,SMDPad,CuDef*%
%ADD46RoundRect,0.249999X-0.640001X0.750001X-0.640001X-0.750001X0.640001X-0.750001X0.640001X0.750001X0*%
%TD*%
%TA.AperFunction,ComponentPad*%
%ADD47C,1.440000*%
%TD*%
%TA.AperFunction,SMDPad,CuDef*%
%ADD48RoundRect,0.249999X-0.750001X-0.640001X0.750001X-0.640001X0.750001X0.640001X-0.750001X0.640001X0*%
%TD*%
%TA.AperFunction,SMDPad,CuDef*%
%ADD49RoundRect,0.225000X0.375000X-0.225000X0.375000X0.225000X-0.375000X0.225000X-0.375000X-0.225000X0*%
%TD*%
%TA.AperFunction,SMDPad,CuDef*%
%ADD50R,0.700000X0.250000*%
%TD*%
%TA.AperFunction,SMDPad,CuDef*%
%ADD51R,1.700000X3.300000*%
%TD*%
%TA.AperFunction,ViaPad*%
%ADD52C,0.600000*%
%TD*%
%TA.AperFunction,Conductor*%
%ADD53C,0.250000*%
%TD*%
%TA.AperFunction,Conductor*%
%ADD54C,0.300000*%
%TD*%
%TA.AperFunction,Conductor*%
%ADD55C,0.600000*%
%TD*%
%TA.AperFunction,Conductor*%
%ADD56C,1.000000*%
%TD*%
%TA.AperFunction,Conductor*%
%ADD57C,0.400000*%
%TD*%
%TA.AperFunction,Conductor*%
%ADD58C,0.200000*%
%TD*%
%TA.AperFunction,Conductor*%
%ADD59C,0.601000*%
%TD*%
G04 APERTURE END LIST*
D10*
%TO.P,U33,1*%
%TO.N,AMP_OUT0*%
X15285000Y39791000D03*
%TO.P,U33,2*%
%TO.N,AMP_FB0*%
X16555000Y39791000D03*
%TO.P,U33,3*%
%TO.N,AMP_IN0*%
X17825000Y39791000D03*
%TO.P,U33,4*%
%TO.N,GND*%
X19095000Y39791000D03*
%TO.P,U33,5*%
%TO.N,AMP_IN1*%
X19095000Y44741000D03*
%TO.P,U33,6*%
%TO.N,AMP_FB1*%
X17825000Y44741000D03*
%TO.P,U33,7*%
%TO.N,AMP_OUT1*%
X16555000Y44741000D03*
%TO.P,U33,8*%
%TO.N,ADC_5V_HELD*%
X15285000Y44741000D03*
%TD*%
D11*
%TO.P,F1,1*%
%TO.N,DET_BAT_RAW*%
X74600000Y101000000D03*
%TO.P,F1,2*%
%TO.N,DET_BAT_FUSED*%
X77400000Y101000000D03*
%TD*%
D12*
%TO.P,C11,1*%
%TO.N,ADC_5V_HELD*%
X26500000Y122525000D03*
%TO.P,C11,2*%
%TO.N,GND*%
X26500000Y125475000D03*
%TD*%
D13*
%TO.P,Q20,1*%
%TO.N,EM_MASTER_GATE*%
X77062500Y137950000D03*
%TO.P,Q20,2*%
%TO.N,EM_BAT_PROTECTED*%
X77062500Y136050000D03*
%TO.P,Q20,3*%
%TO.N,EM_BAT_SW*%
X78937500Y137000000D03*
%TD*%
D14*
%TO.P,C10,1*%
%TO.N,DET_BAT_PROTECTED*%
X6880000Y122000000D03*
%TO.P,C10,2*%
%TO.N,GND*%
X13120000Y122000000D03*
%TD*%
D15*
%TO.P,C101,1*%
%TO.N,EM_BAT_SW*%
X69500000Y78050000D03*
%TO.P,C101,2*%
%TO.N,EM_GND*%
X69500000Y79950000D03*
%TD*%
D16*
%TO.P,R31,1*%
%TO.N,ADC_5V_HELD*%
X49000000Y81175000D03*
%TO.P,R31,2*%
%TO.N,ADC_RAIL_SENSE*%
X49000000Y82825000D03*
%TD*%
D17*
%TO.P,R117,1*%
%TO.N,EM_GATE2_DRIVE*%
X17412500Y9000000D03*
%TO.P,R117,2*%
%TO.N,EM_GATE2*%
X15587500Y9000000D03*
%TD*%
D14*
%TO.P,C102,1*%
%TO.N,EM_REG*%
X73630000Y56750000D03*
%TO.P,C102,2*%
%TO.N,EM_GND*%
X79870000Y56750000D03*
%TD*%
D18*
%TO.P,C29,1*%
%TO.N,ESP_3V3*%
X52225000Y63500000D03*
%TO.P,C29,2*%
%TO.N,GND*%
X53775000Y63500000D03*
%TD*%
D19*
%TO.P,R200,1*%
%TO.N,SENSOR0*%
X14087500Y48266000D03*
%TO.P,R200,2*%
%TO.N,GND*%
X15912500Y48266000D03*
%TD*%
D20*
%TO.P,R39,1*%
%TO.N,ADC_LDO_SET_RETURN*%
X29175000Y120000000D03*
%TO.P,R39,2*%
%TO.N,GND*%
X30825000Y120000000D03*
%TD*%
D13*
%TO.P,Q51,1*%
%TO.N,ESP_OE_BASE*%
X60062500Y10950000D03*
%TO.P,Q51,2*%
%TO.N,GND*%
X60062500Y9050000D03*
%TO.P,Q51,3*%
%TO.N,ESP_IF_OE_N*%
X61937500Y10000000D03*
%TD*%
D19*
%TO.P,R220,1*%
%TO.N,AMP_OUT0*%
X29087500Y48266000D03*
%TO.P,R220,2*%
%TO.N,AMP_SERIES0*%
X30912500Y48266000D03*
%TD*%
%TO.P,R211,1*%
%TO.N,SENSOR1*%
X20087500Y36266000D03*
%TO.P,R211,2*%
%TO.N,AMP_IN1*%
X21912500Y36266000D03*
%TD*%
D16*
%TO.P,R40,1*%
%TO.N,REF_NOT_READY*%
X46500000Y77175000D03*
%TO.P,R40,2*%
%TO.N,REF_CLAMP_RELEASE*%
X46500000Y78825000D03*
%TD*%
D17*
%TO.P,R123,1*%
%TO.N,EM_GATE3*%
X8912500Y11500000D03*
%TO.P,R123,2*%
%TO.N,EM_GND*%
X7087500Y11500000D03*
%TD*%
D21*
%TO.P,U11,1*%
%TO.N,ADC_5V_HELD*%
X40862500Y120950000D03*
%TO.P,U11,2*%
%TO.N,GND*%
X40862500Y120000000D03*
%TO.P,U11,3*%
%TO.N,ADC_5V_HELD*%
X40862500Y119050000D03*
%TO.P,U11,4*%
%TO.N,unconnected-(U11-NC-Pad4)*%
X43137500Y119050000D03*
%TO.P,U11,5*%
%TO.N,ADC_IO_3V3*%
X43137500Y120950000D03*
%TD*%
D17*
%TO.P,R118,1*%
%TO.N,EM_GATE2*%
X17412500Y11500000D03*
%TO.P,R118,2*%
%TO.N,EM_GND*%
X15587500Y11500000D03*
%TD*%
D19*
%TO.P,R210,1*%
%TO.N,SENSOR0*%
X20087500Y48266000D03*
%TO.P,R210,2*%
%TO.N,AMP_IN0*%
X21912500Y48266000D03*
%TD*%
D22*
%TO.P,C37,1*%
%TO.N,ADC_LDO_SET*%
X25300000Y117725000D03*
%TO.P,C37,2*%
%TO.N,GND*%
X25300000Y114775000D03*
%TD*%
D23*
%TO.P,C39,1*%
%TO.N,ADC_5V_HELD*%
X30025000Y124000000D03*
%TO.P,C39,2*%
%TO.N,GND*%
X32975000Y124000000D03*
%TD*%
D24*
%TO.P,R234,1*%
%TO.N,CLAMP_GND4*%
X33000000Y93587500D03*
%TO.P,R234,2*%
%TO.N,GND*%
X33000000Y95412500D03*
%TD*%
D25*
%TO.P,D11,1*%
%TO.N,OFF_BIAS_RAIL*%
X58350000Y82500000D03*
%TO.P,D11,2*%
%TO.N,ADC_5V_HELD*%
X61650000Y82500000D03*
%TD*%
D20*
%TO.P,R23,1*%
%TO.N,EM_MASTER_GATE*%
X74675000Y134000000D03*
%TO.P,R23,2*%
%TO.N,EM_BAT_PROTECTED*%
X76325000Y134000000D03*
%TD*%
D13*
%TO.P,Q11,1*%
%TO.N,ESP_VALID_RAW*%
X51562500Y51950000D03*
%TO.P,Q11,2*%
%TO.N,GND*%
X51562500Y50050000D03*
%TO.P,Q11,3*%
%TO.N,ENABLE_AND_MID*%
X53437500Y51000000D03*
%TD*%
D26*
%TO.P,Q103,1*%
%TO.N,EM_GATE3*%
X5050000Y9050000D03*
%TO.P,Q103,2*%
%TO.N,EM_GND*%
X5050000Y10950000D03*
%TO.P,Q103,3*%
%TO.N,EMIT3_LOW*%
X3175000Y10000000D03*
%TD*%
D16*
%TO.P,R33,1*%
%TO.N,ESP_POWER_NOT_READY*%
X43500000Y63675000D03*
%TO.P,R33,2*%
%TO.N,GND*%
X43500000Y65325000D03*
%TD*%
D20*
%TO.P,R17,1*%
%TO.N,ADC_5V_HELD*%
X56175000Y75500000D03*
%TO.P,R17,2*%
%TO.N,ISOLATE_H*%
X57825000Y75500000D03*
%TD*%
D21*
%TO.P,U19,1*%
%TO.N,ADC_READY_RAW*%
X47862500Y66950000D03*
%TO.P,U19,2*%
%TO.N,REF_READY_RAW*%
X47862500Y66000000D03*
%TO.P,U19,3*%
%TO.N,GND*%
X47862500Y65050000D03*
%TO.P,U19,4*%
%TO.N,ESP_POWER_NOT_READY*%
X50137500Y65050000D03*
%TO.P,U19,5*%
%TO.N,ESP_3V3*%
X50137500Y66950000D03*
%TD*%
D13*
%TO.P,Q17,1*%
%TO.N,DET_MASTER_GATE*%
X74062500Y115950000D03*
%TO.P,Q17,2*%
%TO.N,DET_BAT_PROTECTED*%
X74062500Y114050000D03*
%TO.P,Q17,3*%
%TO.N,SENSOR_BAT_SW*%
X75937500Y115000000D03*
%TD*%
D24*
%TO.P,R231,1*%
%TO.N,CLAMP_GND1*%
X33000000Y37587500D03*
%TO.P,R231,2*%
%TO.N,GND*%
X33000000Y39412500D03*
%TD*%
D27*
%TO.P,C12,1*%
%TO.N,ADC_5V_HELD*%
X7525000Y137000000D03*
%TO.P,C12,2*%
%TO.N,GND*%
X14475000Y137000000D03*
%TD*%
D18*
%TO.P,C22,1*%
%TO.N,ESP_SUP_CT*%
X56225000Y52000000D03*
%TO.P,C22,2*%
%TO.N,GND*%
X57775000Y52000000D03*
%TD*%
D19*
%TO.P,R65,1*%
%TO.N,ADC_DRDY_N*%
X73087500Y16500000D03*
%TO.P,R65,2*%
%TO.N,GND*%
X74912500Y16500000D03*
%TD*%
D28*
%TO.P,C27,1*%
%TO.N,EM_MASTER_GATE*%
X75000000Y135725000D03*
%TO.P,C27,2*%
%TO.N,EM_BAT_PROTECTED*%
X75000000Y137275000D03*
%TD*%
D19*
%TO.P,R213,1*%
%TO.N,SENSOR3*%
X20087500Y61000000D03*
%TO.P,R213,2*%
%TO.N,AMP_IN3*%
X21912500Y61000000D03*
%TD*%
D28*
%TO.P,C20,1*%
%TO.N,USB_SUP_CT*%
X44500000Y48225000D03*
%TO.P,C20,2*%
%TO.N,GND*%
X44500000Y49775000D03*
%TD*%
D21*
%TO.P,U12,1*%
%TO.N,USB_VALID_RAW*%
X46862500Y49950000D03*
%TO.P,U12,2*%
%TO.N,USB_PRESENT_5V*%
X46862500Y49000000D03*
%TO.P,U12,3*%
%TO.N,GND*%
X46862500Y48050000D03*
%TO.P,U12,4*%
%TO.N,USB_PRESENT_5V*%
X49137500Y48050000D03*
%TO.P,U12,5*%
%TO.N,USB_SUP_CT*%
X49137500Y49950000D03*
%TD*%
D20*
%TO.P,R19,1*%
%TO.N,MASTER_PERMIT*%
X60175000Y67000000D03*
%TO.P,R19,2*%
%TO.N,SPI_PERMIT*%
X61825000Y67000000D03*
%TD*%
D19*
%TO.P,R224,1*%
%TO.N,AMP_OUT4*%
X29087500Y96816000D03*
%TO.P,R224,2*%
%TO.N,AMP_SERIES4*%
X30912500Y96816000D03*
%TD*%
D20*
%TO.P,R16,1*%
%TO.N,ADC_COMPARATOR_GOOD*%
X55675000Y63000000D03*
%TO.P,R16,2*%
%TO.N,ADC_READY_RAW*%
X57325000Y63000000D03*
%TD*%
D13*
%TO.P,Q26,1*%
%TO.N,REF_READY_RAW*%
X43562500Y68950000D03*
%TO.P,Q26,2*%
%TO.N,GND*%
X43562500Y67050000D03*
%TO.P,Q26,3*%
%TO.N,REF_CLAMP_RELEASE*%
X45437500Y68000000D03*
%TD*%
D19*
%TO.P,R203,1*%
%TO.N,SENSOR3*%
X14087500Y61000000D03*
%TO.P,R203,2*%
%TO.N,GND*%
X15912500Y61000000D03*
%TD*%
%TO.P,R201,1*%
%TO.N,SENSOR1*%
X14087500Y36266000D03*
%TO.P,R201,2*%
%TO.N,GND*%
X15912500Y36266000D03*
%TD*%
D15*
%TO.P,C17,1*%
%TO.N,ADC_5V_HELD*%
X38500000Y119050000D03*
%TO.P,C17,2*%
%TO.N,GND*%
X38500000Y120950000D03*
%TD*%
D16*
%TO.P,R32,1*%
%TO.N,ADC_RAIL_SENSE*%
X51500000Y81175000D03*
%TO.P,R32,2*%
%TO.N,GND*%
X51500000Y82825000D03*
%TD*%
D20*
%TO.P,R22,1*%
%TO.N,DET_MASTER_GATE*%
X73175000Y118000000D03*
%TO.P,R22,2*%
%TO.N,DET_MASTER_SINK*%
X74825000Y118000000D03*
%TD*%
D25*
%TO.P,D10,1*%
%TO.N,OFF_BIAS_RAIL*%
X53350000Y82500000D03*
%TO.P,D10,2*%
%TO.N,DET_BAT_PROTECTED*%
X56650000Y82500000D03*
%TD*%
D15*
%TO.P,C18,1*%
%TO.N,ADC_IO_3V3*%
X45500000Y119050000D03*
%TO.P,C18,2*%
%TO.N,GND*%
X45500000Y120950000D03*
%TD*%
D29*
%TO.P,C16,1*%
%TO.N,ADC_5V_HELD*%
X53500000Y78775000D03*
%TO.P,C16,2*%
%TO.N,GND*%
X53500000Y77225000D03*
%TD*%
D13*
%TO.P,Q21,1*%
%TO.N,ADC_READY_RAW*%
X57062500Y110950000D03*
%TO.P,Q21,2*%
%TO.N,GND*%
X57062500Y109050000D03*
%TO.P,Q21,3*%
%TO.N,EM_MASTER_LED_K*%
X58937500Y110000000D03*
%TD*%
D19*
%TO.P,R111,1*%
%TO.N,ESP_EMIT1*%
X26587500Y21500000D03*
%TO.P,R111,2*%
%TO.N,GND*%
X28412500Y21500000D03*
%TD*%
D16*
%TO.P,R13,1*%
%TO.N,OFF_BIAS_RAIL*%
X45500000Y63175000D03*
%TO.P,R13,2*%
%TO.N,POWER_OFF_NODE*%
X45500000Y64825000D03*
%TD*%
D24*
%TO.P,R100,1*%
%TO.N,EM_ADJ*%
X69500000Y67087500D03*
%TO.P,R100,2*%
%TO.N,EM_GND*%
X69500000Y68912500D03*
%TD*%
D20*
%TO.P,R25,1*%
%TO.N,ADC_IO_3V3*%
X55175000Y105000000D03*
%TO.P,R25,2*%
%TO.N,EM_MASTER_LED_A*%
X56825000Y105000000D03*
%TD*%
D24*
%TO.P,R101,1*%
%TO.N,EM_TRIM_TOP*%
X69500000Y62087500D03*
%TO.P,R101,2*%
%TO.N,EM_ADJ*%
X69500000Y63912500D03*
%TD*%
D19*
%TO.P,R254,1*%
%TO.N,AMP_OUT4*%
X21587500Y94000000D03*
%TO.P,R254,2*%
%TO.N,AMP_FB4*%
X23412500Y94000000D03*
%TD*%
%TO.P,R53,1*%
%TO.N,SPI_PERMIT*%
X54587500Y11500000D03*
%TO.P,R53,2*%
%TO.N,ESP_OE_BASE*%
X56412500Y11500000D03*
%TD*%
D24*
%TO.P,R233,1*%
%TO.N,CLAMP_GND3*%
X33000000Y62087500D03*
%TO.P,R233,2*%
%TO.N,GND*%
X33000000Y63912500D03*
%TD*%
%TO.P,R61,1*%
%TO.N,ESP_SCLK*%
X45000000Y20087500D03*
%TO.P,R61,2*%
%TO.N,GND*%
X45000000Y21912500D03*
%TD*%
D15*
%TO.P,C30,1*%
%TO.N,ADC_5V_HELD*%
X33500000Y41316000D03*
%TO.P,C30,2*%
%TO.N,GND*%
X33500000Y43216000D03*
%TD*%
D30*
%TO.P,Q23,1*%
%TO.N,REF_NOT_READY*%
X56550000Y65062500D03*
%TO.P,Q23,2*%
%TO.N,GND*%
X58450000Y65062500D03*
%TO.P,Q23,3*%
%TO.N,ADC_READY_RAW*%
X57500000Y66937500D03*
%TD*%
D31*
%TO.P,U30,1*%
%TO.N,ISOLATE_H*%
X26725000Y39403500D03*
%TO.P,U30,2*%
%TO.N,ADC_AIN0*%
X27375000Y39403500D03*
%TO.P,U30,3*%
%TO.N,CLAMP_GND0*%
X28025000Y39403500D03*
%TO.P,U30,4*%
%TO.N,GND*%
X28675000Y39403500D03*
%TO.P,U30,5*%
X29325000Y39403500D03*
%TO.P,U30,6*%
%TO.N,CLAMP_GND1*%
X29975000Y39403500D03*
%TO.P,U30,7*%
%TO.N,ADC_AIN1*%
X30625000Y39403500D03*
%TO.P,U30,8*%
%TO.N,ISOLATE_H*%
X31275000Y39403500D03*
%TO.P,U30,9*%
X31275000Y45128500D03*
%TO.P,U30,10*%
%TO.N,ADC_AIN1*%
X30625000Y45128500D03*
%TO.P,U30,11*%
%TO.N,AMP_SERIES1*%
X29975000Y45128500D03*
%TO.P,U30,12*%
%TO.N,unconnected-(U30-NC-Pad12)*%
X29325000Y45128500D03*
%TO.P,U30,13*%
%TO.N,ADC_5V_HELD*%
X28675000Y45128500D03*
%TO.P,U30,14*%
%TO.N,AMP_SERIES0*%
X28025000Y45128500D03*
%TO.P,U30,15*%
%TO.N,ADC_AIN0*%
X27375000Y45128500D03*
%TO.P,U30,16*%
%TO.N,ISOLATE_H*%
X26725000Y45128500D03*
%TD*%
D32*
%TO.P,JDET3,1*%
%TO.N,SENSOR_BAT_SW*%
X4000000Y58322500D03*
%TO.P,JDET3,2*%
%TO.N,SENSOR2*%
X4000000Y63402500D03*
D33*
%TO.P,JDET3,3*%
%TO.N,GND*%
X9842000Y61243500D03*
%TD*%
D13*
%TO.P,Q10,1*%
%TO.N,USB_VALID_RAW*%
X47062500Y53950000D03*
%TO.P,Q10,2*%
%TO.N,ENABLE_AND_MID*%
X47062500Y52050000D03*
%TO.P,Q10,3*%
%TO.N,POWER_OFF_NODE*%
X48937500Y53000000D03*
%TD*%
D19*
%TO.P,R59,1*%
%TO.N,ESP_MISO_DRV*%
X69087500Y9500000D03*
%TO.P,R59,2*%
%TO.N,ESP_MISO*%
X70912500Y9500000D03*
%TD*%
%TO.P,R54,1*%
%TO.N,ESP_OE_BASE*%
X56087500Y9000000D03*
%TO.P,R54,2*%
%TO.N,GND*%
X57912500Y9000000D03*
%TD*%
D34*
%TO.P,J1,1*%
%TO.N,DET_BAT_RAW*%
X70200000Y88500000D03*
D35*
%TO.P,J1,2*%
%TO.N,GND*%
X76500000Y88500000D03*
D36*
%TO.P,J1,3*%
%TO.N,unconnected-(J1-SWITCH_NC-Pad3)*%
X73100000Y93300000D03*
%TD*%
D37*
%TO.P,J3,1*%
%TO.N,ESP_3V3*%
X74080000Y28000000D03*
D38*
%TO.P,J3,2*%
%TO.N,GND*%
X71540000Y28000000D03*
%TO.P,J3,3*%
%TO.N,unconnected-(J3-GPIO15-Pad3)*%
X69000000Y28000000D03*
%TO.P,J3,4*%
%TO.N,unconnected-(J3-GPIO2-Pad4)*%
X66460000Y28000000D03*
%TO.P,J3,5*%
%TO.N,ESP_DRDY*%
X63920000Y28000000D03*
%TO.P,J3,6*%
%TO.N,unconnected-(J3-GPIO16{slash}RX2-Pad6)*%
X61380000Y28000000D03*
%TO.P,J3,7*%
%TO.N,unconnected-(J3-GPIO17{slash}TX2-Pad7)*%
X58840000Y28000000D03*
%TO.P,J3,8*%
%TO.N,ESP_CS_N*%
X56300000Y28000000D03*
%TO.P,J3,9*%
%TO.N,ESP_SCLK*%
X53760000Y28000000D03*
%TO.P,J3,10*%
%TO.N,ESP_MISO*%
X51220000Y28000000D03*
%TO.P,J3,11*%
%TO.N,unconnected-(J3-GPIO21-Pad11)*%
X48680000Y28000000D03*
%TO.P,J3,12*%
%TO.N,unconnected-(J3-GPIO3{slash}RX0-Pad12)*%
X46140000Y28000000D03*
%TO.P,J3,13*%
%TO.N,unconnected-(J3-GPIO1{slash}TX0-Pad13)*%
X43600000Y28000000D03*
%TO.P,J3,14*%
%TO.N,unconnected-(J3-GPIO22-Pad14)*%
X41060000Y28000000D03*
%TO.P,J3,15*%
%TO.N,ESP_MOSI*%
X38520000Y28000000D03*
%TD*%
D18*
%TO.P,C25,1*%
%TO.N,ADC_IO_3V3*%
X57225000Y73500000D03*
%TO.P,C25,2*%
%TO.N,GND*%
X58775000Y73500000D03*
%TD*%
%TO.P,C26,1*%
%TO.N,DET_MASTER_GATE*%
X74225000Y112000000D03*
%TO.P,C26,2*%
%TO.N,DET_BAT_PROTECTED*%
X75775000Y112000000D03*
%TD*%
D13*
%TO.P,Q18,1*%
%TO.N,ADC_READY_RAW*%
X67062500Y120950000D03*
%TO.P,Q18,2*%
%TO.N,GND*%
X67062500Y119050000D03*
%TO.P,Q18,3*%
%TO.N,DET_MASTER_SINK*%
X68937500Y120000000D03*
%TD*%
D24*
%TO.P,R66,1*%
%TO.N,ADC_SCLK*%
X46000000Y16087500D03*
%TO.P,R66,2*%
%TO.N,GND*%
X46000000Y17912500D03*
%TD*%
D14*
%TO.P,C100,1*%
%TO.N,EM_BAT_SW*%
X73630000Y79500000D03*
%TO.P,C100,2*%
%TO.N,EM_GND*%
X79870000Y79500000D03*
%TD*%
D16*
%TO.P,R38,1*%
%TO.N,ADC_5V_HELD*%
X48500000Y75675000D03*
%TO.P,R38,2*%
%TO.N,REF_NOT_READY*%
X48500000Y77325000D03*
%TD*%
D37*
%TO.P,J4,1*%
%TO.N,USB_PRESENT_5V*%
X74080000Y2600000D03*
D38*
%TO.P,J4,2*%
%TO.N,GND*%
X71540000Y2600000D03*
%TO.P,J4,3*%
%TO.N,unconnected-(J4-GPIO13-Pad3)*%
X69000000Y2600000D03*
%TO.P,J4,4*%
%TO.N,unconnected-(J4-GPIO12-Pad4)*%
X66460000Y2600000D03*
%TO.P,J4,5*%
%TO.N,unconnected-(J4-GPIO14-Pad5)*%
X63920000Y2600000D03*
%TO.P,J4,6*%
%TO.N,unconnected-(J4-GPIO27-Pad6)*%
X61380000Y2600000D03*
%TO.P,J4,7*%
%TO.N,ESP_EMIT3*%
X58840000Y2600000D03*
%TO.P,J4,8*%
%TO.N,ESP_EMIT2*%
X56300000Y2600000D03*
%TO.P,J4,9*%
%TO.N,ESP_EMIT1*%
X53760000Y2600000D03*
%TO.P,J4,10*%
%TO.N,unconnected-(J4-GPIO32-Pad10)*%
X51220000Y2600000D03*
%TO.P,J4,11*%
%TO.N,ESP_POWER_NOT_READY*%
X48680000Y2600000D03*
%TO.P,J4,12*%
%TO.N,unconnected-(J4-GPIO34-Pad12)*%
X46140000Y2600000D03*
%TO.P,J4,13*%
%TO.N,unconnected-(J4-GPIO39{slash}VN-Pad13)*%
X43600000Y2600000D03*
%TO.P,J4,14*%
%TO.N,unconnected-(J4-GPIO36{slash}VP-Pad14)*%
X41060000Y2600000D03*
%TO.P,J4,15*%
%TO.N,unconnected-(J4-EN-Pad15)*%
X38520000Y2600000D03*
%TD*%
D19*
%TO.P,R110,1*%
%TO.N,ESP_EMIT1*%
X26780000Y23700000D03*
%TO.P,R110,2*%
%TO.N,EM_LED1_A*%
X28605000Y23700000D03*
%TD*%
%TO.P,R63,1*%
%TO.N,ESP_CS_N*%
X58087500Y17500000D03*
%TO.P,R63,2*%
%TO.N,ESP_3V3*%
X59912500Y17500000D03*
%TD*%
%TO.P,R69,1*%
%TO.N,ESP_MISO*%
X69087500Y7000000D03*
%TO.P,R69,2*%
%TO.N,GND*%
X70912500Y7000000D03*
%TD*%
D34*
%TO.P,J2,1*%
%TO.N,EM_BAT_RAW*%
X70200000Y40500000D03*
D35*
%TO.P,J2,2*%
%TO.N,EM_GND*%
X76500000Y40500000D03*
D36*
%TO.P,J2,3*%
%TO.N,unconnected-(J2-SWITCH_NC-Pad3)*%
X73100000Y45300000D03*
%TD*%
D19*
%TO.P,R214,1*%
%TO.N,SENSOR4*%
X20087500Y96816000D03*
%TO.P,R214,2*%
%TO.N,AMP_IN4*%
X21912500Y96816000D03*
%TD*%
%TO.P,R250,1*%
%TO.N,AMP_OUT0*%
X21087500Y45500000D03*
%TO.P,R250,2*%
%TO.N,AMP_FB0*%
X22912500Y45500000D03*
%TD*%
D26*
%TO.P,Q102,1*%
%TO.N,EM_GATE2*%
X13545000Y9200000D03*
%TO.P,Q102,2*%
%TO.N,EM_GND*%
X13545000Y11100000D03*
%TO.P,Q102,3*%
%TO.N,EMIT2_LOW*%
X11670000Y10150000D03*
%TD*%
D24*
%TO.P,R244,1*%
%TO.N,ADC_AIN4*%
X25000000Y90087500D03*
%TO.P,R244,2*%
%TO.N,GND*%
X25000000Y91912500D03*
%TD*%
D15*
%TO.P,C31,1*%
%TO.N,ADC_5V_HELD*%
X33500000Y66050000D03*
%TO.P,C31,2*%
%TO.N,GND*%
X33500000Y67950000D03*
%TD*%
D39*
%TO.P,C24,1*%
%TO.N,ADC_SUP_CT*%
X42525000Y71500000D03*
%TO.P,C24,2*%
%TO.N,GND*%
X45475000Y71500000D03*
%TD*%
D19*
%TO.P,R52,1*%
%TO.N,ADC_IO_3V3*%
X51754167Y17333333D03*
%TO.P,R52,2*%
%TO.N,ADC_IF_OE_N*%
X53579167Y17333333D03*
%TD*%
D40*
%TO.P,C52,1*%
%TO.N,ESP_3V3*%
X69050000Y16500000D03*
%TO.P,C52,2*%
%TO.N,GND*%
X70950000Y16500000D03*
%TD*%
D41*
%TO.P,U18,1*%
%TO.N,ADC_COMPARATOR_GOOD*%
X50162500Y78650000D03*
%TO.P,U18,2*%
%TO.N,GND*%
X50162500Y78000000D03*
%TO.P,U18,3*%
%TO.N,ADC_RAIL_SENSE*%
X50162500Y77350000D03*
%TO.P,U18,4*%
%TO.N,PWR_REF_4V096*%
X51837500Y77350000D03*
%TO.P,U18,5*%
%TO.N,ADC_5V_HELD*%
X51837500Y78650000D03*
%TD*%
D19*
%TO.P,R241,1*%
%TO.N,ADC_AIN1*%
X25087500Y47500000D03*
%TO.P,R241,2*%
%TO.N,GND*%
X26912500Y47500000D03*
%TD*%
D24*
%TO.P,R264,1*%
%TO.N,AMP_FB4*%
X18000000Y95587500D03*
%TO.P,R264,2*%
%TO.N,GND*%
X18000000Y97412500D03*
%TD*%
D20*
%TO.P,R35,1*%
%TO.N,ADC_READY_RAW*%
X55675000Y59000000D03*
%TO.P,R35,2*%
%TO.N,GND*%
X57325000Y59000000D03*
%TD*%
D24*
%TO.P,R121,1*%
%TO.N,ESP_EMIT3*%
X28000000Y10087500D03*
%TO.P,R121,2*%
%TO.N,GND*%
X28000000Y11912500D03*
%TD*%
D19*
%TO.P,R252,1*%
%TO.N,AMP_OUT2*%
X21587500Y64000000D03*
%TO.P,R252,2*%
%TO.N,AMP_FB2*%
X23412500Y64000000D03*
%TD*%
D24*
%TO.P,R261,1*%
%TO.N,AMP_FB1*%
X18000000Y35587500D03*
%TO.P,R261,2*%
%TO.N,GND*%
X18000000Y37412500D03*
%TD*%
D32*
%TO.P,JDET4,1*%
%TO.N,SENSOR_BAT_SW*%
X4000000Y70742500D03*
%TO.P,JDET4,2*%
%TO.N,SENSOR3*%
X4000000Y75822500D03*
D33*
%TO.P,JDET4,3*%
%TO.N,GND*%
X9842000Y73663500D03*
%TD*%
D42*
%TO.P,U51,1*%
%TO.N,ADC_IF_OE_N*%
X57100000Y21975000D03*
%TO.P,U51,2*%
%TO.N,ESP_CS_N*%
X57100000Y21325000D03*
%TO.P,U51,3*%
%TO.N,unconnected-(U51-2Y-Pad3)*%
X57100000Y20675000D03*
%TO.P,U51,4*%
%TO.N,GND*%
X57100000Y20025000D03*
%TO.P,U51,5*%
X60900000Y20025000D03*
%TO.P,U51,6*%
%TO.N,ADC_CS_DRV*%
X60900000Y20675000D03*
%TO.P,U51,7*%
%TO.N,ADC_IO_3V3*%
X60900000Y21325000D03*
%TO.P,U51,8*%
X60900000Y21975000D03*
%TD*%
D17*
%TO.P,R122,1*%
%TO.N,EM_GATE3_DRIVE*%
X9000000Y9000000D03*
%TO.P,R122,2*%
%TO.N,EM_GATE3*%
X7175000Y9000000D03*
%TD*%
D42*
%TO.P,U52,1*%
%TO.N,ESP_IF_OE_N*%
X68100000Y13975000D03*
%TO.P,U52,2*%
%TO.N,ADC_MISO*%
X68100000Y13325000D03*
%TO.P,U52,3*%
%TO.N,ESP_DRDY_DRV*%
X68100000Y12675000D03*
%TO.P,U52,4*%
%TO.N,GND*%
X68100000Y12025000D03*
%TO.P,U52,5*%
%TO.N,ADC_DRDY_N*%
X71900000Y12025000D03*
%TO.P,U52,6*%
%TO.N,ESP_MISO_DRV*%
X71900000Y12675000D03*
%TO.P,U52,7*%
%TO.N,ESP_IF_OE_N*%
X71900000Y13325000D03*
%TO.P,U52,8*%
%TO.N,ESP_3V3*%
X71900000Y13975000D03*
%TD*%
D19*
%TO.P,R205,1*%
%TO.N,SENSOR5*%
X14087500Y84816000D03*
%TO.P,R205,2*%
%TO.N,GND*%
X15912500Y84816000D03*
%TD*%
%TO.P,R223,1*%
%TO.N,AMP_OUT3*%
X29087500Y61000000D03*
%TO.P,R223,2*%
%TO.N,AMP_SERIES3*%
X30912500Y61000000D03*
%TD*%
D24*
%TO.P,R243,1*%
%TO.N,ADC_AIN3*%
X25000000Y70087500D03*
%TO.P,R243,2*%
%TO.N,GND*%
X25000000Y71912500D03*
%TD*%
%TO.P,R242,1*%
%TO.N,ADC_AIN2*%
X25000000Y66087500D03*
%TO.P,R242,2*%
%TO.N,GND*%
X25000000Y67912500D03*
%TD*%
D19*
%TO.P,R251,1*%
%TO.N,AMP_OUT1*%
X21087500Y39000000D03*
%TO.P,R251,2*%
%TO.N,AMP_FB1*%
X22912500Y39000000D03*
%TD*%
D18*
%TO.P,C21,1*%
%TO.N,ESP_3V3*%
X56225000Y45500000D03*
%TO.P,C21,2*%
%TO.N,GND*%
X57775000Y45500000D03*
%TD*%
D19*
%TO.P,R67,1*%
%TO.N,ADC_MOSI*%
X53087500Y15000000D03*
%TO.P,R67,2*%
%TO.N,GND*%
X54912500Y15000000D03*
%TD*%
D13*
%TO.P,Q50,1*%
%TO.N,ADC_OE_BASE*%
X49062500Y10950000D03*
%TO.P,Q50,2*%
%TO.N,GND*%
X49062500Y9050000D03*
%TO.P,Q50,3*%
%TO.N,ADC_IF_OE_N*%
X50937500Y10000000D03*
%TD*%
D42*
%TO.P,U50,1*%
%TO.N,ADC_IF_OE_N*%
X47100000Y21975000D03*
%TO.P,U50,2*%
%TO.N,ESP_SCLK*%
X47100000Y21325000D03*
%TO.P,U50,3*%
%TO.N,ADC_MOSI_DRV*%
X47100000Y20675000D03*
%TO.P,U50,4*%
%TO.N,GND*%
X47100000Y20025000D03*
%TO.P,U50,5*%
%TO.N,ESP_MOSI*%
X50900000Y20025000D03*
%TO.P,U50,6*%
%TO.N,ADC_SCLK_DRV*%
X50900000Y20675000D03*
%TO.P,U50,7*%
%TO.N,ADC_IF_OE_N*%
X50900000Y21325000D03*
%TO.P,U50,8*%
%TO.N,ADC_IO_3V3*%
X50900000Y21975000D03*
%TD*%
D19*
%TO.P,R265,1*%
%TO.N,AMP_FB5*%
X17087500Y82000000D03*
%TO.P,R265,2*%
%TO.N,GND*%
X18912500Y82000000D03*
%TD*%
D31*
%TO.P,U32,1*%
%TO.N,ISOLATE_H*%
X26725000Y87953500D03*
%TO.P,U32,2*%
%TO.N,ADC_AIN4*%
X27375000Y87953500D03*
%TO.P,U32,3*%
%TO.N,CLAMP_GND4*%
X28025000Y87953500D03*
%TO.P,U32,4*%
%TO.N,GND*%
X28675000Y87953500D03*
%TO.P,U32,5*%
X29325000Y87953500D03*
%TO.P,U32,6*%
%TO.N,CLAMP_GND5*%
X29975000Y87953500D03*
%TO.P,U32,7*%
%TO.N,ADC_AIN5*%
X30625000Y87953500D03*
%TO.P,U32,8*%
%TO.N,ISOLATE_H*%
X31275000Y87953500D03*
%TO.P,U32,9*%
X31275000Y93678500D03*
%TO.P,U32,10*%
%TO.N,ADC_AIN5*%
X30625000Y93678500D03*
%TO.P,U32,11*%
%TO.N,AMP_SERIES5*%
X29975000Y93678500D03*
%TO.P,U32,12*%
%TO.N,unconnected-(U32-NC-Pad12)*%
X29325000Y93678500D03*
%TO.P,U32,13*%
%TO.N,ADC_5V_HELD*%
X28675000Y93678500D03*
%TO.P,U32,14*%
%TO.N,AMP_SERIES4*%
X28025000Y93678500D03*
%TO.P,U32,15*%
%TO.N,ADC_AIN4*%
X27375000Y93678500D03*
%TO.P,U32,16*%
%TO.N,ISOLATE_H*%
X26725000Y93678500D03*
%TD*%
D18*
%TO.P,C19,1*%
%TO.N,USB_PRESENT_5V*%
X47225000Y45500000D03*
%TO.P,C19,2*%
%TO.N,GND*%
X48775000Y45500000D03*
%TD*%
D43*
%TO.P,U100,1*%
%TO.N,EM_BAT_SW*%
X73350000Y62350000D03*
%TO.P,U100,2*%
X75050000Y62350000D03*
%TO.P,U100,3*%
%TO.N,EM_GND*%
X76750000Y62350000D03*
D44*
X76750000Y71500000D03*
D43*
%TO.P,U100,4*%
%TO.N,EM_REG*%
X78450000Y62350000D03*
%TO.P,U100,5*%
%TO.N,EM_ADJ*%
X80150000Y62350000D03*
%TD*%
D24*
%TO.P,R260,1*%
%TO.N,AMP_FB0*%
X18000000Y47087500D03*
%TO.P,R260,2*%
%TO.N,GND*%
X18000000Y48912500D03*
%TD*%
D23*
%TO.P,C13,1*%
%TO.N,ADC_5V_HELD*%
X25025000Y128500000D03*
%TO.P,C13,2*%
%TO.N,GND*%
X27975000Y128500000D03*
%TD*%
D20*
%TO.P,R10,1*%
%TO.N,ADC_LDO_SET*%
X25475000Y119750000D03*
%TO.P,R10,2*%
%TO.N,ADC_LDO_SET_RETURN*%
X27125000Y119750000D03*
%TD*%
D19*
%TO.P,R56,1*%
%TO.N,ADC_SCLK_DRV*%
X48087500Y24500000D03*
%TO.P,R56,2*%
%TO.N,ADC_SCLK*%
X49912500Y24500000D03*
%TD*%
%TO.P,R120,1*%
%TO.N,ESP_EMIT3*%
X26587500Y14000000D03*
%TO.P,R120,2*%
%TO.N,EM_LED3_A*%
X28412500Y14000000D03*
%TD*%
D21*
%TO.P,U13,1*%
%TO.N,ESP_VALID_RAW*%
X55862500Y49950000D03*
%TO.P,U13,2*%
%TO.N,ESP_3V3*%
X55862500Y49000000D03*
%TO.P,U13,3*%
%TO.N,GND*%
X55862500Y48050000D03*
%TO.P,U13,4*%
%TO.N,ESP_3V3*%
X58137500Y48050000D03*
%TO.P,U13,5*%
%TO.N,ESP_SUP_CT*%
X58137500Y49950000D03*
%TD*%
D20*
%TO.P,R24,1*%
%TO.N,EM_MASTER_GATE*%
X78175000Y134000000D03*
%TO.P,R24,2*%
%TO.N,EM_OPTO_C*%
X79825000Y134000000D03*
%TD*%
%TO.P,R30,1*%
%TO.N,ADC_5V_HELD*%
X42175000Y74000000D03*
%TO.P,R30,2*%
%TO.N,PWR_REF_4V096*%
X43825000Y74000000D03*
%TD*%
D19*
%TO.P,R50,1*%
%TO.N,SPI_PERMIT*%
X49087500Y13000000D03*
%TO.P,R50,2*%
%TO.N,ADC_OE_BASE*%
X50912500Y13000000D03*
%TD*%
D45*
%TO.P,C34,1*%
%TO.N,ADC_5V_HELD*%
X21920000Y68000000D03*
%TO.P,C34,2*%
%TO.N,GND*%
X21920000Y66100000D03*
%TD*%
D24*
%TO.P,R64,1*%
%TO.N,ADC_MISO*%
X66000000Y14587500D03*
%TO.P,R64,2*%
%TO.N,GND*%
X66000000Y16412500D03*
%TD*%
%TO.P,R262,1*%
%TO.N,AMP_FB2*%
X18000000Y60087500D03*
%TO.P,R262,2*%
%TO.N,GND*%
X18000000Y61912500D03*
%TD*%
%TO.P,R255,1*%
%TO.N,AMP_OUT5*%
X18000000Y84087500D03*
%TO.P,R255,2*%
%TO.N,AMP_FB5*%
X18000000Y85912500D03*
%TD*%
%TO.P,R230,1*%
%TO.N,CLAMP_GND0*%
X33000000Y45087500D03*
%TO.P,R230,2*%
%TO.N,GND*%
X33000000Y46912500D03*
%TD*%
%TO.P,R240,1*%
%TO.N,ADC_AIN0*%
X25000000Y41587500D03*
%TO.P,R240,2*%
%TO.N,GND*%
X25000000Y43412500D03*
%TD*%
D31*
%TO.P,U31,1*%
%TO.N,ISOLATE_H*%
X26725000Y64137500D03*
%TO.P,U31,2*%
%TO.N,ADC_AIN2*%
X27375000Y64137500D03*
%TO.P,U31,3*%
%TO.N,CLAMP_GND2*%
X28025000Y64137500D03*
%TO.P,U31,4*%
%TO.N,GND*%
X28675000Y64137500D03*
%TO.P,U31,5*%
X29325000Y64137500D03*
%TO.P,U31,6*%
%TO.N,CLAMP_GND3*%
X29975000Y64137500D03*
%TO.P,U31,7*%
%TO.N,ADC_AIN3*%
X30625000Y64137500D03*
%TO.P,U31,8*%
%TO.N,ISOLATE_H*%
X31275000Y64137500D03*
%TO.P,U31,9*%
X31275000Y69862500D03*
%TO.P,U31,10*%
%TO.N,ADC_AIN3*%
X30625000Y69862500D03*
%TO.P,U31,11*%
%TO.N,AMP_SERIES3*%
X29975000Y69862500D03*
%TO.P,U31,12*%
%TO.N,unconnected-(U31-NC-Pad12)*%
X29325000Y69862500D03*
%TO.P,U31,13*%
%TO.N,ADC_5V_HELD*%
X28675000Y69862500D03*
%TO.P,U31,14*%
%TO.N,AMP_SERIES2*%
X28025000Y69862500D03*
%TO.P,U31,15*%
%TO.N,ADC_AIN2*%
X27375000Y69862500D03*
%TO.P,U31,16*%
%TO.N,ISOLATE_H*%
X26725000Y69862500D03*
%TD*%
D16*
%TO.P,R21,1*%
%TO.N,DET_MASTER_GATE*%
X77500000Y110675000D03*
%TO.P,R21,2*%
%TO.N,DET_BAT_PROTECTED*%
X77500000Y112325000D03*
%TD*%
D46*
%TO.P,U101,1*%
%TO.N,EM_LED1_A*%
X22685000Y24965000D03*
%TO.P,U101,2*%
%TO.N,EM_LED_RETURN*%
X20145000Y24965000D03*
%TO.P,U101,3*%
%TO.N,EM_LED2_A*%
X17605000Y24965000D03*
%TO.P,U101,4*%
%TO.N,EM_LED_RETURN*%
X15065000Y24965000D03*
%TO.P,U101,5*%
%TO.N,EM_LED3_A*%
X12525000Y24965000D03*
%TO.P,U101,6*%
%TO.N,EM_LED_RETURN*%
X9985000Y24965000D03*
%TO.P,U101,7*%
%TO.N,unconnected-(U101-A4{slash}NC-Pad7)*%
X7445000Y24965000D03*
%TO.P,U101,8*%
%TO.N,unconnected-(U101-K4{slash}NC-Pad8)*%
X4905000Y24965000D03*
%TO.P,U101,9*%
%TO.N,unconnected-(U101-E4{slash}NC-Pad9)*%
X4905000Y15435000D03*
%TO.P,U101,10*%
%TO.N,unconnected-(U101-C4{slash}NC-Pad10)*%
X7445000Y15435000D03*
%TO.P,U101,11*%
%TO.N,EM_GATE3_DRIVE*%
X9985000Y15435000D03*
%TO.P,U101,12*%
%TO.N,EM_BAT_SW*%
X12525000Y15435000D03*
%TO.P,U101,13*%
%TO.N,EM_GATE2_DRIVE*%
X15065000Y15435000D03*
%TO.P,U101,14*%
%TO.N,EM_BAT_SW*%
X17605000Y15435000D03*
%TO.P,U101,15*%
%TO.N,EM_GATE1_DRIVE*%
X20145000Y15435000D03*
%TO.P,U101,16*%
%TO.N,EM_BAT_SW*%
X22685000Y15435000D03*
%TD*%
D19*
%TO.P,R212,1*%
%TO.N,SENSOR2*%
X20087500Y73000000D03*
%TO.P,R212,2*%
%TO.N,AMP_IN2*%
X21912500Y73000000D03*
%TD*%
D24*
%TO.P,R60,1*%
%TO.N,ESP_DRDY_DRV*%
X74000000Y12587500D03*
%TO.P,R60,2*%
%TO.N,ESP_DRDY*%
X74000000Y14412500D03*
%TD*%
%TO.P,R51,1*%
%TO.N,ADC_OE_BASE*%
X46500000Y10587500D03*
%TO.P,R51,2*%
%TO.N,GND*%
X46500000Y12412500D03*
%TD*%
D22*
%TO.P,C38,1*%
%TO.N,ADC_LDO_SET*%
X28600000Y117725000D03*
%TO.P,C38,2*%
%TO.N,GND*%
X28600000Y114775000D03*
%TD*%
D19*
%TO.P,R221,1*%
%TO.N,AMP_OUT1*%
X29087500Y36266000D03*
%TO.P,R221,2*%
%TO.N,AMP_SERIES1*%
X30912500Y36266000D03*
%TD*%
%TO.P,R202,1*%
%TO.N,SENSOR2*%
X14087500Y73000000D03*
%TO.P,R202,2*%
%TO.N,GND*%
X15912500Y73000000D03*
%TD*%
D24*
%TO.P,R235,1*%
%TO.N,CLAMP_GND5*%
X33000000Y86087500D03*
%TO.P,R235,2*%
%TO.N,GND*%
X33000000Y87912500D03*
%TD*%
D47*
%TO.P,RV100,1*%
%TO.N,EM_REG*%
X76560000Y50500000D03*
%TO.P,RV100,2*%
X79100000Y50500000D03*
%TO.P,RV100,3*%
%TO.N,EM_TRIM_TOP*%
X81640000Y50500000D03*
%TD*%
D15*
%TO.P,C50,1*%
%TO.N,ADC_IO_3V3*%
X53000000Y22550000D03*
%TO.P,C50,2*%
%TO.N,GND*%
X53000000Y24450000D03*
%TD*%
D19*
%TO.P,R57,1*%
%TO.N,ADC_MOSI_DRV*%
X48087500Y17500000D03*
%TO.P,R57,2*%
%TO.N,ADC_MOSI*%
X49912500Y17500000D03*
%TD*%
D17*
%TO.P,R113,1*%
%TO.N,EM_GATE1*%
X25912500Y11500000D03*
%TO.P,R113,2*%
%TO.N,EM_GND*%
X24087500Y11500000D03*
%TD*%
D13*
%TO.P,Q12,1*%
%TO.N,POWER_OFF_NODE*%
X47062500Y57950000D03*
%TO.P,Q12,2*%
%TO.N,GND*%
X47062500Y56050000D03*
%TO.P,Q12,3*%
%TO.N,ADC_REG_EN*%
X48937500Y57000000D03*
%TD*%
D19*
%TO.P,R68,1*%
%TO.N,ADC_CS_N*%
X63087500Y20500000D03*
%TO.P,R68,2*%
%TO.N,ADC_IO_3V3*%
X64912500Y20500000D03*
%TD*%
D24*
%TO.P,R55,1*%
%TO.N,ESP_3V3*%
X65500000Y10587500D03*
%TO.P,R55,2*%
%TO.N,ESP_IF_OE_N*%
X65500000Y12412500D03*
%TD*%
D20*
%TO.P,R26,1*%
%TO.N,MASTER_PERMIT*%
X60175000Y65000000D03*
%TO.P,R26,2*%
%TO.N,EM_LED_ENABLE_GATE*%
X61825000Y65000000D03*
%TD*%
D32*
%TO.P,JDET1,1*%
%TO.N,SENSOR_BAT_SW*%
X4000000Y33497500D03*
%TO.P,JDET1,2*%
%TO.N,SENSOR0*%
X4000000Y38577500D03*
D33*
%TO.P,JDET1,3*%
%TO.N,GND*%
X9842000Y36418500D03*
%TD*%
D10*
%TO.P,U34,1*%
%TO.N,AMP_OUT2*%
X15595000Y64525000D03*
%TO.P,U34,2*%
%TO.N,AMP_FB2*%
X16865000Y64525000D03*
%TO.P,U34,3*%
%TO.N,AMP_IN2*%
X18135000Y64525000D03*
%TO.P,U34,4*%
%TO.N,GND*%
X19405000Y64525000D03*
%TO.P,U34,5*%
%TO.N,AMP_IN3*%
X19405000Y69475000D03*
%TO.P,U34,6*%
%TO.N,AMP_FB3*%
X18135000Y69475000D03*
%TO.P,U34,7*%
%TO.N,AMP_OUT3*%
X16865000Y69475000D03*
%TO.P,U34,8*%
%TO.N,ADC_5V_HELD*%
X15595000Y69475000D03*
%TD*%
D45*
%TO.P,C35,1*%
%TO.N,ADC_5V_HELD*%
X22285000Y91816000D03*
%TO.P,C35,2*%
%TO.N,GND*%
X22285000Y89916000D03*
%TD*%
D22*
%TO.P,C15,1*%
%TO.N,ADC_LDO_SET*%
X22000000Y117725000D03*
%TO.P,C15,2*%
%TO.N,GND*%
X22000000Y114775000D03*
%TD*%
D19*
%TO.P,R58,1*%
%TO.N,ADC_CS_DRV*%
X58087500Y24500000D03*
%TO.P,R58,2*%
%TO.N,ADC_CS_N*%
X59912500Y24500000D03*
%TD*%
D12*
%TO.P,C36,1*%
%TO.N,DET_BAT_PROTECTED*%
X17500000Y121525000D03*
%TO.P,C36,2*%
%TO.N,GND*%
X17500000Y124475000D03*
%TD*%
D38*
%TO.P,JEM3,1*%
%TO.N,EM_REG*%
X7045000Y5100000D03*
%TO.P,JEM3,2*%
%TO.N,EMIT3_LOW*%
X4505000Y5100000D03*
%TD*%
D48*
%TO.P,U16,1*%
%TO.N,EM_MASTER_LED_A*%
X63190000Y111270000D03*
%TO.P,U16,2*%
%TO.N,EM_MASTER_LED_K*%
X63190000Y108730000D03*
%TO.P,U16,3*%
%TO.N,EM_GND*%
X70810000Y108730000D03*
%TO.P,U16,4*%
%TO.N,EM_OPTO_C*%
X70810000Y111270000D03*
%TD*%
D32*
%TO.P,JDET6,1*%
%TO.N,SENSOR_BAT_SW*%
X4034100Y94920000D03*
%TO.P,JDET6,2*%
%TO.N,SENSOR5*%
X4034100Y100000000D03*
D33*
%TO.P,JDET6,3*%
%TO.N,GND*%
X9876100Y97841000D03*
%TD*%
D49*
%TO.P,D12,1*%
%TO.N,POWER_OFF_NODE*%
X44500000Y55350000D03*
%TO.P,D12,2*%
%TO.N,GND*%
X44500000Y58650000D03*
%TD*%
D13*
%TO.P,U17,1*%
%TO.N,PWR_REF_4V096*%
X42062500Y78950000D03*
%TO.P,U17,2*%
%TO.N,GND*%
X42062500Y77050000D03*
%TO.P,U17,3*%
X43937500Y78000000D03*
%TD*%
%TO.P,Q22,1*%
%TO.N,EM_LED_ENABLE_GATE*%
X51812500Y61450000D03*
%TO.P,Q22,2*%
%TO.N,GND*%
X51812500Y59550000D03*
%TO.P,Q22,3*%
%TO.N,EM_LED_RETURN*%
X53687500Y60500000D03*
%TD*%
%TO.P,Q13,1*%
%TO.N,POWER_OFF_NODE*%
X47562500Y61950000D03*
%TO.P,Q13,2*%
%TO.N,GND*%
X47562500Y60050000D03*
%TO.P,Q13,3*%
%TO.N,ADC_SUP_MR_N*%
X49437500Y61000000D03*
%TD*%
D21*
%TO.P,U14,1*%
%TO.N,REF_READY_RAW*%
X47862500Y70950000D03*
%TO.P,U14,2*%
%TO.N,PWR_REF_4V096*%
X47862500Y70000000D03*
%TO.P,U14,3*%
%TO.N,GND*%
X47862500Y69050000D03*
%TO.P,U14,4*%
%TO.N,ADC_SUP_MR_N*%
X50137500Y69050000D03*
%TO.P,U14,5*%
%TO.N,ADC_SUP_CT*%
X50137500Y70950000D03*
%TD*%
D37*
%TO.P,J5,1*%
%TO.N,ADC_5V_HELD*%
X41210000Y34025000D03*
D38*
%TO.P,J5,2*%
%TO.N,GND*%
X43750000Y34025000D03*
%TO.P,J5,3*%
%TO.N,ADC_SCLK*%
X46290000Y34025000D03*
%TO.P,J5,4*%
%TO.N,ADC_MOSI*%
X48830000Y34025000D03*
%TO.P,J5,5*%
%TO.N,ADC_MISO*%
X51370000Y34025000D03*
%TO.P,J5,6*%
%TO.N,ADC_DRDY_N*%
X53910000Y34025000D03*
%TO.P,J5,7*%
%TO.N,ADC_CS_N*%
X56450000Y34025000D03*
%TO.P,J5,8*%
%TO.N,ADC_PDWN_N*%
X58990000Y34025000D03*
%TD*%
D19*
%TO.P,R222,1*%
%TO.N,AMP_OUT2*%
X29087500Y73000000D03*
%TO.P,R222,2*%
%TO.N,AMP_SERIES2*%
X30912500Y73000000D03*
%TD*%
D13*
%TO.P,Q16,1*%
%TO.N,DET_RPOL_GATE*%
X74062500Y108950000D03*
%TO.P,Q16,2*%
%TO.N,DET_BAT_PROTECTED*%
X74062500Y107050000D03*
%TO.P,Q16,3*%
%TO.N,DET_BAT_FUSED*%
X75937500Y108000000D03*
%TD*%
D39*
%TO.P,C14,1*%
%TO.N,PWR_REF_4V096*%
X41525000Y82000000D03*
%TO.P,C14,2*%
%TO.N,GND*%
X44475000Y82000000D03*
%TD*%
D28*
%TO.P,C28,1*%
%TO.N,SENSOR_BAT_SW*%
X72000000Y114225000D03*
%TO.P,C28,2*%
%TO.N,GND*%
X72000000Y115775000D03*
%TD*%
D26*
%TO.P,Q101,1*%
%TO.N,EM_GATE1*%
X22050000Y9050000D03*
%TO.P,Q101,2*%
%TO.N,EM_GND*%
X22050000Y10950000D03*
%TO.P,Q101,3*%
%TO.N,EMIT1_LOW*%
X20175000Y10000000D03*
%TD*%
D15*
%TO.P,C51,1*%
%TO.N,ADC_IO_3V3*%
X63000000Y22550000D03*
%TO.P,C51,2*%
%TO.N,GND*%
X63000000Y24450000D03*
%TD*%
D16*
%TO.P,R18,1*%
%TO.N,MASTER_PERMIT*%
X61500000Y69175000D03*
%TO.P,R18,2*%
%TO.N,GND*%
X61500000Y70825000D03*
%TD*%
D20*
%TO.P,R12,1*%
%TO.N,ADC_5V_HELD*%
X30675000Y127000000D03*
%TO.P,R12,2*%
%TO.N,GND*%
X32325000Y127000000D03*
%TD*%
D32*
%TO.P,JDET5,1*%
%TO.N,SENSOR_BAT_SW*%
X4120000Y82542500D03*
%TO.P,JDET5,2*%
%TO.N,SENSOR4*%
X4120000Y87622500D03*
D33*
%TO.P,JDET5,3*%
%TO.N,GND*%
X9962000Y85463500D03*
%TD*%
D20*
%TO.P,R14,1*%
%TO.N,DET_BAT_PROTECTED*%
X52675000Y75000000D03*
%TO.P,R14,2*%
%TO.N,ADC_REG_EN*%
X54325000Y75000000D03*
%TD*%
D32*
%TO.P,JDET2,1*%
%TO.N,SENSOR_BAT_SW*%
X4000000Y45920000D03*
%TO.P,JDET2,2*%
%TO.N,SENSOR1*%
X4000000Y51000000D03*
D33*
%TO.P,JDET2,3*%
%TO.N,GND*%
X9842000Y48841000D03*
%TD*%
D20*
%TO.P,R27,1*%
%TO.N,EM_LED_ENABLE_GATE*%
X56175000Y61000000D03*
%TO.P,R27,2*%
%TO.N,GND*%
X57825000Y61000000D03*
%TD*%
D24*
%TO.P,R253,1*%
%TO.N,AMP_OUT3*%
X24000000Y60087500D03*
%TO.P,R253,2*%
%TO.N,AMP_FB3*%
X24000000Y61912500D03*
%TD*%
%TO.P,R245,1*%
%TO.N,ADC_AIN5*%
X25000000Y86087500D03*
%TO.P,R245,2*%
%TO.N,GND*%
X25000000Y87912500D03*
%TD*%
%TO.P,R70,1*%
%TO.N,ESP_DRDY*%
X76500000Y12587500D03*
%TO.P,R70,2*%
%TO.N,GND*%
X76500000Y14412500D03*
%TD*%
D19*
%TO.P,R225,1*%
%TO.N,AMP_OUT5*%
X29087500Y84816000D03*
%TO.P,R225,2*%
%TO.N,AMP_SERIES5*%
X30912500Y84816000D03*
%TD*%
%TO.P,R263,1*%
%TO.N,AMP_FB3*%
X20087500Y58500000D03*
%TO.P,R263,2*%
%TO.N,GND*%
X21912500Y58500000D03*
%TD*%
%TO.P,R116,1*%
%TO.N,ESP_EMIT2*%
X26587500Y16500000D03*
%TO.P,R116,2*%
%TO.N,GND*%
X28412500Y16500000D03*
%TD*%
D15*
%TO.P,C32,1*%
%TO.N,ADC_5V_HELD*%
X33500000Y89866000D03*
%TO.P,C32,2*%
%TO.N,GND*%
X33500000Y91766000D03*
%TD*%
D13*
%TO.P,Q19,1*%
%TO.N,EM_RPOL_GATE*%
X70062500Y136950000D03*
%TO.P,Q19,2*%
%TO.N,EM_BAT_PROTECTED*%
X70062500Y135050000D03*
%TO.P,Q19,3*%
%TO.N,EM_BAT_FUSED*%
X71937500Y136000000D03*
%TD*%
D20*
%TO.P,R20,1*%
%TO.N,ADC_IO_3V3*%
X55175000Y77500000D03*
%TO.P,R20,2*%
%TO.N,ADC_PDWN_N*%
X56825000Y77500000D03*
%TD*%
D16*
%TO.P,R15,1*%
%TO.N,PWR_REF_4V096*%
X45500000Y73675000D03*
%TO.P,R15,2*%
%TO.N,ADC_SUP_MR_N*%
X45500000Y75325000D03*
%TD*%
D15*
%TO.P,C103,1*%
%TO.N,EM_REG*%
X69500000Y55550000D03*
%TO.P,C103,2*%
%TO.N,EM_GND*%
X69500000Y57450000D03*
%TD*%
D19*
%TO.P,R62,1*%
%TO.N,ESP_MOSI*%
X53087500Y20500000D03*
%TO.P,R62,2*%
%TO.N,GND*%
X54912500Y20500000D03*
%TD*%
D20*
%TO.P,R11,1*%
%TO.N,ADC_LDO_ILIM*%
X16175000Y118500000D03*
%TO.P,R11,2*%
%TO.N,GND*%
X17825000Y118500000D03*
%TD*%
D30*
%TO.P,Q15,1*%
%TO.N,ISOLATE_H*%
X53050000Y71062500D03*
%TO.P,Q15,2*%
%TO.N,GND*%
X54950000Y71062500D03*
%TO.P,Q15,3*%
%TO.N,ADC_PDWN_N*%
X54000000Y72937500D03*
%TD*%
D19*
%TO.P,R204,1*%
%TO.N,SENSOR4*%
X14087500Y96816000D03*
%TO.P,R204,2*%
%TO.N,GND*%
X15912500Y96816000D03*
%TD*%
D30*
%TO.P,Q24,1*%
%TO.N,POWER_OFF_NODE*%
X51050000Y55562500D03*
%TO.P,Q24,2*%
%TO.N,GND*%
X52950000Y55562500D03*
%TO.P,Q24,3*%
%TO.N,ADC_READY_RAW*%
X52000000Y57437500D03*
%TD*%
D38*
%TO.P,JEM1,1*%
%TO.N,EM_REG*%
X24045000Y5100000D03*
%TO.P,JEM1,2*%
%TO.N,EMIT1_LOW*%
X21505000Y5100000D03*
%TD*%
%TO.P,JEM2,1*%
%TO.N,EM_REG*%
X15545000Y5100000D03*
%TO.P,JEM2,2*%
%TO.N,EMIT2_LOW*%
X13005000Y5100000D03*
%TD*%
D17*
%TO.P,R112,1*%
%TO.N,EM_GATE1_DRIVE*%
X26000000Y9000000D03*
%TO.P,R112,2*%
%TO.N,EM_GATE1*%
X24175000Y9000000D03*
%TD*%
D39*
%TO.P,C23,1*%
%TO.N,ADC_5V_HELD*%
X47525000Y73500000D03*
%TO.P,C23,2*%
%TO.N,REF_NOT_READY*%
X50475000Y73500000D03*
%TD*%
D16*
%TO.P,R34,1*%
%TO.N,REF_READY_RAW*%
X41500000Y67175000D03*
%TO.P,R34,2*%
%TO.N,GND*%
X41500000Y68825000D03*
%TD*%
D20*
%TO.P,R28,1*%
%TO.N,DET_RPOL_GATE*%
X74175000Y105000000D03*
%TO.P,R28,2*%
%TO.N,GND*%
X75825000Y105000000D03*
%TD*%
D19*
%TO.P,R215,1*%
%TO.N,SENSOR5*%
X20087500Y84816000D03*
%TO.P,R215,2*%
%TO.N,AMP_IN5*%
X21912500Y84816000D03*
%TD*%
D50*
%TO.P,U10,1*%
%TO.N,DET_BAT_PROTECTED*%
X20550000Y123500000D03*
%TO.P,U10,2*%
X20550000Y123000000D03*
%TO.P,U10,3*%
X20550000Y122500000D03*
%TO.P,U10,4*%
%TO.N,unconnected-(U10-VIOC{slash}NC-Pad4)*%
X20550000Y122000000D03*
%TO.P,U10,5*%
%TO.N,ADC_REG_EN*%
X20550000Y121500000D03*
%TO.P,U10,6*%
%TO.N,unconnected-(U10-PG{slash}NC-Pad6)*%
X20550000Y121000000D03*
%TO.P,U10,7*%
%TO.N,ADC_LDO_ILIM*%
X20550000Y120500000D03*
%TO.P,U10,8*%
%TO.N,DET_BAT_PROTECTED*%
X23450000Y120500000D03*
%TO.P,U10,9*%
%TO.N,ADC_LDO_SET*%
X23450000Y121000000D03*
%TO.P,U10,10*%
%TO.N,GND*%
X23450000Y121500000D03*
%TO.P,U10,11*%
X23450000Y122000000D03*
%TO.P,U10,12*%
%TO.N,ADC_5V_HELD*%
X23450000Y122500000D03*
%TO.P,U10,13*%
X23450000Y123000000D03*
%TO.P,U10,14*%
X23450000Y123500000D03*
D51*
%TO.P,U10,15*%
%TO.N,GND*%
X22000000Y122000000D03*
%TD*%
D37*
%TO.P,J6,1*%
%TO.N,ADC_AIN0*%
X41210000Y91175000D03*
D38*
%TO.P,J6,2*%
%TO.N,GND*%
X41210000Y88635000D03*
%TO.P,J6,3*%
%TO.N,ADC_AIN1*%
X43750000Y91175000D03*
%TO.P,J6,4*%
%TO.N,GND*%
X43750000Y88635000D03*
%TO.P,J6,5*%
%TO.N,ADC_AIN2*%
X46290000Y91175000D03*
%TO.P,J6,6*%
%TO.N,GND*%
X46290000Y88635000D03*
%TO.P,J6,7*%
%TO.N,ADC_AIN3*%
X48830000Y91175000D03*
%TO.P,J6,8*%
%TO.N,GND*%
X48830000Y88635000D03*
%TO.P,J6,9*%
%TO.N,ADC_AIN4*%
X51370000Y91175000D03*
%TO.P,J6,10*%
%TO.N,GND*%
X51370000Y88635000D03*
%TO.P,J6,11*%
%TO.N,ADC_AIN5*%
X53910000Y91175000D03*
%TO.P,J6,12*%
%TO.N,GND*%
X53910000Y88635000D03*
%TO.P,J6,13*%
X56450000Y91175000D03*
%TO.P,J6,14*%
X56450000Y88635000D03*
%TO.P,J6,15*%
X58990000Y91175000D03*
%TO.P,J6,16*%
X58990000Y88635000D03*
%TD*%
D24*
%TO.P,R232,1*%
%TO.N,CLAMP_GND2*%
X33000000Y70087500D03*
%TO.P,R232,2*%
%TO.N,GND*%
X33000000Y71912500D03*
%TD*%
D10*
%TO.P,U35,1*%
%TO.N,AMP_OUT4*%
X15880000Y88341000D03*
%TO.P,U35,2*%
%TO.N,AMP_FB4*%
X17150000Y88341000D03*
%TO.P,U35,3*%
%TO.N,AMP_IN4*%
X18420000Y88341000D03*
%TO.P,U35,4*%
%TO.N,GND*%
X19690000Y88341000D03*
%TO.P,U35,5*%
%TO.N,AMP_IN5*%
X19690000Y93291000D03*
%TO.P,U35,6*%
%TO.N,AMP_FB5*%
X18420000Y93291000D03*
%TO.P,U35,7*%
%TO.N,AMP_OUT5*%
X17150000Y93291000D03*
%TO.P,U35,8*%
%TO.N,ADC_5V_HELD*%
X15880000Y93291000D03*
%TD*%
D19*
%TO.P,R115,1*%
%TO.N,ESP_EMIT2*%
X26587500Y19000000D03*
%TO.P,R115,2*%
%TO.N,EM_LED2_A*%
X28412500Y19000000D03*
%TD*%
D13*
%TO.P,Q14,1*%
%TO.N,ADC_READY_RAW*%
X52562500Y68950000D03*
%TO.P,Q14,2*%
%TO.N,GND*%
X52562500Y67050000D03*
%TO.P,Q14,3*%
%TO.N,ISOLATE_H*%
X54437500Y68000000D03*
%TD*%
D20*
%TO.P,R29,1*%
%TO.N,EM_RPOL_GATE*%
X70175000Y139000000D03*
%TO.P,R29,2*%
%TO.N,EM_GND*%
X71825000Y139000000D03*
%TD*%
D45*
%TO.P,C33,1*%
%TO.N,ADC_5V_HELD*%
X22190000Y43216000D03*
%TO.P,C33,2*%
%TO.N,GND*%
X22190000Y41316000D03*
%TD*%
D11*
%TO.P,F2,1*%
%TO.N,EM_BAT_RAW*%
X75600000Y131000000D03*
%TO.P,F2,2*%
%TO.N,EM_BAT_FUSED*%
X78400000Y131000000D03*
%TD*%
D21*
%TO.P,U15,1*%
%TO.N,unconnected-(U15-NC-Pad1)*%
X56862500Y70950000D03*
%TO.P,U15,2*%
%TO.N,ISOLATE_H*%
X56862500Y70000000D03*
%TO.P,U15,3*%
%TO.N,GND*%
X56862500Y69050000D03*
%TO.P,U15,4*%
%TO.N,MASTER_PERMIT*%
X59137500Y69050000D03*
%TO.P,U15,5*%
%TO.N,ADC_IO_3V3*%
X59137500Y70950000D03*
%TD*%
D52*
%TO.N,AMP_OUT0*%
X23408500Y44248300D03*
X15198800Y42496600D03*
X27112300Y48705700D03*
%TO.N,AMP_IN0*%
X22935200Y47948500D03*
X17825000Y41916100D03*
%TO.N,GND*%
X26500000Y126675000D03*
X72000000Y119241700D03*
X67062500Y119876800D03*
X25300000Y112675000D03*
X15356700Y66013000D03*
X17500000Y125675000D03*
X22000000Y119550000D03*
X20600000Y90500000D03*
X48345200Y68011600D03*
X55563200Y72151000D03*
X43900000Y22750000D03*
X17362500Y62987700D03*
X31775000Y124000000D03*
X16650000Y95450000D03*
X70184400Y20944600D03*
X26775000Y128500000D03*
X22000000Y124450000D03*
X67796400Y16656600D03*
X30825000Y121820000D03*
X14475000Y135050000D03*
X53801400Y66611100D03*
X29350000Y11912500D03*
X35207600Y121767500D03*
X54912500Y21707600D03*
X28600000Y112675000D03*
X52500000Y76500000D03*
X51746000Y24628500D03*
X22000000Y112675000D03*
X58775000Y72424000D03*
X33000000Y78373900D03*
%TO.N,AMP_FB1*%
X19222900Y37517100D03*
X16770900Y37823000D03*
X23040900Y37797300D03*
%TO.N,ADC_5V_HELD*%
X28565000Y92416600D03*
X61650000Y81082600D03*
X27308900Y67905400D03*
X23399200Y88929100D03*
X53694700Y80211900D03*
X22193800Y75464200D03*
X23424300Y43216000D03*
X15680700Y46569000D03*
X28711100Y41418400D03*
X55818600Y74482800D03*
X16319800Y91344200D03*
X47525000Y74931800D03*
X32231600Y82586300D03*
X43754700Y72491100D03*
X32227400Y41316000D03*
X21345300Y90966100D03*
%TO.N,EM_MASTER_GATE*%
X77200000Y132500000D03*
X77062500Y139100000D03*
%TO.N,EM_BAT_SW*%
X17604900Y17549700D03*
X68367600Y61109600D03*
X78937500Y135177500D03*
%TO.N,DET_BAT_PROTECTED*%
X10303800Y117413900D03*
X51954500Y74244700D03*
X55788000Y78677500D03*
X77500000Y114353600D03*
X23650000Y117024700D03*
X73565900Y106142400D03*
%TO.N,EM_GND*%
X70810000Y107230000D03*
X82950000Y68210000D03*
X82950000Y70372000D03*
X82950000Y74790000D03*
X70550000Y70372000D03*
X81286000Y66000000D03*
X12818400Y1894600D03*
X23256000Y13296900D03*
X81286000Y77000000D03*
X78070000Y79500000D03*
X76750000Y77000000D03*
X69500000Y81150000D03*
X82950000Y72628000D03*
X79018000Y77000000D03*
X71825000Y140200000D03*
%TO.N,EM_REG*%
X60778000Y51820600D03*
X58743900Y54721100D03*
%TO.N,ESP_3V3*%
X61725700Y56073400D03*
X70687500Y15189100D03*
X51254300Y62895600D03*
%TO.N,SENSOR0*%
X14177800Y43769400D03*
%TO.N,REF_NOT_READY*%
X55733700Y66838700D03*
X51084600Y71647400D03*
X51671800Y73100600D03*
X49536400Y75941200D03*
%TO.N,REF_CLAMP_RELEASE*%
X45506200Y79168000D03*
X44848500Y69010900D03*
%TO.N,ADC_IO_3V3*%
X51995700Y20958200D03*
X51187500Y22689900D03*
%TO.N,CLAMP_GND4*%
X31943600Y91137500D03*
X28232000Y90931800D03*
%TO.N,OFF_BIAS_RAIL*%
X52646300Y84486700D03*
X46482100Y62761000D03*
%TO.N,ESP_POWER_NOT_READY*%
X43500000Y59631000D03*
%TO.N,ISOLATE_H*%
X31275000Y71133900D03*
X34104800Y64768100D03*
X27970400Y46692500D03*
X31275000Y42565500D03*
X54437500Y69157500D03*
X26725000Y86139600D03*
X30977100Y89402300D03*
%TO.N,ADC_READY_RAW*%
X51899000Y66225300D03*
X63883300Y72054900D03*
X54713000Y64109200D03*
X55049400Y60400400D03*
%TO.N,REF_READY_RAW*%
X45390100Y69825400D03*
X49048200Y70147400D03*
%TO.N,SENSOR_BAT_SW*%
X75937500Y114136100D03*
X71009000Y113987100D03*
%TO.N,ADC_DRDY_N*%
X72853500Y17719400D03*
%TO.N,SENSOR3*%
X14087500Y65735000D03*
%TO.N,AMP_IN3*%
X22548200Y62161700D03*
X19405000Y70960100D03*
%TO.N,USB_SUP_CT*%
X45506400Y47806200D03*
X49137500Y49142200D03*
%TO.N,USB_PRESENT_5V*%
X63969800Y45715400D03*
X49137500Y46863600D03*
%TO.N,SPI_PERMIT*%
X62369900Y42627500D03*
X48060300Y12696700D03*
X54051700Y10269400D03*
%TO.N,AMP_OUT4*%
X15866500Y90289300D03*
X20550400Y94420100D03*
%TO.N,ADC_COMPARATOR_GOOD*%
X49153100Y79047700D03*
X55449100Y64646200D03*
%TO.N,DET_MASTER_SINK*%
X75736300Y118000000D03*
X68817800Y119175300D03*
%TO.N,ESP_EMIT1*%
X28109700Y20272800D03*
%TO.N,POWER_OFF_NODE*%
X44500000Y56718600D03*
X47562500Y60882700D03*
%TO.N,EM_ADJ*%
X79517300Y65132400D03*
X69500000Y65833300D03*
%TO.N,EM_MASTER_LED_A*%
X64712200Y111054600D03*
X56825000Y105986400D03*
%TO.N,EM_TRIM_TOP*%
X70720500Y61725200D03*
%TO.N,ADC_AIN0*%
X25976300Y42444800D03*
X27375000Y42867900D03*
%TO.N,CLAMP_GND0*%
X31998800Y43423700D03*
X28009400Y42153200D03*
%TO.N,ADC_AIN1*%
X28518100Y51554400D03*
X36166600Y69246800D03*
%TO.N,AMP_SERIES1*%
X29099500Y38140000D03*
X29975000Y40912900D03*
%TO.N,SENSOR2*%
X13068400Y73031500D03*
X19063100Y72500900D03*
%TO.N,ESP_MISO*%
X67841000Y11271300D03*
%TO.N,ESP_DRDY*%
X75250000Y12826100D03*
%TO.N,ESP_CS_N*%
X56281800Y23812000D03*
%TO.N,ESP_MOSI*%
X45701700Y23621400D03*
X49852600Y19625000D03*
%TO.N,ADC_SCLK*%
X48902700Y21096800D03*
X43800000Y23750000D03*
X49912500Y25741600D03*
%TO.N,ESP_EMIT3*%
X28000000Y4750700D03*
X28000000Y3353400D03*
X25915800Y12750000D03*
%TO.N,ESP_EMIT2*%
X27392800Y17520700D03*
%TO.N,AMP_IN4*%
X22937700Y96815900D03*
X18420000Y89850600D03*
%TO.N,ADC_AIN4*%
X27473100Y91988100D03*
%TO.N,ADC_SUP_CT*%
X41502600Y72522400D03*
X50137500Y71763700D03*
%TO.N,AMP_OUT2*%
X27725500Y72500900D03*
X23175900Y65588400D03*
X16013300Y67988900D03*
%TO.N,ADC_MISO*%
X67416700Y14691300D03*
%TO.N,SENSOR5*%
X14087500Y89946600D03*
X20087500Y83589500D03*
%TO.N,AMP_OUT3*%
X16865000Y66051300D03*
X22758300Y59876600D03*
%TO.N,AMP_SERIES3*%
X31959900Y61314800D03*
X29975000Y71109400D03*
%TO.N,ADC_AIN3*%
X31454600Y62873500D03*
X28843600Y66730000D03*
X26027700Y85255000D03*
%TO.N,ADC_AIN2*%
X27375000Y79945000D03*
X27138400Y65921500D03*
%TO.N,ADC_MOSI*%
X49912500Y18739000D03*
%TO.N,ADC_SCLK_DRV*%
X48087500Y23284300D03*
X49833900Y20951000D03*
%TO.N,ADC_AIN5*%
X30625000Y94918300D03*
X30626200Y91211000D03*
X25972400Y87091000D03*
%TO.N,AMP_SERIES5*%
X30192800Y86175900D03*
X29975000Y90199400D03*
%TO.N,EM_OPTO_C*%
X70134000Y117656100D03*
X78447800Y123250700D03*
%TO.N,AMP_OUT5*%
X19350000Y94750000D03*
X28058400Y84700500D03*
X19700000Y90600000D03*
X20500000Y92500000D03*
X19226300Y85764300D03*
%TO.N,EM_LED_RETURN*%
X20145000Y23444500D03*
X51528200Y54380200D03*
%TO.N,ADC_REG_EN*%
X35206600Y72619500D03*
X48893500Y56147400D03*
X37715300Y117425500D03*
X51978400Y69825900D03*
X19678600Y121163200D03*
%TO.N,ADC_CS_N*%
X61352000Y22688100D03*
X54475900Y30603900D03*
%TO.N,EM_LED_ENABLE_GATE*%
X61051600Y65773400D03*
X56175000Y60000000D03*
%TO.N,AMP_FB3*%
X24939700Y63254800D03*
X20087500Y57127800D03*
X19756300Y67829700D03*
%TO.N,ADC_SUP_MR_N*%
X49323800Y63135500D03*
X44415100Y78977200D03*
X51284100Y68602800D03*
%TO.N,ADC_PDWN_N*%
X56825000Y81069700D03*
X39772800Y69886100D03*
X42948400Y39074600D03*
X53869800Y70209500D03*
%TO.N,EM_BAT_FUSED*%
X71937500Y137200000D03*
X78400000Y129600000D03*
%TD*%
%TO.N,AMP_OUT0*%
D53*
X22339200Y44248300D02*
X23408500Y44248300D01*
X28647800Y48705700D02*
X27112300Y48705700D01*
X15198800Y39877200D02*
X15285000Y39791000D01*
X21087500Y45500000D02*
X22339200Y44248300D01*
X29087500Y48266000D02*
X28647800Y48705700D01*
X15198800Y42496600D02*
X15198800Y39877200D01*
%TO.N,AMP_FB0*%
X21325000Y47087500D02*
X22912500Y45500000D01*
X15918500Y40427500D02*
X16555000Y39791000D01*
X18000000Y47087500D02*
X17222500Y47087500D01*
X18000000Y47087500D02*
X21325000Y47087500D01*
X17222500Y47087500D02*
X15918500Y45783500D01*
X15918500Y45783500D02*
X15918500Y40427500D01*
%TO.N,AMP_IN0*%
X17825000Y39791000D02*
X17825000Y41916100D01*
X22617700Y48266000D02*
X22935200Y47948500D01*
X21912500Y48266000D02*
X22617700Y48266000D01*
%TO.N,GND*%
D54*
X32975000Y126350000D02*
X32975000Y124000000D01*
X28600000Y114775000D02*
X30825000Y117000000D01*
X32383500Y65318900D02*
X32383500Y66833500D01*
X30825000Y117000000D02*
X30825000Y120000000D01*
X25850000Y46437500D02*
X25000000Y46437500D01*
X70912500Y7000000D02*
X69797200Y5884700D01*
X9842000Y71930400D02*
X9842000Y61243500D01*
X55500000Y10752000D02*
X55500000Y14711500D01*
X27384500Y83989400D02*
X33000000Y78373900D01*
X9842000Y73663500D02*
X9842000Y71930400D01*
X14907100Y66013000D02*
X15356700Y66013000D01*
X14907100Y66013000D02*
X14907100Y62005400D01*
X18000000Y97412500D02*
X17403500Y96816000D01*
X28675000Y39403500D02*
X28675000Y38665000D01*
X29325000Y87953500D02*
X28675000Y87953500D01*
X76500000Y88500000D02*
X76500000Y90951700D01*
X49062500Y9050000D02*
X53798000Y9050000D01*
X24546100Y46437500D02*
X23586900Y47396700D01*
X20772500Y82000000D02*
X18912500Y82000000D01*
X22777800Y88576500D02*
X22777800Y84005300D01*
X33500000Y43216000D02*
X34065000Y43781000D01*
X47280100Y69076700D02*
X47286500Y69076700D01*
X57912500Y9000000D02*
X60012500Y9000000D01*
X59000000Y20025000D02*
X59000000Y16829800D01*
X71084600Y16634600D02*
X70950000Y16500000D01*
X52725000Y78000000D02*
X53500000Y77225000D01*
X52467800Y62192800D02*
X51107200Y62192800D01*
X30000000Y60267300D02*
X25591100Y55858400D01*
X44475000Y87910000D02*
X44475000Y82000000D01*
X48775000Y45500000D02*
X50731600Y47456600D01*
X73003300Y18529300D02*
X72599700Y18529300D01*
X14907100Y62005400D02*
X15912500Y61000000D01*
X57325000Y52450000D02*
X57775000Y52000000D01*
X60012500Y9000000D02*
X60062500Y9050000D01*
X23000000Y89733400D02*
X22686300Y89419700D01*
D55*
X26500000Y125475000D02*
X26500000Y126675000D01*
D54*
X25000000Y71912500D02*
X23890900Y70803400D01*
X75825000Y105000000D02*
X75825000Y104165900D01*
X14842900Y66077200D02*
X14907100Y66013000D01*
X28600000Y114775000D02*
X28600000Y112675000D01*
X75825000Y91626700D02*
X76500000Y90951700D01*
X70151200Y114349800D02*
X71576400Y115775000D01*
X17825000Y105789900D02*
X17825000Y118500000D01*
X57825000Y61000000D02*
X57825000Y59500000D01*
X9842000Y49328800D02*
X9842000Y61243500D01*
X62133600Y18791400D02*
X68031200Y18791400D01*
X34065000Y43781000D02*
X34065000Y45847500D01*
X43750000Y41653400D02*
X46731100Y44634500D01*
X46000000Y17912500D02*
X44946800Y17912500D01*
X25000000Y88249900D02*
X23516500Y89733400D01*
X53000000Y24450000D02*
X51924500Y24450000D01*
X43535400Y50739600D02*
X44500000Y49775000D01*
X23516500Y89733400D02*
X23000000Y89733400D01*
X71540000Y28000000D02*
X57775000Y41765000D01*
X51500000Y88505000D02*
X51500000Y82825000D01*
X53887500Y55562500D02*
X57325000Y59000000D01*
X29705300Y65318900D02*
X29325000Y64938600D01*
X27975000Y128500000D02*
X27975000Y126950000D01*
D53*
X23450000Y121500000D02*
X22000000Y121500000D01*
D54*
X9842000Y36418500D02*
X9842000Y48841000D01*
X25300000Y114775000D02*
X28600000Y114775000D01*
X59837300Y70176900D02*
X58791300Y70176900D01*
X72231000Y112093500D02*
X71319100Y113005400D01*
X26912500Y47500000D02*
X25850000Y46437500D01*
X60900000Y20025000D02*
X59000000Y20025000D01*
X55108800Y76309800D02*
X54094700Y77323900D01*
X75825000Y104165900D02*
X73626800Y104165900D01*
X57912500Y9000000D02*
X56828700Y7916200D01*
X46543800Y47731300D02*
X46862500Y48050000D01*
X55411200Y44990800D02*
X55742200Y44659800D01*
X22190000Y41316000D02*
X23680800Y41316000D01*
X67796400Y16656600D02*
X66244100Y16656600D01*
X23586900Y48218400D02*
X20769000Y51036300D01*
X55108800Y72151000D02*
X55563200Y72151000D01*
X25300000Y114775000D02*
X25300000Y112675000D01*
X45500000Y120950000D02*
X44846700Y121603300D01*
X57825000Y61000000D02*
X58450000Y61625000D01*
X29307300Y20605200D02*
X29307300Y16500000D01*
X55588000Y7916200D02*
X54126100Y9378100D01*
X22285000Y89916000D02*
X21265000Y89916000D01*
X18000000Y61912500D02*
X17362500Y62550000D01*
X33000000Y63912500D02*
X32383500Y64529000D01*
X71540000Y28000000D02*
X67990000Y24450000D01*
X54912500Y20500000D02*
X54912500Y21707600D01*
X34089400Y94323100D02*
X34089400Y92355400D01*
X43708800Y78228700D02*
X43937500Y78000000D01*
X54094700Y77323900D02*
X54346400Y77575600D01*
D55*
X27975000Y128500000D02*
X26775000Y128500000D01*
D54*
X58775000Y73500000D02*
X60916600Y71358400D01*
D55*
X17500000Y124475000D02*
X17500000Y125675000D01*
D54*
X20446400Y51358900D02*
X18000000Y48912500D01*
X22000000Y122000000D02*
X22000000Y124001700D01*
X30825000Y128500000D02*
X32325000Y127000000D01*
X38500000Y120950000D02*
X36025100Y120950000D01*
X43750000Y88635000D02*
X44475000Y87910000D01*
D56*
X22000000Y122000000D02*
X22000000Y119550000D01*
D54*
X21265000Y89916000D02*
X19690000Y88341000D01*
X17500000Y124475000D02*
X21526700Y124475000D01*
X75825000Y104165900D02*
X75825000Y91626700D01*
X51562500Y47456600D02*
X51562500Y50050000D01*
X20281700Y116493300D02*
X20281700Y118280000D01*
X47286500Y69076700D02*
X47286500Y69070300D01*
X29325000Y64938600D02*
X29325000Y64137500D01*
X17403500Y96816000D02*
X15912500Y96816000D01*
X51107200Y62192800D02*
X50719700Y61805300D01*
X45908000Y58577400D02*
X44572600Y58577400D01*
X25000000Y46437500D02*
X24546100Y46437500D01*
X32383500Y64529000D02*
X32383500Y65318900D01*
X44500000Y49775000D02*
X46543800Y47731300D01*
X26463700Y38285500D02*
X23680800Y41068400D01*
X28675000Y87953500D02*
X28675000Y86259900D01*
X72599700Y18529300D02*
X71125100Y17054700D01*
X69797200Y5884700D02*
X68605900Y5884700D01*
X55108800Y71221300D02*
X55108800Y72151000D01*
X28000000Y11912500D02*
X29350000Y11912500D01*
X47062500Y56050000D02*
X45908000Y57204500D01*
X23890900Y70803400D02*
X23890900Y67912500D01*
X25000000Y67912500D02*
X23890900Y67912500D01*
X47100000Y20025000D02*
X47100000Y19012500D01*
X39457800Y120921800D02*
X38528200Y120921800D01*
X12402600Y71930400D02*
X12402600Y81306100D01*
X67062500Y119050000D02*
X67062500Y119876800D01*
X60900000Y20025000D02*
X62133600Y18791400D01*
X33000000Y48449500D02*
X25591100Y55858400D01*
D55*
X32975000Y124000000D02*
X31775000Y124000000D01*
D54*
X20281700Y118280000D02*
X22000000Y119998300D01*
X55862500Y48050000D02*
X55411200Y47598700D01*
X29307300Y13219800D02*
X28000000Y11912500D01*
X45908000Y58577400D02*
X47380600Y60050000D01*
X43012500Y78000000D02*
X42062500Y77050000D01*
X18000000Y48912500D02*
X16559000Y48912500D01*
X14849700Y49328800D02*
X15912500Y48266000D01*
X56862500Y68925000D02*
X54987500Y67050000D01*
X45416900Y12412500D02*
X46500000Y12412500D01*
X67184500Y12025000D02*
X68100000Y12025000D01*
X47286500Y69070300D02*
X47292900Y69070300D01*
X35207600Y121767500D02*
X32975100Y124000000D01*
X29325000Y64137500D02*
X28675000Y64137500D01*
X28412500Y21500000D02*
X29307300Y20605200D01*
X47260900Y69095900D02*
X47267300Y69095900D01*
X57825000Y59500000D02*
X57325000Y59000000D01*
X32383500Y66833500D02*
X33500000Y67950000D01*
X51924500Y24450000D02*
X51746000Y24628500D01*
X47909500Y44634500D02*
X48775000Y45500000D01*
X39457800Y120921800D02*
X40379600Y120000000D01*
X67184500Y7306100D02*
X67184500Y9050000D01*
X54987500Y67050000D02*
X53775000Y67050000D01*
X23586900Y47396700D02*
X23586900Y48218400D01*
X21920000Y66100000D02*
X20980000Y66100000D01*
X45416900Y10084200D02*
X46451100Y9050000D01*
X58990000Y88635000D02*
X58990000Y91175000D01*
X71319100Y113005400D02*
X70719100Y113005400D01*
X14842900Y71930400D02*
X14842900Y66077200D01*
X55108800Y72151000D02*
X55108800Y76309800D01*
X43750000Y34025000D02*
X42396000Y32671000D01*
X33000000Y46912500D02*
X33000000Y48449500D01*
X67062500Y119050000D02*
X65652800Y117640300D01*
X58791300Y70176900D02*
X57263500Y68649100D01*
X43535400Y58650000D02*
X44500000Y58650000D01*
X45439600Y67050000D02*
X47439600Y65050000D01*
X38528200Y120921800D02*
X38500000Y120950000D01*
X22686300Y88668000D02*
X22777800Y88576500D01*
X25000000Y43412500D02*
X25000000Y46437500D01*
X54346400Y80481800D02*
X53964600Y80863600D01*
X16559000Y48912500D02*
X15912500Y48266000D01*
X43275000Y67050000D02*
X43500000Y67050000D01*
X18912500Y76000000D02*
X18912500Y82000000D01*
X59000000Y20025000D02*
X57100000Y20025000D01*
X27975000Y126950000D02*
X26500000Y125475000D01*
X50162500Y78000000D02*
X52725000Y78000000D01*
X40379600Y120000000D02*
X40862500Y120000000D01*
D56*
X22000000Y122000000D02*
X22000000Y124450000D01*
D54*
X16547500Y125427500D02*
X17500000Y124475000D01*
X14824100Y37354400D02*
X10777900Y37354400D01*
X9876100Y97841000D02*
X17825000Y105789900D01*
X47254500Y69102300D02*
X47260900Y69102300D01*
X76500000Y14412500D02*
X76500000Y14912500D01*
X53598900Y77323900D02*
X53500000Y77225000D01*
X47286500Y69070300D02*
X48345200Y68011600D01*
X21526700Y124475000D02*
X22000000Y124001700D01*
X33000000Y95412500D02*
X33000000Y110375000D01*
X72000000Y115775000D02*
X72000000Y119241700D01*
X15912500Y36266000D02*
X14824100Y37354400D01*
X21912500Y58500000D02*
X21912500Y52825000D01*
X53775000Y66611100D02*
X53801400Y66611100D01*
X23000000Y89733400D02*
X23000000Y89912500D01*
X60916600Y71256200D02*
X59837300Y70176900D01*
X41500000Y68825000D02*
X43275000Y67050000D01*
X23000000Y89912500D02*
X25000000Y91912500D01*
X71576400Y115775000D02*
X72000000Y115775000D01*
X27975000Y128500000D02*
X30825000Y128500000D01*
X47313200Y69050000D02*
X47862500Y69050000D01*
X20446400Y51358900D02*
X20769000Y51036300D01*
X50731600Y47456600D02*
X51562500Y47456600D01*
X9842000Y48841000D02*
X9842000Y49328800D01*
X39741500Y32671000D02*
X33000000Y39412500D01*
X19405000Y63317500D02*
X18000000Y61912500D01*
X54094700Y77323900D02*
X53598900Y77323900D01*
X23680800Y41068400D02*
X23680800Y41316000D01*
X46451100Y9050000D02*
X49062500Y9050000D01*
X71540000Y2600000D02*
X71540000Y6372500D01*
X47260900Y69102300D02*
X47260900Y69095900D01*
X47267300Y69095900D02*
X47267300Y69089500D01*
X17362500Y62550000D02*
X17362500Y62987700D01*
X71125100Y16634600D02*
X71084600Y16634600D01*
X56881700Y14711500D02*
X55500000Y14711500D01*
X60062500Y9050000D02*
X67184500Y9050000D01*
X60916600Y71256200D02*
X61068800Y71256200D01*
X43899500Y20812000D02*
X45000000Y21912500D01*
X44946800Y17912500D02*
X44946800Y12882600D01*
X42396000Y32671000D02*
X39741500Y32671000D01*
X43899500Y18959800D02*
X43899500Y20812000D01*
X40139300Y121603300D02*
X39457800Y120921800D01*
X47273700Y69083100D02*
X47280100Y69083100D01*
X20980000Y66100000D02*
X19405000Y64525000D01*
X22996500Y89916000D02*
X23000000Y89912500D01*
X18045000Y118280000D02*
X20281700Y118280000D01*
X34065000Y45847500D02*
X33000000Y46912500D01*
X59000000Y16829800D02*
X56881700Y14711500D01*
X74912500Y16620100D02*
X73003300Y18529300D01*
X43500000Y67050000D02*
X43500000Y65325000D01*
X54346400Y77575600D02*
X54346400Y80481800D01*
X53775000Y66611100D02*
X53775000Y63500000D01*
X51370000Y88635000D02*
X51500000Y88505000D01*
X47292900Y69070300D02*
X47313200Y69050000D01*
X54912500Y20500000D02*
X54912500Y15000000D01*
X27384500Y84969400D02*
X27384500Y83989400D01*
X47273700Y69089500D02*
X47273700Y69083100D01*
X65652800Y117640300D02*
X65652800Y108927500D01*
X52950000Y55562500D02*
X53887500Y55562500D01*
X36025100Y120950000D02*
X35207600Y121767500D01*
X9962000Y85463500D02*
X9842000Y85343500D01*
X44572600Y58577400D02*
X44500000Y58650000D01*
X30000000Y62531000D02*
X30000000Y60267300D01*
X20769000Y51036300D02*
X25591100Y55858400D01*
X67184500Y9050000D02*
X67184500Y12025000D01*
X30825000Y120000000D02*
X30825000Y121820000D01*
X45416900Y12412500D02*
X45416900Y10084200D01*
X70151200Y113573300D02*
X70151200Y114349800D01*
X70719100Y113005400D02*
X70151200Y113573300D01*
X15912500Y73000000D02*
X18912500Y76000000D01*
X58775000Y73500000D02*
X58775000Y72424000D01*
X32325000Y127000000D02*
X32975000Y126350000D01*
X44946800Y12882600D02*
X45416900Y12412500D01*
X47439600Y65050000D02*
X47862500Y65050000D01*
X53964600Y80863600D02*
X53461400Y80863600D01*
X32975100Y124000000D02*
X32975000Y124000000D01*
X57325000Y59000000D02*
X57325000Y52450000D01*
X14475000Y137000000D02*
X14475000Y127500000D01*
X12402600Y81306100D02*
X15912500Y84816000D01*
X68031200Y18791400D02*
X70184400Y20944600D01*
X25000000Y87912500D02*
X25000000Y88249900D01*
X22000000Y114775000D02*
X20281700Y116493300D01*
X56934800Y44659800D02*
X57775000Y45500000D01*
X53775000Y67050000D02*
X52562500Y67050000D01*
X56828700Y7916200D02*
X55588000Y7916200D01*
X29325000Y64137500D02*
X29325000Y63206000D01*
X32386900Y90652900D02*
X33500000Y91766000D01*
X33000000Y95412500D02*
X34089400Y94323100D01*
X55742200Y44659800D02*
X56934800Y44659800D01*
X57775000Y41765000D02*
X57775000Y45500000D01*
X22000000Y114775000D02*
X25300000Y114775000D01*
X50719700Y60642800D02*
X51812500Y59550000D01*
X14475000Y127500000D02*
X16547500Y125427500D01*
X53775000Y63500000D02*
X52467800Y62192800D01*
X33000000Y87912500D02*
X32386900Y88525600D01*
X15912500Y36266000D02*
X16853500Y36266000D01*
X45475000Y70881800D02*
X47254500Y69102300D01*
X56862500Y69050000D02*
X56862500Y68925000D01*
X42668200Y59517200D02*
X43535400Y58650000D01*
X9842000Y85343500D02*
X9842000Y73663500D01*
X15912500Y96816000D02*
X15191500Y96095000D01*
X73626800Y104165900D02*
X72231000Y105561700D01*
X60916600Y71358400D02*
X60916600Y71256200D01*
X47280100Y69083100D02*
X47280100Y69076700D01*
X53500000Y77225000D02*
X52500000Y76500000D01*
X18000000Y37412500D02*
X19095000Y38507500D01*
X71125100Y17054700D02*
X71125100Y16634600D01*
X43535400Y58650000D02*
X43535400Y50739600D01*
X29325000Y63206000D02*
X30000000Y62531000D01*
X44846700Y121603300D02*
X40139300Y121603300D01*
X54950000Y71062500D02*
X55108800Y71221300D01*
D53*
X23450000Y122000000D02*
X22000000Y122000000D01*
D54*
X28675000Y38665000D02*
X28295500Y38285500D01*
X47100000Y19012500D02*
X46000000Y17912500D01*
X50126900Y60050000D02*
X50719700Y60642800D01*
X9842000Y71930400D02*
X12402600Y71930400D01*
X43562500Y67050000D02*
X45439600Y67050000D01*
X54126100Y9378100D02*
X55500000Y10752000D01*
X67990000Y24450000D02*
X63000000Y24450000D01*
X46543800Y47731300D02*
X46361800Y47549300D01*
X15191500Y85537000D02*
X15912500Y84816000D01*
X33000000Y71912500D02*
X34057300Y70855200D01*
X57263500Y68649100D02*
X56862500Y69050000D01*
X22777800Y84005300D02*
X20772500Y82000000D01*
X29307300Y16500000D02*
X28412500Y16500000D01*
X47267300Y69089500D02*
X47273700Y69089500D01*
X16853500Y36266000D02*
X18000000Y37412500D01*
X23890900Y67912500D02*
X23732500Y67912500D01*
X55500000Y14711500D02*
X55201000Y14711500D01*
X32386900Y88525600D02*
X32386900Y90652900D01*
X16547500Y125427500D02*
X13120000Y122000000D01*
X44946800Y17912500D02*
X43899500Y18959800D01*
X71540000Y6372500D02*
X70912500Y7000000D01*
X68605900Y5884700D02*
X67184500Y7306100D01*
X43500000Y65325000D02*
X42668200Y64493200D01*
X65652800Y108927500D02*
X64163600Y107438300D01*
X17825000Y118500000D02*
X18045000Y118280000D01*
X34057300Y68507300D02*
X33500000Y67950000D01*
X12402600Y71930400D02*
X14842900Y71930400D01*
X19405000Y64525000D02*
X19405000Y63317500D01*
X72231000Y105561700D02*
X72231000Y112093500D01*
X29307300Y16500000D02*
X29307300Y13219800D01*
X22686300Y89419700D02*
X22686300Y88668000D01*
X50719700Y61805300D02*
X50719700Y60642800D01*
X43750000Y34025000D02*
X43750000Y41653400D01*
X10777900Y37354400D02*
X9842000Y36418500D01*
X14842900Y71930400D02*
X15912500Y73000000D01*
D56*
X14475000Y137000000D02*
X14475000Y135050000D01*
D54*
X32383500Y65318900D02*
X29705300Y65318900D01*
X28295500Y38285500D02*
X26463700Y38285500D01*
X55201000Y14711500D02*
X54912500Y15000000D01*
X43708800Y81233800D02*
X43708800Y78228700D01*
X47562500Y60050000D02*
X50126900Y60050000D01*
X47380600Y60050000D02*
X47562500Y60050000D01*
X46361800Y45003800D02*
X46731100Y44634500D01*
X33000000Y110375000D02*
X28600000Y114775000D01*
X43500000Y67050000D02*
X43562500Y67050000D01*
X74912500Y16500000D02*
X74912500Y16620100D01*
X46731100Y44634500D02*
X47909500Y44634500D01*
X72599700Y18529300D02*
X70184400Y20944600D01*
X76500000Y14912500D02*
X74912500Y16500000D01*
X42668200Y64493200D02*
X42668200Y59517200D01*
X34089400Y92355400D02*
X33500000Y91766000D01*
X22000000Y122000000D02*
X22000000Y121924800D01*
X28675000Y86259900D02*
X27384500Y84969400D01*
X61068800Y71256200D02*
X61500000Y70825000D01*
X23732500Y67912500D02*
X21920000Y66100000D01*
X66244100Y16656600D02*
X66000000Y16412500D01*
X53798000Y9050000D02*
X54126100Y9378100D01*
X64163600Y107438300D02*
X58674200Y107438300D01*
X43937500Y78000000D02*
X43012500Y78000000D01*
X22000000Y121924800D02*
X22000000Y119998300D01*
X58450000Y67462500D02*
X57263500Y68649100D01*
X45908000Y57204500D02*
X45908000Y58577400D01*
X45475000Y71500000D02*
X45475000Y70881800D01*
X51562500Y47456600D02*
X55411200Y47456600D01*
X34057300Y70855200D02*
X34057300Y68507300D01*
X53461400Y80863600D02*
X51500000Y82825000D01*
X22000000Y114775000D02*
X22000000Y112675000D01*
X58450000Y65062500D02*
X58450000Y67462500D01*
X15191500Y96095000D02*
X15191500Y85537000D01*
X46361800Y47549300D02*
X46361800Y45003800D01*
X53775000Y67050000D02*
X53775000Y66611100D01*
X55411200Y47456600D02*
X55411200Y44990800D01*
X9842000Y49328800D02*
X14849700Y49328800D01*
X55411200Y47598700D02*
X55411200Y47456600D01*
X21912500Y52825000D02*
X20446400Y51358900D01*
X19095000Y38507500D02*
X19095000Y39791000D01*
X58450000Y61625000D02*
X58450000Y65062500D01*
X23680800Y42093300D02*
X23680800Y41316000D01*
X44475000Y82000000D02*
X43708800Y81233800D01*
X22285000Y89916000D02*
X22996500Y89916000D01*
X58674200Y107438300D02*
X57062500Y109050000D01*
X29325000Y39403500D02*
X28675000Y39403500D01*
X25000000Y43412500D02*
X23680800Y42093300D01*
X33000000Y78373900D02*
X33000000Y71912500D01*
%TO.N,AMP_IN1*%
D53*
X20042200Y43793800D02*
X20042200Y38136300D01*
X19095000Y44741000D02*
X20042200Y43793800D01*
X20042200Y38136300D02*
X21912500Y36266000D01*
%TO.N,AMP_FB1*%
X18000000Y35587500D02*
X19222900Y36810400D01*
X19222900Y36810400D02*
X19222900Y37517100D01*
X17197700Y44113700D02*
X17197700Y38249800D01*
X17197700Y38249800D02*
X16770900Y37823000D01*
X17825000Y44741000D02*
X17197700Y44113700D01*
X22912500Y37925700D02*
X22912500Y39000000D01*
X23040900Y37797300D02*
X22912500Y37925700D01*
%TO.N,AMP_OUT1*%
X16555000Y44741000D02*
X16555000Y45208700D01*
X16555000Y45208700D02*
X17432900Y46086600D01*
X19722300Y45783100D02*
X19722300Y45243900D01*
X19418800Y46086600D02*
X19722300Y45783100D01*
X17432900Y46086600D02*
X19418800Y46086600D01*
X19722300Y45243900D02*
X21087500Y43878700D01*
X21087500Y39000000D02*
X21087500Y38864500D01*
X21087500Y43878700D02*
X21087500Y39000000D01*
X23686000Y36266000D02*
X29087500Y36266000D01*
X21087500Y38864500D02*
X23686000Y36266000D01*
%TO.N,ADC_5V_HELD*%
D57*
X43502700Y72672300D02*
X42175000Y74000000D01*
X15595000Y70145200D02*
X19557000Y74107200D01*
X22285000Y91816000D02*
X21435100Y90966100D01*
X33500000Y41316000D02*
X34806500Y42622500D01*
X53694700Y78969700D02*
X53694700Y80211900D01*
X37841600Y119050000D02*
X36688100Y117896500D01*
X28675000Y69010500D02*
X27569900Y67905400D01*
X33815200Y66050000D02*
X33500000Y66050000D01*
X26500000Y123412500D02*
X24289200Y123412500D01*
X19557000Y74107200D02*
X22193800Y74107200D01*
X34640800Y68545100D02*
X34640800Y67190800D01*
X22870300Y68950300D02*
X21920000Y68000000D01*
X34141700Y72692200D02*
X34640800Y72193100D01*
X25025000Y128500000D02*
X24201700Y128500000D01*
X8954500Y138429500D02*
X16517700Y138429500D01*
X15285000Y44741000D02*
X15285000Y46173300D01*
X41210000Y34025000D02*
X39808300Y34025000D01*
X43502700Y70579800D02*
X43502700Y72491100D01*
X33500000Y41316000D02*
X32227400Y41316000D01*
X34640800Y68545100D02*
X36457200Y68545100D01*
X34806500Y42622500D02*
X34806500Y65058700D01*
X34141700Y89224300D02*
X34141700Y82586300D01*
X15285000Y46173300D02*
X15680700Y46569000D01*
X40862500Y119050000D02*
X38500000Y119050000D01*
X36688100Y117896500D02*
X30675000Y123909600D01*
X21435100Y90966100D02*
X21345300Y90966100D01*
X40063400Y70587800D02*
X40453900Y70197300D01*
X48500000Y75675000D02*
X47756800Y74931800D01*
X22870300Y73721800D02*
X22870300Y68950300D01*
X15880000Y93291000D02*
X15880000Y91784000D01*
X38499900Y70587800D02*
X40063400Y70587800D01*
X49312500Y81175000D02*
X49000000Y81175000D01*
X22190000Y43216000D02*
X23424300Y43216000D01*
X41963600Y119636700D02*
X41376900Y119050000D01*
X38500000Y119050000D02*
X37841600Y119050000D01*
X22484900Y74107200D02*
X22870300Y73721800D01*
X15595000Y69475000D02*
X15595000Y70145200D01*
X53375000Y78650000D02*
X51837500Y78650000D01*
X28675000Y93678500D02*
X28675000Y92526600D01*
X23399200Y88929100D02*
X23399200Y76669600D01*
X23399200Y76669600D02*
X22193800Y75464200D01*
X24289200Y123412500D02*
X24201700Y123500000D01*
X61650000Y81082600D02*
X61650000Y82500000D01*
X16517700Y138429500D02*
X24201700Y130745500D01*
X34640800Y72193100D02*
X34640800Y68545100D01*
X47756800Y74931800D02*
X47525000Y74931800D01*
X30675000Y124000000D02*
X30675000Y127000000D01*
X40862500Y120950000D02*
X41394900Y120950000D01*
X32231600Y82586300D02*
X34141700Y82586300D01*
X24201700Y130745500D02*
X24201700Y128500000D01*
X53500000Y78775000D02*
X53694700Y78969700D01*
X24201700Y128500000D02*
X24201700Y123500000D01*
X28675000Y92526600D02*
X28565000Y92416600D01*
X7525000Y137000000D02*
X8954500Y138429500D01*
X30675000Y123909600D02*
X30675000Y124000000D01*
X22193800Y74107200D02*
X22484900Y74107200D01*
X30025000Y124000000D02*
X27087500Y124000000D01*
X23450000Y123500000D02*
X24201700Y123500000D01*
X41394900Y120950000D02*
X41963600Y120381300D01*
X27569900Y67905400D02*
X27308900Y67905400D01*
X36457200Y68545100D02*
X38499900Y70587800D01*
X15880000Y91784000D02*
X16319800Y91344200D01*
X41376900Y119050000D02*
X40862500Y119050000D01*
X43502700Y72491100D02*
X43502700Y72672300D01*
X28711100Y45092400D02*
X28675000Y45128500D01*
X36688100Y93054100D02*
X36688100Y117896500D01*
X55818600Y74482800D02*
X55818600Y75143600D01*
X26500000Y123412500D02*
X26500000Y122525000D01*
X30025000Y124000000D02*
X30675000Y124000000D01*
X40453900Y70197300D02*
X43120200Y70197300D01*
X51837500Y78650000D02*
X49312500Y81175000D01*
X34806500Y65058700D02*
X33815200Y66050000D01*
X47525000Y73500000D02*
X47525000Y74931800D01*
X39808300Y35007700D02*
X33500000Y41316000D01*
D53*
X23450000Y123000000D02*
X23450000Y123500000D01*
D57*
X33500000Y89866000D02*
X36688100Y93054100D01*
X39808300Y34025000D02*
X39808300Y35007700D01*
X34640800Y67190800D02*
X33500000Y66050000D01*
X55818600Y75143600D02*
X56175000Y75500000D01*
X28675000Y69862500D02*
X28675000Y69010500D01*
X53500000Y78775000D02*
X53375000Y78650000D01*
X28711100Y41418400D02*
X28711100Y45092400D01*
X43502700Y72491100D02*
X43754700Y72491100D01*
X27087500Y124000000D02*
X26500000Y123412500D01*
X41963600Y120381300D02*
X41963600Y119636700D01*
D58*
X23450000Y122500000D02*
X26500000Y122525000D01*
D57*
X34141700Y82586300D02*
X34141700Y72692200D01*
X43120200Y70197300D02*
X43502700Y70579800D01*
X33500000Y89866000D02*
X34141700Y89224300D01*
X22193800Y74107200D02*
X22193800Y75464200D01*
%TO.N,DET_BAT_RAW*%
D56*
X70200000Y88500000D02*
X70200000Y96600000D01*
X70200000Y96600000D02*
X74600000Y101000000D01*
%TO.N,DET_BAT_FUSED*%
D59*
X75937500Y106639600D02*
X75937500Y107754400D01*
D56*
X77400000Y101000000D02*
X77400000Y105177100D01*
X77400000Y105177100D02*
X75937500Y106639600D01*
X75937500Y107754400D02*
X75937500Y108000000D01*
%TO.N,EM_MASTER_GATE*%
D53*
X77306100Y133131100D02*
X78175000Y134000000D01*
X75000000Y135725000D02*
X74675000Y135400000D01*
X77062500Y137950000D02*
X77062500Y139100000D01*
X74675000Y134000000D02*
X75543900Y133131100D01*
X74675000Y135400000D02*
X74675000Y134000000D01*
X77306100Y133131100D02*
X77200000Y132500000D01*
X75543900Y133131100D02*
X77306100Y133131100D01*
%TO.N,EM_BAT_PROTECTED*%
D56*
X76195900Y136916600D02*
X75624200Y136916600D01*
X77062500Y136050000D02*
X76195900Y136916600D01*
X77062500Y134737500D02*
X77062500Y136050000D01*
X72899900Y134993900D02*
X73720800Y135814800D01*
X73720800Y136251400D02*
X74386000Y136916600D01*
X70118600Y134993900D02*
X72899900Y134993900D01*
X75358400Y136916600D02*
X75000000Y137275000D01*
X74386000Y136916600D02*
X75624200Y136916600D01*
X76325000Y134000000D02*
X77062500Y134737500D01*
X73720800Y135814800D02*
X73720800Y136251400D01*
X70062500Y135050000D02*
X70118600Y134993900D01*
X75624200Y136916600D02*
X75358400Y136916600D01*
%TO.N,EM_BAT_SW*%
X19091700Y13703100D02*
X17605100Y15189700D01*
X21592100Y14075100D02*
X21220100Y13703100D01*
X21592100Y14077200D02*
X21592100Y14075100D01*
X17604900Y15557600D02*
X17604900Y15435000D01*
X17605100Y15435000D02*
X17605000Y15435000D01*
X17604900Y15680200D02*
X17604900Y15557600D01*
X68753700Y60723500D02*
X71723500Y60723500D01*
X22685000Y15435000D02*
X22685000Y15168000D01*
X17605100Y15189700D02*
X17605100Y15435000D01*
X72180000Y78050000D02*
X73630000Y79500000D01*
X21220100Y13703100D02*
X19091700Y13703100D01*
X69500000Y78050000D02*
X72180000Y78050000D01*
X17604900Y15435000D02*
X17605000Y15435000D01*
X68367600Y61109600D02*
X68753700Y60723500D01*
X12525000Y15435000D02*
X12525000Y15675800D01*
X12525000Y15675800D02*
X14008100Y17158900D01*
X14008100Y17158900D02*
X16126200Y17158900D01*
X17604900Y15557600D02*
X17604900Y17549700D01*
X22419900Y14905000D02*
X21592100Y14077200D01*
X78937500Y137000000D02*
X78937500Y135177500D01*
X69500000Y78050000D02*
X68067500Y76617500D01*
X22422000Y14905000D02*
X22419900Y14905000D01*
X71723500Y60723500D02*
X73350000Y62350000D01*
X68067500Y76617500D02*
X68067500Y61409700D01*
X16126200Y17158900D02*
X17604900Y15680200D01*
X75050000Y62350000D02*
X73350000Y62350000D01*
X22685000Y15168000D02*
X22422000Y14905000D01*
X68067500Y61409700D02*
X68367600Y61109600D01*
%TO.N,DET_BAT_PROTECTED*%
X75775000Y112000000D02*
X77175000Y112000000D01*
D53*
X23650000Y120126000D02*
X23450000Y120326000D01*
D56*
X55788000Y81638000D02*
X55788000Y78677500D01*
X18975000Y123000000D02*
X20448100Y123000000D01*
X77500000Y112325000D02*
X77500000Y114353600D01*
X77175000Y112000000D02*
X77500000Y112325000D01*
X10303800Y117413900D02*
X10303800Y119976600D01*
X17500000Y121525000D02*
X18975000Y123000000D01*
X15951600Y119976600D02*
X10303800Y119976600D01*
X74062500Y114050000D02*
X75775000Y112337500D01*
D53*
X20550000Y123500000D02*
X20550000Y123000000D01*
D56*
X23650000Y120126000D02*
X23650000Y117024700D01*
X17500000Y121525000D02*
X15951600Y119976600D01*
X52675000Y75000000D02*
X51954500Y74279500D01*
X8903400Y119976600D02*
X10303800Y119976600D01*
D53*
X20550000Y123000000D02*
X20550000Y122500000D01*
D56*
X73565900Y106142400D02*
X73565900Y106553400D01*
X56650000Y82500000D02*
X55788000Y81638000D01*
D53*
X20448100Y123000000D02*
X20550000Y123000000D01*
D56*
X75775000Y112337500D02*
X75775000Y112000000D01*
X73565900Y106553400D02*
X74062500Y107050000D01*
D53*
X23450000Y120326000D02*
X23450000Y120500000D01*
D56*
X51954500Y74279500D02*
X51954500Y74244700D01*
X6880000Y122000000D02*
X8903400Y119976600D01*
%TO.N,EM_GND*%
X76750000Y62350000D02*
X76750000Y71500000D01*
X10215200Y4497800D02*
X10215200Y10727600D01*
X70994700Y58944700D02*
X75824700Y58944700D01*
X69327800Y57450000D02*
X69500000Y57450000D01*
X22793800Y10950000D02*
X23537500Y10950000D01*
X76750000Y71500000D02*
X72087500Y71500000D01*
X13135500Y11509500D02*
X13545000Y11100000D01*
X9600000Y12906500D02*
X8216000Y12906500D01*
X76500000Y40500000D02*
X76500000Y46477800D01*
X69500000Y57450000D02*
X70994700Y58944700D01*
X69500000Y79950000D02*
X69500000Y81150000D01*
X22050000Y10950000D02*
X22793800Y10950000D01*
X12818400Y1894600D02*
X10215200Y4497800D01*
X70810000Y108730000D02*
X70810000Y107230000D01*
X71825000Y139000000D02*
X71825000Y140200000D01*
X79870000Y79500000D02*
X78070000Y79500000D01*
X76750000Y62350000D02*
X76750000Y59870000D01*
X72087500Y71500000D02*
X69500000Y68912500D01*
X6537500Y10950000D02*
X7087500Y11500000D01*
X23537500Y10950000D02*
X24087500Y11500000D01*
X7087500Y11778000D02*
X7087500Y11500000D01*
X68458400Y80991600D02*
X69500000Y79950000D01*
X68072300Y56194500D02*
X69327800Y57450000D01*
X76750000Y59870000D02*
X79870000Y56750000D01*
X22793800Y10950000D02*
X22793800Y12834700D01*
X75824700Y58944700D02*
X76750000Y59870000D01*
X13545000Y11100000D02*
X15187500Y11100000D01*
X76500000Y46477800D02*
X68072300Y54905500D01*
X10997100Y11509500D02*
X9600000Y12906500D01*
X8216000Y12906500D02*
X7087500Y11778000D01*
X22793800Y12834700D02*
X23256000Y13296900D01*
X68072300Y54905500D02*
X68072300Y56194500D01*
X70810000Y108730000D02*
X68458400Y106378400D01*
X68458400Y106378400D02*
X68458400Y80991600D01*
X10997100Y11509500D02*
X13135500Y11509500D01*
X15187500Y11100000D02*
X15587500Y11500000D01*
X10215200Y10727600D02*
X10997100Y11509500D01*
X5050000Y10950000D02*
X6537500Y10950000D01*
%TO.N,ADC_RAIL_SENSE*%
D53*
X48153400Y78901500D02*
X49704900Y77350000D01*
X49704900Y77350000D02*
X50162500Y77350000D01*
X50650000Y81175000D02*
X49000000Y82825000D01*
X49000000Y82825000D02*
X48153400Y81978400D01*
X51500000Y81175000D02*
X50650000Y81175000D01*
X48153400Y81978400D02*
X48153400Y78901500D01*
%TO.N,EM_GATE2_DRIVE*%
X17412500Y9000000D02*
X18289700Y9877200D01*
X18289700Y12210300D02*
X15065000Y15435000D01*
X18289700Y9877200D02*
X18289700Y12210300D01*
%TO.N,EM_GATE2*%
X15387500Y9200000D02*
X15587500Y9000000D01*
X15587500Y9675000D02*
X15587500Y9000000D01*
X17412500Y11500000D02*
X15587500Y9675000D01*
X13545000Y9200000D02*
X15387500Y9200000D01*
%TO.N,EM_REG*%
D56*
X81640000Y53040000D02*
X79100000Y50500000D01*
X76560000Y50500000D02*
X73630000Y53430000D01*
X78450000Y62350000D02*
X78450000Y60352800D01*
X81640000Y58217600D02*
X81640000Y53040000D01*
X80707500Y59150100D02*
X81640000Y58217600D01*
X73630000Y53430000D02*
X73630000Y55550000D01*
X58743900Y54721100D02*
X58743900Y53854700D01*
X79652700Y59150100D02*
X80707500Y59150100D01*
X73630000Y55550000D02*
X73630000Y56750000D01*
X69500000Y55550000D02*
X73630000Y55550000D01*
X78450000Y60352800D02*
X79652700Y59150100D01*
X58743900Y53854700D02*
X60778000Y51820600D01*
%TO.N,ESP_3V3*%
D57*
X61471800Y17358300D02*
X60763000Y16649500D01*
X74080000Y28000000D02*
X74080000Y29401700D01*
X61662300Y48050000D02*
X58137500Y48050000D01*
X70685900Y15189100D02*
X70687500Y15189100D01*
X55862500Y49000000D02*
X57187500Y49000000D01*
X61662300Y41819400D02*
X74080000Y29401700D01*
X52225000Y63500000D02*
X51858700Y63500000D01*
X61725700Y48113400D02*
X61662300Y48050000D01*
X69050000Y16500000D02*
X68191700Y17358300D01*
X50137500Y66950000D02*
X52225000Y64862500D01*
X68191700Y17358300D02*
X61471800Y17358300D01*
X60763000Y16649500D02*
X59912500Y17500000D01*
X56225000Y46137500D02*
X56225000Y45500000D01*
X70685900Y15189100D02*
X70360900Y15189100D01*
X61662300Y48050000D02*
X61662300Y41819400D01*
X61725700Y56073400D02*
X61725700Y48113400D01*
X60763000Y15324500D02*
X60763000Y16649500D01*
X58137500Y48050000D02*
X56225000Y46137500D01*
X52225000Y64862500D02*
X52225000Y63500000D01*
X51858700Y63500000D02*
X51254300Y62895600D01*
X71900000Y13975000D02*
X70685900Y15189100D01*
X70360900Y15189100D02*
X69050000Y16500000D01*
X57187500Y49000000D02*
X58137500Y48050000D01*
X65500000Y10587500D02*
X60763000Y15324500D01*
%TO.N,SENSOR0*%
D53*
X14177800Y47236900D02*
X16476000Y47236900D01*
X14177800Y47236900D02*
X14177800Y43769400D01*
X16476000Y47236900D02*
X17187300Y47948200D01*
X17187300Y47948200D02*
X19769700Y47948200D01*
X14177800Y48175700D02*
X14177800Y47236900D01*
X14087500Y48266000D02*
X14177800Y48175700D01*
X19769700Y47948200D02*
X20087500Y48266000D01*
%TO.N,ADC_LDO_SET_RETURN*%
X27125000Y119750000D02*
X28925000Y119750000D01*
X28925000Y119750000D02*
X29175000Y120000000D01*
%TO.N,ESP_OE_BASE*%
X56412500Y9325000D02*
X56412500Y10950000D01*
X56087500Y9000000D02*
X56412500Y9325000D01*
X56412500Y10950000D02*
X60062500Y10950000D01*
X56412500Y10950000D02*
X56412500Y11500000D01*
%TO.N,ESP_IF_OE_N*%
X64954600Y15137400D02*
X64954600Y12957900D01*
X62267700Y9669800D02*
X61937500Y10000000D01*
X65500000Y12412500D02*
X66577100Y11335400D01*
X64954600Y12957900D02*
X65500000Y12412500D01*
X66577100Y10131200D02*
X66115700Y9669800D01*
X69284400Y13325000D02*
X71900000Y13325000D01*
X67534100Y15500100D02*
X65317300Y15500100D01*
X66115700Y9669800D02*
X62267700Y9669800D01*
X68634400Y13975000D02*
X69284400Y13325000D01*
X66577100Y11335400D02*
X66577100Y10131200D01*
X68100000Y13975000D02*
X68634400Y13975000D01*
X65317300Y15500100D02*
X64954600Y15137400D01*
X68100000Y13975000D02*
X68100000Y14934200D01*
X68100000Y14934200D02*
X67534100Y15500100D01*
%TO.N,AMP_SERIES0*%
X28382200Y46200800D02*
X28847300Y46200800D01*
X28025000Y45128500D02*
X28025000Y45843600D01*
X28847300Y46200800D02*
X30912500Y48266000D01*
X28025000Y45843600D02*
X28382200Y46200800D01*
%TO.N,SENSOR1*%
X15653900Y34699600D02*
X18719100Y34699600D01*
X18719100Y34699600D02*
X20087500Y36068000D01*
X6519000Y34733100D02*
X6519000Y48481000D01*
X20087500Y36068000D02*
X20087500Y36266000D01*
X14087500Y35648700D02*
X10982100Y32543300D01*
X8708800Y32543300D02*
X6519000Y34733100D01*
X10982100Y32543300D02*
X8708800Y32543300D01*
X14087500Y36266000D02*
X14087500Y35648700D01*
X14087500Y36266000D02*
X15653900Y34699600D01*
X6519000Y48481000D02*
X4000000Y51000000D01*
%TO.N,REF_NOT_READY*%
X50475000Y73500000D02*
X51084600Y72890400D01*
X51084600Y72890400D02*
X51084600Y71647400D01*
X48500000Y77325000D02*
X48500000Y76977600D01*
X51084600Y72890400D02*
X51461600Y72890400D01*
X46650000Y77325000D02*
X46500000Y77175000D01*
X48500000Y77325000D02*
X46650000Y77325000D01*
X51461600Y72890400D02*
X51671800Y73100600D01*
X48500000Y76977600D02*
X49536400Y75941200D01*
X55733700Y65878800D02*
X55733700Y66838700D01*
X56550000Y65062500D02*
X55733700Y65878800D01*
%TO.N,REF_CLAMP_RELEASE*%
X46157000Y79168000D02*
X45506200Y79168000D01*
X44848500Y69010900D02*
X44848500Y68589000D01*
X44848500Y68589000D02*
X45437500Y68000000D01*
X46500000Y78825000D02*
X46157000Y79168000D01*
%TO.N,EM_GATE3*%
X7125000Y9050000D02*
X7175000Y9000000D01*
X7175000Y9762500D02*
X8912500Y11500000D01*
X7175000Y9000000D02*
X7175000Y9762500D01*
X5050000Y9050000D02*
X7125000Y9050000D01*
%TO.N,ADC_IO_3V3*%
D57*
X66058800Y21646300D02*
X70402300Y21646300D01*
X58303900Y76397900D02*
X60420500Y78514500D01*
X61865400Y24228700D02*
X60488600Y25605500D01*
X62542500Y19343100D02*
X62012100Y19873500D01*
X60420500Y78514500D02*
X60420500Y99754500D01*
X43137500Y120950000D02*
X45037500Y119050000D01*
X51187500Y22550000D02*
X53000000Y22550000D01*
X75481700Y30279400D02*
X63106400Y42654700D01*
X57225000Y73500000D02*
X58627500Y74902500D01*
X60900000Y21975000D02*
X60900000Y21325000D01*
X61564100Y21325000D02*
X60900000Y21325000D01*
X63755600Y19343100D02*
X62542500Y19343100D01*
X70402300Y21646300D02*
X75481700Y26725700D01*
X45500000Y114675000D02*
X45500000Y119050000D01*
X60488600Y25605500D02*
X56055500Y25605500D01*
X45037500Y119050000D02*
X45500000Y119050000D01*
X63000000Y22412500D02*
X63000000Y22550000D01*
X57225000Y72862500D02*
X59137500Y70950000D01*
X64912500Y20500000D02*
X66058800Y21646300D01*
X75481700Y26725700D02*
X75481700Y30279400D01*
X63106400Y42654700D02*
X63106400Y70548500D01*
X51995700Y20958200D02*
X51995700Y17574800D01*
X58627500Y76074300D02*
X58303900Y76397900D01*
X51187500Y22550000D02*
X51187500Y22689900D01*
X58303900Y76397900D02*
X56277100Y76397900D01*
X51187500Y22262500D02*
X51187500Y22550000D01*
X56277100Y76397900D02*
X55175000Y77500000D01*
X58627500Y74902500D02*
X58627500Y76074300D01*
X57225000Y73500000D02*
X57225000Y72862500D01*
X61865400Y23684600D02*
X61865400Y24228700D01*
X62012100Y19873500D02*
X62012100Y20877000D01*
X63000000Y22550000D02*
X61865400Y23684600D01*
X50900000Y21975000D02*
X51187500Y22262500D01*
X64912500Y20500000D02*
X63000000Y22412500D01*
X64912500Y20500000D02*
X63755600Y19343100D01*
X56055500Y25605500D02*
X53000000Y22550000D01*
X62012100Y20877000D02*
X61564100Y21325000D01*
X63106400Y70548500D02*
X58752400Y74902500D01*
X60420500Y99754500D02*
X55175000Y105000000D01*
X55175000Y105000000D02*
X45500000Y114675000D01*
X51995700Y17574800D02*
X51754200Y17333300D01*
X58752400Y74902500D02*
X58627500Y74902500D01*
%TO.N,ADC_LDO_SET*%
D53*
X25300000Y117725000D02*
X25587900Y118012900D01*
X23984300Y116184800D02*
X23310000Y116184800D01*
X25587900Y119637100D02*
X25475000Y119750000D01*
X23450000Y121000000D02*
X24225000Y121000000D01*
X28312100Y118012900D02*
X25587900Y118012900D01*
X25300000Y117725000D02*
X25300000Y117500500D01*
X23310000Y116184800D02*
X22000000Y117494800D01*
X25587900Y118012900D02*
X25587900Y119637100D01*
X25300000Y117500500D02*
X23984300Y116184800D01*
X28600000Y117725000D02*
X28312100Y118012900D01*
X24225000Y121000000D02*
X25475000Y119750000D01*
X22000000Y117494800D02*
X22000000Y117725000D01*
%TO.N,CLAMP_GND4*%
X28025000Y90724800D02*
X28232000Y90931800D01*
X31943600Y91137500D02*
X31943600Y92531100D01*
X31943600Y92531100D02*
X33000000Y93587500D01*
X28025000Y87953500D02*
X28025000Y90724800D01*
%TO.N,OFF_BIAS_RAIL*%
X53350000Y82500000D02*
X52646300Y83203700D01*
X52646300Y83203700D02*
X52646300Y84486700D01*
X57417100Y83432900D02*
X58350000Y82500000D01*
X53350000Y82500000D02*
X54282900Y83432900D01*
X54282900Y83432900D02*
X57417100Y83432900D01*
X46482100Y62761000D02*
X45914000Y62761000D01*
X45914000Y62761000D02*
X45500000Y63175000D01*
%TO.N,ESP_VALID_RAW*%
X55862500Y49987600D02*
X53900100Y51950000D01*
X55862500Y49950000D02*
X55862500Y49987600D01*
X53900100Y51950000D02*
X51562500Y51950000D01*
%TO.N,ENABLE_AND_MID*%
X48112500Y51000000D02*
X53437500Y51000000D01*
X47062500Y52050000D02*
X48112500Y51000000D01*
%TO.N,EMIT3_LOW*%
D56*
X4505000Y5100000D02*
X3175000Y6430000D01*
X3175000Y6430000D02*
X3175000Y10000000D01*
%TO.N,ESP_POWER_NOT_READY*%
D53*
X49507000Y64419500D02*
X50137500Y65050000D01*
X45040500Y65590600D02*
X45982200Y65590600D01*
X47153300Y64419500D02*
X49507000Y64419500D01*
X43500000Y63675000D02*
X43500000Y59631000D01*
X43500000Y64050100D02*
X45040500Y65590600D01*
X45982200Y65590600D02*
X47153300Y64419500D01*
X43500000Y63675000D02*
X43500000Y64050100D01*
%TO.N,ISOLATE_H*%
X55484900Y69546000D02*
X55938900Y70000000D01*
X27527100Y46249200D02*
X27126000Y46249200D01*
X26725000Y45848200D02*
X26725000Y45128500D01*
X29470300Y67317100D02*
X31275000Y69121800D01*
X53708200Y69452600D02*
X54344100Y69452600D01*
X29470300Y66470400D02*
X29470300Y67317100D01*
X57852300Y71297800D02*
X56445300Y72704800D01*
X54437500Y69546000D02*
X55484900Y69546000D01*
X53050000Y70110800D02*
X53708200Y69452600D01*
X31275000Y89402300D02*
X30977100Y89402300D01*
X31275000Y64137500D02*
X31275000Y64059300D01*
X26725000Y87953500D02*
X26725000Y86139600D01*
X26725000Y80588000D02*
X26577000Y80440000D01*
X26497300Y64365200D02*
X26497300Y66169500D01*
X27970400Y46692500D02*
X27527100Y46249200D01*
X54437500Y69546000D02*
X54437500Y69157500D01*
X55938900Y70000000D02*
X56862500Y70000000D01*
X29103200Y66103300D02*
X29470300Y66470400D01*
X31275000Y64059300D02*
X32312800Y63021500D01*
X54344100Y69452600D02*
X54437500Y69546000D01*
X34104800Y63406000D02*
X34104800Y64768100D01*
X31752700Y71611600D02*
X31752700Y76460000D01*
X26577000Y70010500D02*
X26725000Y69862500D01*
X56862500Y70000000D02*
X57250100Y70000000D01*
X27988800Y66549200D02*
X28434700Y66103300D01*
X26725000Y87953500D02*
X26725000Y93678500D01*
X56445300Y74120300D02*
X57825000Y75500000D01*
X31275000Y42565500D02*
X31275000Y39403500D01*
X32312800Y63021500D02*
X33720300Y63021500D01*
X26497300Y66169500D02*
X26877000Y66549200D01*
X28434700Y66103300D02*
X29103200Y66103300D01*
X31275000Y87953500D02*
X31275000Y89402300D01*
X26877000Y66549200D02*
X27988800Y66549200D01*
X26725000Y86139600D02*
X26725000Y80588000D01*
X53050000Y71062500D02*
X53050000Y70110800D01*
X26725000Y45128500D02*
X26725000Y39403500D01*
X33720300Y63021500D02*
X34104800Y63406000D01*
X26725000Y64137500D02*
X26497300Y64365200D01*
X54437500Y69157500D02*
X54437500Y68000000D01*
X56445300Y72704800D02*
X56445300Y74120300D01*
X27126000Y46249200D02*
X26725000Y45848200D01*
X27624700Y80588000D02*
X26725000Y80588000D01*
X31275000Y71133900D02*
X31275000Y69862500D01*
X26577000Y80440000D02*
X26577000Y70010500D01*
X31275000Y45128500D02*
X31275000Y42565500D01*
X31275000Y89402300D02*
X31275000Y93678500D01*
X31752700Y76460000D02*
X27624700Y80588000D01*
X31275000Y69121800D02*
X31275000Y69862500D01*
X57250100Y70000000D02*
X57852300Y70602200D01*
X31275000Y71133900D02*
X31752700Y71611600D01*
X57852300Y70602200D02*
X57852300Y71297800D01*
%TO.N,ADC_READY_RAW*%
X53562500Y59000000D02*
X55049400Y59000000D01*
X48170300Y66950000D02*
X48973500Y67753200D01*
X55996700Y109884200D02*
X57062500Y110950000D01*
X54713000Y62692000D02*
X54713000Y64109200D01*
X47862500Y66950000D02*
X48170300Y66950000D01*
X51484000Y67753200D02*
X51484000Y67871500D01*
X51484000Y67753200D02*
X51484000Y66640300D01*
X52000000Y57437500D02*
X53562500Y59000000D01*
X57500000Y66937500D02*
X57500000Y63175000D01*
X57500000Y63175000D02*
X57325000Y63000000D01*
X51484000Y66640300D02*
X51899000Y66225300D01*
X48973500Y67753200D02*
X51484000Y67753200D01*
X55996700Y108601200D02*
X55996700Y109884200D01*
X51484000Y67871500D02*
X52562500Y68950000D01*
X55049400Y59000000D02*
X55675000Y59000000D01*
X57325000Y63000000D02*
X56456100Y62131100D01*
X55273900Y62131100D02*
X54713000Y62692000D01*
X56456100Y62131100D02*
X55273900Y62131100D01*
X63883300Y100714600D02*
X55996700Y108601200D01*
X67062500Y120950000D02*
X57062500Y110950000D01*
X63883300Y72054900D02*
X63883300Y100714600D01*
X55049400Y59000000D02*
X55049400Y60400400D01*
%TO.N,REF_READY_RAW*%
X47474900Y66000000D02*
X47862500Y66000000D01*
X45390100Y69825400D02*
X45390100Y69799600D01*
X49048200Y70255200D02*
X49048200Y70147400D01*
X48353400Y70950000D02*
X49048200Y70255200D01*
X41023700Y69583500D02*
X40687900Y69247700D01*
X43562500Y68950000D02*
X44260200Y69647700D01*
X42929000Y69583500D02*
X41023700Y69583500D01*
X46762200Y68123700D02*
X46762200Y66712700D01*
X47862500Y70950000D02*
X48353400Y70950000D01*
X46762200Y66712700D02*
X47474900Y66000000D01*
X45238200Y69647700D02*
X46762200Y68123700D01*
X44260200Y69647700D02*
X45238200Y69647700D01*
X40687900Y67987100D02*
X41500000Y67175000D01*
X45390100Y69799600D02*
X45238200Y69647700D01*
X40687900Y69247700D02*
X40687900Y67987100D01*
X43562500Y68950000D02*
X42929000Y69583500D01*
%TO.N,DET_MASTER_GATE*%
X72973500Y113251500D02*
X72973500Y114861000D01*
X73175000Y118000000D02*
X74062500Y117112500D01*
X74225000Y112000000D02*
X72973500Y113251500D01*
X72973500Y114861000D02*
X74062500Y115950000D01*
X75550000Y110675000D02*
X74225000Y112000000D01*
X77500000Y110675000D02*
X75550000Y110675000D01*
X74062500Y117112500D02*
X74062500Y115950000D01*
%TO.N,SENSOR_BAT_SW*%
D56*
X71009000Y113987100D02*
X71762100Y113987100D01*
X2028300Y68770800D02*
X2028300Y60294200D01*
X2141300Y84521200D02*
X2141300Y93027200D01*
X2028300Y47891700D02*
X2028300Y56350800D01*
X4000000Y70742500D02*
X2028300Y68770800D01*
X4000000Y45920000D02*
X1995500Y43915500D01*
X75937500Y114136100D02*
X75937500Y115000000D01*
X1991800Y80414300D02*
X1991800Y72750700D01*
X71762100Y113987100D02*
X72000000Y114225000D01*
X4000000Y45920000D02*
X2028300Y47891700D01*
X1995500Y43915500D02*
X1995500Y35502000D01*
X2028300Y60294200D02*
X4000000Y58322500D01*
X2028300Y56350800D02*
X4000000Y58322500D01*
X2141300Y93027200D02*
X4034100Y94920000D01*
X4120000Y82542500D02*
X1991800Y80414300D01*
X1991800Y72750700D02*
X4000000Y70742500D01*
X1995500Y35502000D02*
X4000000Y33497500D01*
X4120000Y82542500D02*
X2141300Y84521200D01*
%TO.N,CLAMP_GND1*%
D53*
X31079400Y37587500D02*
X33000000Y37587500D01*
X29975000Y39403500D02*
X29975000Y38691900D01*
X29975000Y38691900D02*
X31079400Y37587500D01*
%TO.N,ESP_SUP_CT*%
X56225000Y51862500D02*
X56225000Y52000000D01*
X58137500Y49950000D02*
X56225000Y51862500D01*
%TO.N,ADC_DRDY_N*%
D58*
X72895400Y16307900D02*
X73087500Y16500000D01*
X71900000Y12025000D02*
X72398600Y12025000D01*
X72895400Y12521800D02*
X72895400Y16307900D01*
X73087500Y16500000D02*
X73087500Y17485400D01*
X72398600Y12025000D02*
X72895400Y12521800D01*
X73087500Y17485400D02*
X72853500Y17719400D01*
%TO.N,SENSOR3*%
D53*
X20087500Y60635200D02*
X20087500Y61000000D01*
X18646200Y59193900D02*
X20087500Y60635200D01*
X14087500Y61000000D02*
X15893600Y59193900D01*
X14087500Y61000000D02*
X14087500Y65735000D01*
X15893600Y59193900D02*
X18646200Y59193900D01*
%TO.N,AMP_IN3*%
X19405000Y69475000D02*
X19405000Y70960100D01*
X21912500Y61526000D02*
X22548200Y62161700D01*
X21912500Y61000000D02*
X21912500Y61526000D01*
%TO.N,USB_SUP_CT*%
X49137500Y49950000D02*
X49137500Y49142200D01*
X44500000Y48225000D02*
X45087600Y48225000D01*
X45087600Y48225000D02*
X45506400Y47806200D01*
%TO.N,USB_VALID_RAW*%
X46862500Y49950000D02*
X45989700Y50822800D01*
X45989700Y50822800D02*
X45989700Y52877200D01*
X45989700Y52877200D02*
X47062500Y53950000D01*
%TO.N,USB_PRESENT_5V*%
D57*
X74080000Y4001700D02*
X77626000Y7547700D01*
X63969800Y42792000D02*
X63969800Y45715400D01*
X77626000Y7547700D02*
X77626000Y29135800D01*
X74080000Y2600000D02*
X74080000Y4001700D01*
X77626000Y29135800D02*
X63969800Y42792000D01*
X47408400Y49000000D02*
X48748000Y47660500D01*
X49137500Y46863600D02*
X49137500Y48050000D01*
X49137500Y48050000D02*
X48748000Y47660500D01*
X48748000Y47660500D02*
X47225000Y46137500D01*
X47225000Y46137500D02*
X47225000Y45500000D01*
X46862500Y49000000D02*
X47408400Y49000000D01*
%TO.N,MASTER_PERMIT*%
D53*
X60175000Y68012500D02*
X60175000Y67000000D01*
X61500000Y69175000D02*
X61337500Y69175000D01*
X59137500Y69050000D02*
X60175000Y68012500D01*
X60175000Y65000000D02*
X60175000Y67000000D01*
X61337500Y69175000D02*
X60175000Y68012500D01*
%TO.N,SPI_PERMIT*%
X54051700Y10269400D02*
X54587500Y10805200D01*
X62566000Y42823600D02*
X62369900Y42627500D01*
X49087500Y13000000D02*
X48363600Y13000000D01*
X48363600Y13000000D02*
X48060300Y12696700D01*
X54587500Y10805200D02*
X54587500Y11500000D01*
X62566000Y66259000D02*
X62566000Y42823600D01*
X61825000Y67000000D02*
X62566000Y66259000D01*
%TO.N,AMP_OUT4*%
X27772600Y96816000D02*
X29087500Y96816000D01*
X15866500Y90289300D02*
X15866500Y88354500D01*
X23874600Y92918000D02*
X27772600Y96816000D01*
X15866500Y88354500D02*
X15880000Y88341000D01*
X21587500Y94000000D02*
X22669500Y92918000D01*
X21587500Y94000000D02*
X21167400Y94420100D01*
X21167400Y94420100D02*
X20550400Y94420100D01*
X22669500Y92918000D02*
X23874600Y92918000D01*
%TO.N,AMP_SERIES4*%
X30912500Y96816000D02*
X29331700Y95235200D01*
X29331700Y95235200D02*
X28841600Y95235200D01*
X28025000Y94418600D02*
X28025000Y93678500D01*
X28841600Y95235200D02*
X28025000Y94418600D01*
%TO.N,ADC_COMPARATOR_GOOD*%
X55449100Y64646200D02*
X55675000Y64420300D01*
X55675000Y64420300D02*
X55675000Y63000000D01*
X49550800Y78650000D02*
X49153100Y79047700D01*
X50162500Y78650000D02*
X49550800Y78650000D01*
%TO.N,DET_MASTER_SINK*%
X74825000Y118000000D02*
X75736300Y118000000D01*
X68937500Y119295000D02*
X68937500Y120000000D01*
X68817800Y119175300D02*
X68937500Y119295000D01*
%TO.N,EM_MASTER_LED_K*%
X60207500Y108730000D02*
X58937500Y110000000D01*
X63190000Y108730000D02*
X60207500Y108730000D01*
%TO.N,ESP_EMIT1*%
X26780000Y23700000D02*
X26780000Y21692500D01*
X26735000Y21647500D02*
X26587500Y21500000D01*
X26780000Y21692500D02*
X26735000Y21647500D01*
X28109700Y20272800D02*
X26735000Y21647500D01*
%TO.N,POWER_OFF_NODE*%
X50827800Y53733300D02*
X51838400Y53733300D01*
X47562500Y61950000D02*
X47562500Y60882700D01*
X48937500Y53554900D02*
X48937500Y53000000D01*
X49971000Y54590100D02*
X50827800Y53733300D01*
X49429400Y57950000D02*
X50025700Y57353700D01*
X47062500Y57950000D02*
X49429400Y57950000D01*
X51050000Y55562400D02*
X51050000Y55562500D01*
X51268100Y55562400D02*
X51050000Y55562400D01*
X50025700Y56589700D02*
X49971000Y56535000D01*
X47142400Y55350000D02*
X48936700Y53555800D01*
X50025700Y57353700D02*
X50025700Y56589700D01*
X44500000Y55350000D02*
X47142400Y55350000D01*
X49971000Y56535000D02*
X49971000Y54590100D01*
X52208300Y54103200D02*
X52208300Y54622200D01*
X49971000Y54590100D02*
X48936700Y53555800D01*
X51838400Y53733300D02*
X52208300Y54103200D01*
X47562500Y62762500D02*
X45500000Y64825000D01*
X48936700Y53555800D02*
X48937500Y53554900D01*
X44500000Y55350000D02*
X44500000Y56718600D01*
X52208300Y54622200D02*
X51268100Y55562400D01*
X47562500Y61950000D02*
X47562500Y62762500D01*
%TO.N,EM_ADJ*%
X69500000Y63912500D02*
X69500000Y65833300D01*
X69500000Y65833300D02*
X69500000Y67087500D01*
X80150000Y62350000D02*
X80150000Y64499700D01*
X80150000Y64499700D02*
X79517300Y65132400D01*
%TO.N,EM_MASTER_LED_A*%
X63190000Y111270000D02*
X64496800Y111270000D01*
X64496800Y111270000D02*
X64712200Y111054600D01*
X56825000Y105000000D02*
X56825000Y105986400D01*
%TO.N,EM_TRIM_TOP*%
X69500000Y62087500D02*
X70358200Y62087500D01*
X70358200Y62087500D02*
X70720500Y61725200D01*
%TO.N,AMP_FB4*%
X17150000Y91400300D02*
X17150000Y88341000D01*
X17751400Y95587500D02*
X16513600Y94349700D01*
X16513600Y92036700D02*
X17150000Y91400300D01*
X18000000Y95587500D02*
X17751400Y95587500D01*
X23412500Y94000000D02*
X21825000Y95587500D01*
X21825000Y95587500D02*
X18000000Y95587500D01*
X16513600Y94349700D02*
X16513600Y92036700D01*
%TO.N,CLAMP_GND3*%
X29975000Y63420500D02*
X31308000Y62087500D01*
X31308000Y62087500D02*
X33000000Y62087500D01*
X29975000Y64137500D02*
X29975000Y63420500D01*
%TO.N,ESP_SCLK*%
D58*
X48579600Y26535900D02*
X52295900Y26535900D01*
X46305000Y23372200D02*
X46305000Y24261300D01*
X46237500Y21325000D02*
X45000000Y20087500D01*
X47100000Y21325000D02*
X46237500Y21325000D01*
X46237500Y21325000D02*
X46237500Y23304700D01*
X46237500Y23304700D02*
X46305000Y23372200D01*
X52295900Y26535900D02*
X53760000Y28000000D01*
X46305000Y24261300D02*
X48579600Y26535900D01*
%TO.N,ADC_AIN0*%
D53*
X25976300Y42444800D02*
X25857300Y42444800D01*
X25857300Y42444800D02*
X25000000Y41587500D01*
X27375000Y45128500D02*
X27375000Y42867900D01*
X27375000Y42867900D02*
X27375000Y39403500D01*
%TO.N,CLAMP_GND0*%
X31998800Y44086300D02*
X33000000Y45087500D01*
X28025000Y39403500D02*
X28025000Y42137600D01*
X28025000Y42137600D02*
X28009400Y42153200D01*
X31998800Y43423700D02*
X31998800Y44086300D01*
%TO.N,ADC_AIN1*%
X30625000Y45128500D02*
X30625000Y46428900D01*
X28518100Y49336200D02*
X26856600Y49336200D01*
X31429100Y49336200D02*
X28518100Y49336200D01*
X30625000Y45128500D02*
X30625000Y39403500D01*
X43750000Y91175000D02*
X42390700Y92534300D01*
X42390700Y92534300D02*
X40070400Y92534300D01*
X30625000Y46428900D02*
X31766200Y47570100D01*
X31766200Y47570100D02*
X31766200Y48999100D01*
X31766200Y48999100D02*
X31429100Y49336200D01*
X28518100Y51554400D02*
X28518100Y49336200D01*
X36166600Y88630500D02*
X36166600Y69246800D01*
X25087500Y47567100D02*
X25087500Y47500000D01*
X26856600Y49336200D02*
X25087500Y47567100D01*
X40070400Y92534300D02*
X36166600Y88630500D01*
%TO.N,AMP_SERIES1*%
X30912500Y36266000D02*
X29099500Y38079000D01*
X29975000Y40912900D02*
X29975000Y45128500D01*
X29099500Y38079000D02*
X29099500Y38140000D01*
%TO.N,SENSOR2*%
X14056000Y73031500D02*
X14087500Y73000000D01*
X13068400Y73031500D02*
X14056000Y73031500D01*
X19063100Y72500900D02*
X19588400Y72500900D01*
X19588400Y72500900D02*
X20087500Y73000000D01*
%TO.N,ESP_MISO_DRV*%
D58*
X71381300Y12675000D02*
X69087500Y10381200D01*
X71900000Y12675000D02*
X71381300Y12675000D01*
X69087500Y10381200D02*
X69087500Y9500000D01*
%TO.N,ESP_MISO*%
X67841000Y8246500D02*
X67841000Y11271300D01*
X70912500Y8825000D02*
X69087500Y7000000D01*
X69087500Y7000000D02*
X67841000Y8246500D01*
X70912500Y9500000D02*
X70912500Y8825000D01*
%TO.N,ESP_DRDY*%
X75250000Y13162500D02*
X74000000Y14412500D01*
X75250000Y12826100D02*
X75250000Y13162500D01*
X76500000Y12587500D02*
X74675000Y14412500D01*
X74675000Y14412500D02*
X74000000Y14412500D01*
%TO.N,ESP_CS_N*%
X58087500Y17500000D02*
X56240000Y19347500D01*
X56240000Y21325000D02*
X56240000Y23770200D01*
X56240000Y19347500D02*
X56240000Y21325000D01*
X56240000Y21325000D02*
X57100000Y21325000D01*
X56240000Y23770200D02*
X56281800Y23812000D01*
%TO.N,ESP_MOSI*%
X50900000Y19625000D02*
X50900000Y16595100D01*
X43900000Y26690000D02*
X45701700Y24255400D01*
X51212500Y16282600D02*
X52243700Y16282600D01*
X50900000Y19625000D02*
X49852600Y19625000D01*
X52243700Y16282600D02*
X52615200Y16654100D01*
X39830000Y26690000D02*
X43900000Y26690000D01*
X50900000Y16595100D02*
X51212500Y16282600D01*
X38520000Y28000000D02*
X39830000Y26690000D01*
X50900000Y20025000D02*
X50900000Y19625000D01*
X52615200Y16654100D02*
X52615200Y20027700D01*
X45701700Y24255400D02*
X45701700Y23621400D01*
X52615200Y20027700D02*
X53087500Y20500000D01*
%TO.N,ADC_SCLK*%
X43800000Y25800000D02*
X43800000Y23750000D01*
X49912500Y25741600D02*
X49912500Y24500000D01*
X38400000Y26250000D02*
X43550000Y26250000D01*
X37450000Y28800000D02*
X37200000Y28300000D01*
X37200000Y28300000D02*
X37200000Y27700000D01*
X43100000Y30850000D02*
X38050000Y29350000D01*
X48902700Y16796300D02*
X48193900Y16087500D01*
X48193900Y16087500D02*
X46000000Y16087500D01*
X43550000Y26250000D02*
X43800000Y25800000D01*
X46290000Y34025000D02*
X43100000Y30850000D01*
X37450000Y27200000D02*
X38400000Y26250000D01*
X37200000Y27700000D02*
X37450000Y27200000D01*
X48902700Y21096800D02*
X48902700Y16796300D01*
X38050000Y29350000D02*
X37450000Y28800000D01*
%TO.N,ESP_EMIT3*%
D53*
X28000000Y4750700D02*
X28000000Y3353400D01*
X25915800Y13328300D02*
X25915800Y12750000D01*
X26587500Y14000000D02*
X25915800Y13328300D01*
X28000000Y10087500D02*
X28000000Y4750700D01*
%TO.N,ESP_EMIT2*%
X26587500Y19000000D02*
X26587500Y16500000D01*
X26587500Y19000000D02*
X27392800Y18194700D01*
X27392800Y18194700D02*
X27392800Y17520700D01*
%TO.N,EM_LED1_A*%
X22685000Y24965000D02*
X27340000Y24965000D01*
X27340000Y24965000D02*
X28605000Y23700000D01*
%TO.N,EM_BAT_RAW*%
D56*
X70200000Y40500000D02*
X68498300Y40500000D01*
X75600000Y124540900D02*
X66829600Y115770500D01*
X66829600Y42168700D02*
X68498300Y40500000D01*
X75600000Y131000000D02*
X75600000Y124540900D01*
X66829600Y115770500D02*
X66829600Y42168700D01*
%TO.N,SENSOR4*%
D53*
X4120000Y87622500D02*
X4894000Y87622500D01*
X18752700Y98274800D02*
X20087500Y96940000D01*
X4894000Y87622500D02*
X14087500Y96816000D01*
X20087500Y96940000D02*
X20087500Y96816000D01*
X15546300Y98274800D02*
X18752700Y98274800D01*
X14087500Y96816000D02*
X15546300Y98274800D01*
%TO.N,AMP_IN4*%
X22937700Y96816000D02*
X22937700Y96815900D01*
X18420000Y88341000D02*
X18420000Y89850600D01*
X21912500Y96816000D02*
X22937700Y96816000D01*
%TO.N,EMIT2_LOW*%
D56*
X11670000Y6435000D02*
X11670000Y10150000D01*
X13005000Y5100000D02*
X11670000Y6435000D01*
%TO.N,ADC_AIN4*%
D53*
X27375000Y87953500D02*
X27375000Y91988100D01*
X25000000Y90087500D02*
X26077400Y91164900D01*
X26993100Y94786900D02*
X27375000Y94405000D01*
X27375000Y91988100D02*
X27375000Y93678500D01*
X26077400Y94405600D02*
X26458700Y94786900D01*
X27473100Y91988100D02*
X27375000Y91988100D01*
X27375000Y94405000D02*
X27375000Y93678500D01*
X26458700Y94786900D02*
X26993100Y94786900D01*
X26077400Y91164900D02*
X26077400Y94405600D01*
%TO.N,ADC_SUP_CT*%
X50137500Y70950000D02*
X50137500Y71763700D01*
X42525000Y71500000D02*
X41502600Y72522400D01*
%TO.N,ADC_IF_OE_N*%
X50366900Y21325000D02*
X49716900Y21975000D01*
X54073800Y22568500D02*
X54073800Y21724600D01*
X54073800Y21724600D02*
X53937700Y21588500D01*
X51739800Y21588500D02*
X51476300Y21325000D01*
X51476300Y21325000D02*
X50900000Y21325000D01*
X55997900Y24492600D02*
X54073800Y22568500D01*
X57100000Y21975000D02*
X57100000Y23888400D01*
X50900000Y21325000D02*
X50366900Y21325000D01*
X53927700Y16984800D02*
X53579200Y17333300D01*
X53937700Y17691800D02*
X53579200Y17333300D01*
X53937700Y21588500D02*
X53937700Y17691800D01*
X49716900Y21975000D02*
X47100000Y21975000D01*
X53937700Y21588500D02*
X51739800Y21588500D01*
X57100000Y23888400D02*
X56495800Y24492600D01*
X50937500Y10000000D02*
X53927700Y12990200D01*
X56495800Y24492600D02*
X55997900Y24492600D01*
X53927700Y12990200D02*
X53927700Y16984800D01*
%TO.N,PWR_REF_4V096*%
X49301000Y73475000D02*
X49301000Y74813500D01*
X49301000Y74813500D02*
X51837500Y77350000D01*
X43825000Y74000000D02*
X43673900Y74000000D01*
X40980200Y77867700D02*
X42062500Y78950000D01*
X43673900Y74000000D02*
X40980200Y76693700D01*
X46837600Y70637300D02*
X47474900Y70000000D01*
X47474900Y70000000D02*
X47862500Y70000000D01*
X45175000Y74000000D02*
X45500000Y73675000D01*
X46837600Y72337400D02*
X46837600Y72237300D01*
X45500000Y73675000D02*
X46837600Y72337400D01*
X42062500Y81462500D02*
X42062500Y78950000D01*
X48063300Y72237300D02*
X49301000Y73475000D01*
X41525000Y82000000D02*
X42062500Y81462500D01*
X40980200Y76693700D02*
X40980200Y77867700D01*
X43825000Y74000000D02*
X45175000Y74000000D01*
X46837600Y72237300D02*
X48063300Y72237300D01*
X46837600Y72237300D02*
X46837600Y70637300D01*
%TO.N,AMP_OUT2*%
X28588400Y72500900D02*
X27725500Y72500900D01*
X16013300Y64943300D02*
X16013300Y67988900D01*
X15595000Y64525000D02*
X16013300Y64943300D01*
X23175900Y65588400D02*
X21587500Y64000000D01*
X29087500Y73000000D02*
X28588400Y72500900D01*
%TO.N,AMP_FB2*%
X19027700Y61115200D02*
X19027700Y61522400D01*
X16735800Y62728200D02*
X16865000Y62599000D01*
X16735800Y64395800D02*
X16735800Y62728200D01*
X16865000Y64525000D02*
X16735800Y64395800D01*
X16865000Y62599000D02*
X16865000Y61222500D01*
X19923100Y62417800D02*
X21830300Y62417800D01*
X21830300Y62417800D02*
X23412500Y64000000D01*
X18000000Y60087500D02*
X19027700Y61115200D01*
X19027700Y61522400D02*
X19923100Y62417800D01*
X16865000Y61222500D02*
X18000000Y60087500D01*
%TO.N,ADC_CS_DRV*%
D58*
X60900000Y20675000D02*
X60368200Y20675000D01*
X60368200Y20675000D02*
X58087500Y22955700D01*
X58087500Y22955700D02*
X58087500Y24500000D01*
%TO.N,EM_GATE3_DRIVE*%
D53*
X4035200Y3687700D02*
X7544100Y3687700D01*
X7544100Y3687700D02*
X9000000Y5143600D01*
X9000000Y5143600D02*
X9000000Y9000000D01*
X5816500Y14107300D02*
X2103600Y10394400D01*
X9985000Y15435000D02*
X8657300Y14107300D01*
X2103600Y5619300D02*
X4035200Y3687700D01*
X2103600Y10394400D02*
X2103600Y5619300D01*
X8657300Y14107300D02*
X5816500Y14107300D01*
%TO.N,ADC_MISO*%
D58*
X66545600Y14041900D02*
X66000000Y14587500D01*
X66887600Y14041900D02*
X66545600Y14041900D01*
X67519000Y13325000D02*
X68100000Y13325000D01*
X66887600Y13956400D02*
X67519000Y13325000D01*
X66887600Y14041900D02*
X66887600Y13956400D01*
X67416700Y14571000D02*
X66887600Y14041900D01*
X67416700Y14691300D02*
X67416700Y14571000D01*
%TO.N,ESP_DRDY_DRV*%
X68595500Y8449800D02*
X69584600Y8449800D01*
X68100000Y12675000D02*
X68607400Y12675000D01*
X68262500Y8782800D02*
X68595500Y8449800D01*
X70835700Y10931800D02*
X72344300Y10931800D01*
X72344300Y10931800D02*
X74000000Y12587500D01*
X68954200Y11405500D02*
X68262500Y10713800D01*
X68954200Y12328200D02*
X68954200Y11405500D01*
X68607400Y12675000D02*
X68954200Y12328200D01*
X70097300Y10193400D02*
X70835700Y10931800D01*
X68262500Y10713800D02*
X68262500Y8782800D01*
X70097300Y8962500D02*
X70097300Y10193400D01*
X69584600Y8449800D02*
X70097300Y8962500D01*
%TO.N,SENSOR5*%
D53*
X14087500Y84816000D02*
X14087500Y89946600D01*
X20087500Y84816000D02*
X20087500Y83589500D01*
%TO.N,AMP_OUT3*%
X24000000Y60087500D02*
X22969200Y60087500D01*
X22969200Y60087500D02*
X22758300Y59876600D01*
X16865000Y69475000D02*
X16865000Y66051300D01*
X24912500Y61000000D02*
X24000000Y60087500D01*
X29087500Y61000000D02*
X24912500Y61000000D01*
%TO.N,AMP_SERIES3*%
X31227300Y61314800D02*
X31959900Y61314800D01*
X29975000Y69862500D02*
X29975000Y71109400D01*
X30912500Y61000000D02*
X31227300Y61314800D01*
%TO.N,ADC_AIN3*%
X30625000Y64137500D02*
X30625000Y63428700D01*
X30625000Y63428700D02*
X31180200Y62873500D01*
X30625000Y69862500D02*
X30625000Y69148200D01*
X30625000Y69148200D02*
X28843600Y67366800D01*
X26199400Y68888100D02*
X25000000Y70087500D01*
X31180200Y62873500D02*
X31454600Y62873500D01*
X27064200Y67251600D02*
X26199400Y68116400D01*
X28843600Y67251600D02*
X27064200Y67251600D01*
X28843600Y67251600D02*
X28843600Y66730000D01*
X26027700Y71115200D02*
X26027700Y85255000D01*
X25000000Y70087500D02*
X26027700Y71115200D01*
X26199400Y68116400D02*
X26199400Y68888100D01*
X28843600Y67366800D02*
X28843600Y67251600D01*
%TO.N,ADC_AIN2*%
X27375000Y63439100D02*
X26992900Y63057000D01*
X26437800Y63057000D02*
X25000000Y64494800D01*
X27138400Y65921500D02*
X27375000Y65684900D01*
X27375000Y64137500D02*
X27375000Y63439100D01*
X27375000Y71334400D02*
X27375000Y69862500D01*
X25000000Y64494800D02*
X25000000Y66087500D01*
X27375000Y65684900D02*
X27375000Y64137500D01*
X27375000Y79945000D02*
X27028700Y79598700D01*
X26992900Y63057000D02*
X26437800Y63057000D01*
X27028700Y79598700D02*
X27028700Y71680700D01*
X27028700Y71680700D02*
X27375000Y71334400D01*
%TO.N,ADC_MOSI*%
D58*
X49912500Y17500000D02*
X49912500Y17003000D01*
X51915500Y15000000D02*
X53087500Y15000000D01*
X49912500Y17003000D02*
X51915500Y15000000D01*
X49912500Y17500000D02*
X49912500Y18739000D01*
%TO.N,ADC_OE_BASE*%
D53*
X50912500Y13000000D02*
X49062500Y11150000D01*
X46862500Y10950000D02*
X46500000Y10587500D01*
X49062500Y11150000D02*
X49062500Y10950000D01*
X49062500Y10950000D02*
X46862500Y10950000D01*
%TO.N,ADC_MOSI_DRV*%
D58*
X48087500Y20219100D02*
X48087500Y17500000D01*
X47100000Y20675000D02*
X47631600Y20675000D01*
X47631600Y20675000D02*
X48087500Y20219100D01*
%TO.N,ADC_SCLK_DRV*%
X48087500Y24500000D02*
X48087500Y23284300D01*
X50109900Y20675000D02*
X49833900Y20951000D01*
X50900000Y20675000D02*
X50109900Y20675000D01*
%TO.N,AMP_FB5*%
D53*
X18000000Y85912500D02*
X16923500Y84836000D01*
X16923500Y82164000D02*
X17087500Y82000000D01*
X16923500Y84836000D02*
X16923500Y82164000D01*
X17785000Y92656000D02*
X18420000Y93291000D01*
X17785000Y86127500D02*
X17785000Y92656000D01*
X18000000Y85912500D02*
X17785000Y86127500D01*
%TO.N,CLAMP_GND5*%
X32284900Y86802600D02*
X30347300Y86802600D01*
X29975000Y87174900D02*
X29975000Y87953500D01*
X33000000Y86087500D02*
X32284900Y86802600D01*
X30347300Y86802600D02*
X29975000Y87174900D01*
%TO.N,ADC_AIN5*%
X30625000Y93678500D02*
X30625000Y91212200D01*
X30625000Y93678500D02*
X30625000Y94918300D01*
X30350400Y89142800D02*
X30625000Y88868200D01*
X30625000Y91212200D02*
X30626200Y91211000D01*
X25000000Y86087500D02*
X25972400Y87059900D01*
X30350400Y89661800D02*
X30350400Y89142800D01*
X25972400Y87059900D02*
X25972400Y87091000D01*
X30626200Y91211000D02*
X30665900Y91171300D01*
X30625000Y88868200D02*
X30625000Y87953500D01*
X30665900Y89977300D02*
X30350400Y89661800D01*
X30665900Y91171300D02*
X30665900Y89977300D01*
%TO.N,AMP_SERIES5*%
X29975000Y93678500D02*
X29975000Y90199400D01*
X30192800Y86175900D02*
X30192800Y85535700D01*
X30192800Y85535700D02*
X30912500Y84816000D01*
%TO.N,EM_LED3_A*%
X22585500Y18734200D02*
X18755800Y18734200D01*
X27162500Y15250000D02*
X26069700Y15250000D01*
X18755800Y18734200D02*
X12525000Y24965000D01*
X28412500Y14000000D02*
X27162500Y15250000D01*
X26069700Y15250000D02*
X22585500Y18734200D01*
%TO.N,EM_OPTO_C*%
X79825000Y124627900D02*
X79825000Y134000000D01*
X69639900Y112440100D02*
X69639900Y117162000D01*
X70810000Y111270000D02*
X69639900Y112440100D01*
X69639900Y117162000D02*
X70134000Y117656100D01*
X78447800Y123250700D02*
X79825000Y124627900D01*
%TO.N,AMP_OUT5*%
X17150000Y93291000D02*
X17850000Y94400000D01*
X19226300Y85313800D02*
X18000000Y84087500D01*
X28173900Y84816000D02*
X28058400Y84700500D01*
X29087500Y84816000D02*
X28173900Y84816000D01*
X20500000Y92500000D02*
X19700000Y90600000D01*
X19226300Y85764300D02*
X19226300Y85313800D01*
X17850000Y94400000D02*
X18100000Y94600000D01*
X18100000Y94600000D02*
X19350000Y94750000D01*
%TO.N,CLAMP_GND2*%
X33000000Y69361300D02*
X33000000Y70087500D01*
X28797700Y65651600D02*
X29290300Y65651600D01*
X28025000Y64878900D02*
X28797700Y65651600D01*
X28025000Y64137500D02*
X28025000Y64878900D01*
X29290300Y65651600D02*
X33000000Y69361300D01*
%TO.N,AMP_SERIES2*%
X28025000Y69862500D02*
X28025000Y70567300D01*
X28025000Y70567300D02*
X29281800Y71824100D01*
X29281800Y71824100D02*
X29736600Y71824100D01*
X29736600Y71824100D02*
X30912500Y73000000D01*
%TO.N,EM_LED_RETURN*%
X9985000Y24965000D02*
X11372700Y26352700D01*
X50702200Y56627300D02*
X50422700Y56347800D01*
X52327000Y58615500D02*
X51709400Y58615500D01*
X11372700Y26352700D02*
X13677300Y26352700D01*
X15065000Y24965000D02*
X16443800Y23586200D01*
X50422700Y54777200D02*
X50702200Y54497700D01*
X51709400Y58615500D02*
X50702300Y57608400D01*
X50702300Y56627300D02*
X50702200Y56627300D01*
X53687500Y60500000D02*
X53687500Y59976000D01*
X50702200Y54497700D02*
X51410700Y54497700D01*
X18766200Y23586200D02*
X20145000Y24965000D01*
X16443800Y23586200D02*
X18766200Y23586200D01*
X53687500Y59976000D02*
X52327000Y58615500D01*
X20145000Y24965000D02*
X20145000Y23444500D01*
X50702300Y57608400D02*
X50702300Y56627300D01*
X13677300Y26352700D02*
X15065000Y24965000D01*
X51410700Y54497700D02*
X51528200Y54380200D01*
X50422700Y56347800D02*
X50422700Y54777200D01*
%TO.N,EM_LED2_A*%
X28412500Y19000000D02*
X27384800Y20027700D01*
X21415000Y23917800D02*
X21415000Y25903800D01*
X27384800Y20027700D02*
X25305100Y20027700D01*
X18981800Y26341800D02*
X17605000Y24965000D01*
X25305100Y20027700D02*
X21415000Y23917800D01*
X20977000Y26341800D02*
X18981800Y26341800D01*
X21415000Y25903800D02*
X20977000Y26341800D01*
%TO.N,EM_GATE1_DRIVE*%
X21459100Y16416000D02*
X21459100Y16415900D01*
X21125900Y16415900D02*
X20145000Y15435000D01*
X25065600Y15276300D02*
X23532100Y16809800D01*
X26000000Y9000000D02*
X25065600Y9934400D01*
X21459100Y16415900D02*
X21125900Y16415900D01*
X23532100Y16809800D02*
X21852900Y16809800D01*
X21852900Y16809800D02*
X21459100Y16416000D01*
X25065600Y9934400D02*
X25065600Y15276300D01*
%TO.N,AMP_IN2*%
X20383000Y71470500D02*
X21912500Y73000000D01*
X20383000Y67570100D02*
X20383000Y71470500D01*
X18135000Y65322100D02*
X20383000Y67570100D01*
X18135000Y64525000D02*
X18135000Y65322100D01*
%TO.N,EM_GATE1*%
X25233300Y7941700D02*
X24175000Y9000000D01*
X26517500Y7941700D02*
X25233300Y7941700D01*
X25912500Y11500000D02*
X26887400Y10525100D01*
X26887400Y10525100D02*
X26887400Y8311600D01*
X22050000Y9050000D02*
X24125000Y9050000D01*
X26887400Y8311600D02*
X26517500Y7941700D01*
X24125000Y9050000D02*
X24175000Y9000000D01*
%TO.N,ADC_REG_EN*%
X51978400Y72310700D02*
X52580100Y72912400D01*
X48937500Y56189800D02*
X48935900Y56189800D01*
X52580100Y72912400D02*
X52580100Y73255100D01*
X37715300Y117425500D02*
X37715300Y92302400D01*
X51978400Y69825900D02*
X51978400Y72310700D01*
X48937500Y57000000D02*
X48937500Y56189800D01*
X19873300Y121357900D02*
X19678600Y121163200D01*
X20550000Y121500000D02*
X19873300Y121500000D01*
X19873300Y121500000D02*
X19873300Y121357900D01*
X37715300Y92302400D02*
X35206600Y89793700D01*
X35206600Y89793700D02*
X35206600Y72619500D01*
X48935900Y56189800D02*
X48893500Y56147400D01*
X52580100Y73255100D02*
X54325000Y75000000D01*
%TO.N,ADC_CS_N*%
D58*
X59912500Y24500000D02*
X59912500Y24127600D01*
X59912500Y24127600D02*
X61352000Y22688100D01*
X63087500Y20952600D02*
X63087500Y20500000D01*
X56450000Y32578000D02*
X54475900Y30603900D01*
X61352000Y22688100D02*
X63087500Y20952600D01*
X56450000Y34025000D02*
X56450000Y32578000D01*
%TO.N,EM_LED_ENABLE_GATE*%
D53*
X51812500Y61450000D02*
X55725000Y61450000D01*
X55725000Y61450000D02*
X56175000Y61000000D01*
X56175000Y61000000D02*
X56175000Y60000000D01*
X61825000Y65000000D02*
X61051600Y65773400D01*
%TO.N,AMP_FB3*%
X20087500Y57127800D02*
X20087500Y58500000D01*
X19338600Y67829700D02*
X19756300Y67829700D01*
X18135000Y69475000D02*
X18135000Y69033300D01*
X24939700Y63254800D02*
X24939700Y62852200D01*
X24939700Y62852200D02*
X24000000Y61912500D01*
X18135000Y69033300D02*
X19338600Y67829700D01*
%TO.N,ADC_SUP_MR_N*%
X45500000Y77892300D02*
X45500000Y75325000D01*
X50137500Y69050000D02*
X50584700Y68602800D01*
X44415100Y78977200D02*
X45500000Y77892300D01*
X50584700Y68602800D02*
X51284100Y68602800D01*
X49775600Y61338100D02*
X49775600Y63135500D01*
X49437500Y61000000D02*
X49775600Y61338100D01*
X49775600Y63135500D02*
X49323800Y63135500D01*
%TO.N,ADC_PDWN_N*%
X54000000Y70339700D02*
X53869800Y70209500D01*
X54000000Y72937500D02*
X54000000Y70339700D01*
X56825000Y81069700D02*
X56825000Y77500000D01*
X39772800Y42250200D02*
X39772800Y69886100D01*
X42948400Y39074600D02*
X39772800Y42250200D01*
%TO.N,DET_RPOL_GATE*%
X74175000Y105000000D02*
X73517000Y105000000D01*
X73517000Y105000000D02*
X72707700Y105809300D01*
X72707700Y107595200D02*
X74062500Y108950000D01*
X72707700Y105809300D02*
X72707700Y107595200D01*
%TO.N,EMIT1_LOW*%
D56*
X20175000Y6430000D02*
X20175000Y10000000D01*
X21505000Y5100000D02*
X20175000Y6430000D01*
%TO.N,EM_RPOL_GATE*%
D53*
X70062500Y138887500D02*
X70062500Y136950000D01*
X70175000Y139000000D02*
X70062500Y138887500D01*
%TO.N,EM_BAT_FUSED*%
D57*
X71937500Y136000000D02*
X71937500Y137200000D01*
D56*
X78400000Y131000000D02*
X78400000Y129600000D01*
%TO.N,ADC_LDO_ILIM*%
D53*
X18175000Y120500000D02*
X20550000Y120500000D01*
X16175000Y118500000D02*
X18175000Y120500000D01*
%TO.N,AMP_IN5*%
X19055000Y87255800D02*
X19055000Y92656000D01*
X19055000Y92656000D02*
X19690000Y93291000D01*
X19796200Y86514600D02*
X19055000Y87255800D01*
X20213900Y86514600D02*
X19796200Y86514600D01*
X21912500Y84816000D02*
X20213900Y86514600D01*
%TD*%
%TA.AperFunction,Conductor*%
%TO.N,EM_GND*%
G36*
X83343039Y77430315D02*
G01*
X83388794Y77377511D01*
X83400000Y77326000D01*
X83400000Y65674000D01*
X83380315Y65606961D01*
X83327511Y65561206D01*
X83276000Y65550000D01*
X79927263Y65550000D01*
X79862459Y65569029D01*
X79862354Y65568845D01*
X79861597Y65569282D01*
X79860224Y65569685D01*
X79857124Y65571865D01*
X79729788Y65645383D01*
X79729789Y65645383D01*
X79718306Y65648460D01*
X79589775Y65682900D01*
X79444825Y65682900D01*
X79316293Y65648460D01*
X79304811Y65645383D01*
X79172246Y65568845D01*
X79170976Y65571044D01*
X79117650Y65550430D01*
X79107337Y65550000D01*
X70224000Y65550000D01*
X70156961Y65569685D01*
X70111206Y65622489D01*
X70100000Y65674000D01*
X70100000Y66260672D01*
X70119685Y66327711D01*
X70172489Y66373466D01*
X70180649Y66376848D01*
X70192331Y66381204D01*
X70307546Y66467454D01*
X70393796Y66582669D01*
X70444091Y66717517D01*
X70450500Y66777127D01*
X70450499Y67397872D01*
X70444091Y67457483D01*
X70393796Y67592331D01*
X70393795Y67592332D01*
X70393793Y67592336D01*
X70307547Y67707545D01*
X70307544Y67707548D01*
X70192334Y67793795D01*
X70180661Y67798149D01*
X70124729Y67840023D01*
X70100316Y67905489D01*
X70100000Y67914329D01*
X70100000Y77175500D01*
X70119685Y77242539D01*
X70172489Y77288294D01*
X70224000Y77299500D01*
X72253920Y77299500D01*
X72387139Y77326000D01*
X72398913Y77328342D01*
X72535495Y77384916D01*
X72584729Y77417814D01*
X72601625Y77429104D01*
X72668302Y77449980D01*
X72670514Y77450000D01*
X83276000Y77450000D01*
X83343039Y77430315D01*
G37*
%TD.AperFunction*%
%TD*%
M02*
